<svg xmlns="http://www.w3.org/2000/svg" width="170" height="33" viewBox="0 0 170 33">
    <g fill="#7C8084" fill-rule="nonzero">
        <path d="M17.357 18.216a38.44 38.44 0 0 0 .31 5.284h-3.491l-.31-2.783h-.128c-1.54 2.114-3.972 3.335-6.536 3.281-4.33 0-6.535-3.117-6.535-6.328 0-5.33 4.593-8.245 12.844-8.198v-.444c0-1.777-.483-5.097-4.858-5.058-1.98-.026-3.924.54-5.599 1.629L2.178 2.91A13.53 13.53 0 0 1 9.235 1c6.543 0 8.122 4.599 8.122 8.97v8.246zm-3.778-5.97c-4.246-.093-9.067.686-9.067 4.964 0 2.642 1.67 3.827 3.62 3.827 2.354.094 4.495-1.398 5.288-3.686.126-.425.19-.866.19-1.31l-.03-3.795zM35.654 0c.802-.01 1.572.255 2.13.732.577.468.895 1.112.882 1.782.01.658-.31 1.29-.881 1.747-.556.481-1.328.749-2.13.739-.796.008-1.56-.26-2.106-.739-.573-.456-.892-1.089-.882-1.747-.013-.67.306-1.314.882-1.782.55-.475 1.312-.74 2.105-.732zM30.973 3.398a4.17 4.17 0 0 1 .694-2.31A8.619 8.619 0 0 0 30.516 1c-2.92 0-5.594 1.904-6.677 4.931h-.17l-.194-4.469h-3.808c.144 2.095.194 4.374.194 7.027V24h4.35V11.986c0-.64.052-1.279.152-1.912.593-3.075 2.768-5.21 5.84-5.21.344-.018.688-.018 1.032 0a4.286 4.286 0 0 1-.262-1.466zM36.152 6.518A6.025 6.025 0 0 1 33.667 6v17h5V6a6.164 6.164 0 0 1-2.515.518zM63.363 18.214c-.021 1.766.08 3.531.304 5.283h-3.488l-.312-2.775h-.13c-1.541 2.111-3.973 3.33-6.535 3.276-4.324 0-6.535-3.135-6.535-6.333 0-5.322 4.56-8.238 12.85-8.191v-.431c0-1.78-.486-5.103-4.856-5.056a10.058 10.058 0 0 0-5.608 1.638l-.882-2.712a13.52 13.52 0 0 1 7.068-1.912c6.535 0 8.124 4.6 8.124 8.975v8.238zm-3.754-5.965c-4.24-.07-9.051.713-9.051 4.961 0 2.642 1.671 3.825 3.617 3.825 2.34.08 4.463-1.409 5.251-3.684.12-.406.181-.829.183-1.254V12.25zM85.492 20.252c0 5.1-1.015 8.149-3.031 10.107C80.445 32.32 77.353 33 74.67 33c-2.555 0-5.374-.635-7.095-1.818l.97-3.095a11.31 11.31 0 0 0 6.253 1.771c3.964 0 6.866-2.14 6.866-7.734v-2.413h-.083c-1.457 2.418-4.069 3.829-6.821 3.683-5.305 0-9.094-4.639-9.094-10.743C65.72 5.192 70.434 1 75.367 1c3.699 0 5.677 1.959 6.647 3.777h.09l.13-3.323h3.433c-.13 1.568-.175 3.37-.175 6.01v12.788zm-3.88-10.1a5.514 5.514 0 0 0-.212-1.779c-.643-2.542-2.877-4.306-5.419-4.278-3.698 0-6.336 3.236-6.336 8.33 0 4.324 2.153 7.92 6.29 7.92 2.472.016 4.659-1.651 5.374-4.097.208-.693.31-1.414.303-2.14v-3.956zM92.41 13.203c.092 5.416 3.436 7.65 7.4 7.65 2.047.07 4.084-.318 5.968-1.136l.713 2.868a17.31 17.31 0 0 1-7.217 1.411c-6.642 0-10.607-4.507-10.607-11.153C88.667 6.196 92.47 1 98.752 1c7.087 0 8.913 6.27 8.913 10.338.012.625-.032 1.249-.13 1.865H92.41zm11.504-2.868c.046-2.508-1.02-6.466-5.438-6.466-4.003 0-5.698 3.691-6.013 6.466h11.451zM109.845 7.263c0-2.302-.044-4.05-.178-5.839h3.388l.201 3.591h.09c1.42-2.544 4.078-4.083 6.926-4.013 2.897 0 7.395 1.788 7.395 9.208V23h-3.806V10.563c0-3.476-1.251-6.376-4.848-6.376-2.362.067-4.416 1.683-5.101 4.012a5.64 5.64 0 0 0-.261 1.826V23h-3.806V7.263zM147.582 22.722a14.856 14.856 0 0 1-6.19 1.277c-6.496 0-10.725-4.505-10.725-11.244 0-6.738 4.543-11.753 11.568-11.753a12.132 12.132 0 0 1 5.432 1.183l-.889 3.048a9.4 9.4 0 0 0-4.543-1.042c-4.934 0-7.608 3.777-7.608 8.329 0 5.093 3.203 8.235 7.478 8.235a10.96 10.96 0 0 0 4.803-1.042l.674 3.009zM153.882 1l4.616 13.003a55.413 55.413 0 0 1 1.407 4.5h.09c.394-1.323.833-3.005 1.363-4.593L165.58 1h4.087l-5.804 15.687c-2.77 7.542-4.662 11.36-7.295 13.77A10.854 10.854 0 0 1 151.846 33l-.991-3.302a10.143 10.143 0 0 0 3.382-1.956 12.635 12.635 0 0 0 3.254-4.452c.154-.297.256-.62.303-.954a2.823 2.823 0 0 0-.303-1.048L149.667 1h4.215z"/>
    </g>
</svg>
