<?xml version="1.0" encoding="UTF-8"?>
<svg width="321px" height="88px" viewBox="0 0 321 88" version="1.1" xmlns="http://www.w3.org/2000/svg" xmlns:xlink="http://www.w3.org/1999/xlink">
    <!-- Generator: Sketch 53.2 (72643) - https://sketchapp.com -->
    <title>Invitation</title>
    <desc>Created with Sketch.</desc>
    <defs>
        <polygon id="path-1" points="0.395842048 0.140662625 202.922738 0.140662625 202.922738 91.5846959 0.395842048 91.5846959"></polygon>
        <polygon id="path-3" points="0 0.0521263581 16.180589 0.0521263581 16.180589 15.6697358 0 15.6697358"></polygon>
    </defs>
    <g id="Page-2" stroke="none" stroke-width="1" fill="none" fill-rule="evenodd">
        <g id="desktop" transform="translate(-481.000000, -2273.000000)">
            <g id="Group-8" transform="translate(200.000000, 2187.000000)">
                <g id="Invitation" transform="translate(280.000000, 19.000000)">
                    <g id="arrow" transform="translate(106.500000, 105.500000) rotate(-136.000000) translate(-106.500000, -105.500000) translate(4.000000, 59.000000)">
                        <g id="Group-3" transform="translate(1.044649, 0.000000)">
                            <mask id="mask-2" fill="white">
                                <use xlink:href="#path-1"></use>
                            </mask>
                            <g id="Clip-2"></g>
                            <path d="M1.20773637,89.2486632 C2.48422371,88.1997852 0.0641011422,91.2699962 0.97081678,91.5845488 C1.08152687,91.5989474 1.77457203,90.5544997 2.90160075,89.127937 C4.01091586,87.6880834 5.23758365,86.2061417 5.50550207,85.8129509 C13.9117192,74.1667501 23.7638101,62.2514075 34.4307273,53.4206744 C43.6805554,45.7805895 55.1777982,38.0441451 66.7580736,31.395344 C70.2531912,29.4681553 73.7748792,27.4468223 77.4914169,25.692416 C81.1371002,23.7973471 84.9732048,22.1935717 88.7971313,20.5011899 C96.5390879,17.3401574 104.511321,14.4117166 112.641871,12.1566843 C128.853149,7.46719173 145.383273,4.65615439 160.589303,3.15316871 C162.831183,2.84636913 165.405192,2.77216129 168.158552,2.66140331 C170.914126,2.57722725 173.846837,2.4110903 176.833795,2.3889387 C182.811033,2.45539349 188.980906,2.25602914 194.312704,2.18957435 C196.127242,2.12754989 197.533261,2.12644231 198.805319,1.95919777 C199.542649,1.86394591 200.263371,1.67565736 200.97413,1.46410963 C201.433577,1.32676975 201.905202,1.23927095 202.362435,1.08753253 C202.538464,1.0288308 203.20051,0.835004352 202.79199,0.641177901 C202.281616,0.397510362 201.488932,0.465072725 200.940917,0.440705971 C199.845994,0.393080043 198.748857,0.382004246 197.652827,0.36760571 C196.126135,0.346561695 194.599443,0.328840419 193.073858,0.278999332 C191.598093,0.230265824 190.185432,0.184855056 188.820376,0.140551867 C187.454214,0.148304925 186.135657,0.156057983 184.850313,0.162703461 C182.280731,0.169348939 179.844002,0.174886838 177.421666,0.180424737 C176.20939,0.162703461 175.001543,0.201468751 173.783732,0.271246274 C172.565921,0.32662526 171.335932,0.384219405 170.080479,0.441813551 C167.570682,0.576938277 164.951281,0.650038539 162.11821,0.873769642 C147.196704,2.0123616 131.699505,4.60852846 116.003029,8.87603313 C100.627612,13.0615769 85.5843245,18.8065929 71.513072,26.1066509 C64.4863026,29.7771701 57.7163806,33.8286967 51.1933421,38.1382894 C44.7323012,42.537596 38.5369646,47.2027218 32.6870434,52.1369895 C26.855943,57.0413525 21.4743255,62.3931777 16.4536229,68.2600275 C13.8773991,71.3546052 10.749839,74.7249703 8.05515545,78.1883721 C5.33390143,81.6240844 2.95917,85.077518 1.64504123,87.9915602 C0.898855222,89.6219176 -0.498306116,91.2555977 1.20773637,89.2486632" id="Fill-1" fill="#2E2E30" mask="url(#mask-2)"></path>
                        </g>
                        <g id="Group-6" transform="translate(0.000000, 76.259381)">
                            <mask id="mask-4" fill="white">
                                <use xlink:href="#path-3"></use>
                            </mask>
                            <g id="Clip-5"></g>
                            <path d="M1.18894991,0.0528293951 C1.11317803,0.0550679288 1.03963474,0.0629027967 0.970548616,0.0763339989 C0.768861705,0.116627605 0.616203656,0.27108643 0.453516977,0.384132381 C0.199458326,0.560976543 0.0846862168,0.909068532 0.0724290012,0.970628208 C-0.284144543,2.8073451 0.801176182,4.51870411 0.60840361,6.25580625 C0.442374053,7.76457796 0.184972526,9.52070764 0.513688762,11.1234978 C0.684175488,12.0233883 0.859119383,12.9479027 1.03740616,13.8903254 L1.24355024,14.9804913 C1.33937938,15.4863999 1.85975389,15.7908405 2.34558535,15.6240697 L3.33619122,15.2838126 C6.12860779,14.3268395 8.93439587,13.3877746 11.5362685,11.9741406 C12.3853592,11.5118834 13.3703936,11.3965989 14.2673989,11.0608188 C14.980546,10.7944333 15.605664,10.294121 16.0034664,9.64046919 C16.3366398,9.09426697 16.2318963,8.17646816 15.4128915,8.23690857 C14.9259457,8.27384437 14.4969432,8.54358768 14.0590263,8.73722085 C13.196564,9.11777158 12.2806157,9.33714788 11.4058962,9.68859767 C9.73222918,10.3590385 2.99744636,13.2903984 2.99744636,13.2903984 C2.57512957,10.625424 2.6130155,8.19773423 2.71887328,5.55514521 C2.75341634,4.69666754 2.56175806,3.85609814 2.39907138,3.0132902 C2.29767078,2.48611552 2.35561398,1.94103256 2.31104228,1.40938081 C2.27315635,0.953839206 2.12941264,0.265490096 1.62463821,0.106554204 C1.49315172,0.0651413304 1.33826508,0.0483523277 1.18894991,0.0528293951" id="Fill-4" fill="#2E2E30" mask="url(#mask-4)"></path>
                        </g>
                    </g>
                    <path d="M205.931641,108.322266 C210.866561,107.104812 213.333984,105.926438 213.333984,104.787109 C213.333984,104.669921 213.317708,104.55599 213.285156,104.445312 C213.070311,103.696611 211.403661,102.94141 208.285156,102.179688 C207.432287,101.977864 206.846356,101.876953 206.527344,101.876953 C206.455729,101.876953 206.397136,101.883463 206.351562,101.896484 C205.986977,102.026693 205.804688,102.60937 205.804688,103.644531 C205.804688,105.447926 205.847005,107.007155 205.931641,108.322266 Z M208.5,110.548828 C209.138024,110.919924 211.29295,112.033194 214.964844,113.888672 C217.38022,115.060553 218.587891,115.825519 218.587891,116.183594 L218.587891,116.222656 C218.457682,116.671877 218.128909,117.049478 217.601562,117.355469 C217.236977,117.570314 216.914715,117.677734 216.634766,117.677734 C216.524088,117.677734 216.419922,117.661458 216.322266,117.628906 C213.77017,116.743485 211.576181,115.737636 209.740234,114.611328 C207.578765,113.283196 206.335288,112.550782 206.009766,112.414062 C206.035807,114.145842 206.048828,115.174478 206.048828,115.5 L206.048828,115.617188 C205.996745,117.003913 205.762372,117.752604 205.345703,117.863281 C205.000649,117.954428 204.697918,118 204.4375,118 C203.747392,118 203.314454,117.794924 203.138672,117.384766 C203.060546,117.195963 203.021484,116.6849 203.021484,115.851562 L203.021484,115.65625 C203.021484,115.526041 203.041015,115.207034 203.080078,114.699219 C203.119141,114.171872 203.141927,113.76172 203.148438,113.46875 L203.148438,113.205078 C203.148438,112.36523 203.060548,111.929037 202.884766,111.896484 L202.601562,111.90625 C202.373697,111.932292 202.230469,111.945312 202.171875,111.945312 L202.103516,111.945312 C201.791014,111.945312 201.563152,111.854168 201.419922,111.671875 C201.309244,111.522135 201.253906,111.346355 201.253906,111.144531 C201.253906,110.968749 201.292968,110.776694 201.371094,110.568359 C201.514324,110.171222 201.712889,109.858725 201.966797,109.630859 C201.986328,109.630859 202.246742,109.484376 202.748047,109.191406 C202.910808,109.022135 202.998698,108.761721 203.011719,108.410156 C203.044271,107.498693 203.063802,106.115244 203.070312,104.259766 C203.070312,102.840488 203.080078,102.130859 203.099609,102.130859 C203.001953,101.590492 202.634118,101.317057 201.996094,101.310547 C201.338538,101.297526 200.847007,101.128257 200.521484,100.802734 C200.384765,100.659504 200.316406,100.509766 200.316406,100.353516 C200.316406,100.073566 200.544269,99.770835 201,99.4453125 C201.449221,99.11979 202.17838,98.9082036 203.1875,98.8105469 C203.441408,98.7845051 203.766925,98.5891945 204.164062,98.2246094 C204.515627,97.8990869 204.837889,97.7363281 205.130859,97.7363281 L205.179688,97.7363281 C205.459637,97.7363281 205.667968,97.8600248 205.804688,98.1074219 C206.065105,98.5826847 206.198568,98.8235677 206.205078,98.8300781 L209.300781,99.6601562 C209.600262,99.7513025 210.1276,99.8912751 210.882812,100.080078 C211.644535,100.268881 212.230467,100.42513 212.640625,100.548828 C214.053392,100.978518 215.075518,101.505856 215.707031,102.130859 C216.169273,102.586591 216.400391,103.172522 216.400391,103.888672 C216.400391,104.162111 216.367839,104.451821 216.302734,104.757812 C216.0944,105.721359 215.687503,106.522132 215.082031,107.160156 C214.391924,107.895837 213.330736,108.615231 211.898438,109.318359 C210.713536,109.9043 209.580735,110.314452 208.5,110.548828 Z M221.625,112.873047 C222.041669,112.873047 222.383462,112.726564 222.650391,112.433594 C222.897788,112.166665 223.041015,111.834637 223.080078,111.4375 C223.086589,111.372396 223.089844,111.307292 223.089844,111.242188 C223.089844,110.929686 223.01172,110.652996 222.855469,110.412109 C222.647134,110.086587 222.341148,109.897787 221.9375,109.845703 C221.885416,109.839193 221.836589,109.835938 221.791016,109.835938 C221.530598,109.835938 221.328777,109.943358 221.185547,110.158203 C221.035807,110.379558 220.960938,110.685545 220.960938,111.076172 C220.960938,111.948572 221.182289,112.547524 221.625,112.873047 Z M229.398438,112.0625 C229.8737,111.710936 230.23177,111.535156 230.472656,111.535156 C230.713543,111.535156 230.833984,111.717446 230.833984,112.082031 C230.677734,113.182297 230.062505,114.337885 228.988281,115.548828 C227.940099,116.720709 226.875656,117.495441 225.794922,117.873047 C225.404295,117.957683 225.016929,118 224.632812,118 C222.725251,118 220.967456,116.919282 219.359375,114.757812 C218.812497,114.022132 218.539062,113.013027 218.539062,111.730469 C218.539062,111.190101 218.58789,110.597659 218.685547,109.953125 C218.861329,108.794265 219.785799,108.029299 221.458984,107.658203 C221.68685,107.60612 221.911457,107.580078 222.132812,107.580078 C222.738284,107.580078 223.304685,107.775389 223.832031,108.166016 C224.430993,108.608726 224.942055,109.269527 225.365234,110.148438 C225.475912,110.545575 225.53125,110.916665 225.53125,111.261719 C225.53125,112.283859 225.052739,113.107419 224.095703,113.732422 C223.939452,113.836589 223.731121,113.934244 223.470703,114.025391 C223.177733,114.129558 223.001953,114.194661 222.943359,114.220703 C222.80664,114.292318 222.738281,114.383463 222.738281,114.494141 L222.738281,114.513672 C222.751302,114.650391 222.865233,114.835936 223.080078,115.070312 C223.53581,115.565107 224.059893,115.8125 224.652344,115.8125 C224.821615,115.8125 224.997395,115.792969 225.179688,115.753906 C225.94141,115.584635 226.703121,115.050786 227.464844,114.152344 C228.486984,112.960932 229.131509,112.264324 229.398438,112.0625 Z M237.298828,109.884766 C236.940753,109.643879 236.569663,109.523438 236.185547,109.523438 C235.267574,109.523438 234.424483,110.080073 233.65625,111.193359 C233.499999,111.421225 233.33724,111.844398 233.167969,112.462891 C233.063802,112.840497 233.011719,113.152994 233.011719,113.400391 C233.011719,113.68034 233.076822,113.878906 233.207031,113.996094 C233.239583,114.022136 233.288411,114.035156 233.353516,114.035156 C233.796226,114.035156 234.479813,113.572921 235.404297,112.648438 C236.367843,111.678381 236.999347,110.757166 237.298828,109.884766 Z M246.039062,118.898438 C246.162761,119.041667 246.224609,119.18815 246.224609,119.337891 C246.224609,119.383464 246.218099,119.429036 246.205078,119.474609 C246.08789,119.988935 245.072275,120.584632 243.158203,121.261719 C242.311845,121.750002 241.623375,122.121092 241.092773,122.375 C240.562172,122.628908 239.948571,123.192053 239.251953,124.064453 C238.880858,124.630862 238.636719,124.953125 238.519531,125.03125 C238.200519,125.226563 237.972657,125.324219 237.835938,125.324219 C237.751302,125.324219 237.588543,125.298177 237.347656,125.246094 C236.807289,125.180989 236.45573,124.979168 236.292969,124.640625 C236.188802,124.432291 236.136719,124.04167 236.136719,123.46875 L236.136719,123.273438 C236.130208,122.895831 236.126953,122.524741 236.126953,122.160156 C236.126953,119.223944 236.266926,116.636079 236.546875,114.396484 C235.003899,115.861335 233.587897,116.59375 232.298828,116.59375 C231.758461,116.59375 231.325522,116.424481 231,116.085938 C230.557289,115.617185 230.335938,114.861984 230.335938,113.820312 C230.335938,113.696614 230.339193,113.569662 230.345703,113.439453 C230.345703,111.922518 231.003249,110.526048 232.318359,109.25 C233.63347,107.967442 235.065747,107.326172 236.615234,107.326172 L236.78125,107.326172 C237.523441,107.417318 238.073566,107.560546 238.431641,107.755859 C238.783205,107.951173 239.196612,108.345049 239.671875,108.9375 C239.834636,109.139324 239.916016,109.4388 239.916016,109.835938 C239.916016,110.278648 239.81836,110.841793 239.623047,111.525391 C239.492838,111.987633 239.414714,112.31315 239.388672,112.501953 C239.147785,114.240243 239.027344,116.284493 239.027344,118.634766 C239.027344,119.103518 239.030599,119.585284 239.037109,120.080078 C241.146495,119.201167 243.089835,118.761719 244.867188,118.761719 C245.264325,118.761719 245.654946,118.807291 246.039062,118.898438 Z M250.433594,115.128906 C250.863283,116.333339 251.078125,117.212237 251.078125,117.765625 C251.078125,118.442712 250.788414,118.78125 250.208984,118.78125 C249.811847,118.78125 249.430991,118.628257 249.066406,118.322266 C248.558591,117.899086 248.16146,116.964851 247.875,115.519531 C247.790364,115.089842 247.725261,114.783855 247.679688,114.601562 C247.204425,115.460942 246.550134,116.225908 245.716797,116.896484 C244.824865,117.612634 244.017582,117.970703 243.294922,117.970703 C242.708981,117.970703 242.253257,117.720055 241.927734,117.21875 C241.582681,116.678383 241.410156,115.871099 241.410156,114.796875 C241.410156,113.677078 241.621743,112.358732 242.044922,110.841797 C242.578779,108.895173 243.236324,107.908854 244.017578,107.882812 L244.027344,107.882812 C244.313804,107.882812 244.535155,107.977213 244.691406,108.166016 C244.847657,108.361329 244.925781,108.716143 244.925781,109.230469 C244.925781,109.992191 244.759767,111.098951 244.427734,112.550781 C244.173827,113.670579 244.046875,114.402993 244.046875,114.748047 C244.046875,114.871745 244.063151,114.946614 244.095703,114.972656 C244.128255,114.972656 244.173828,114.95638 244.232422,114.923828 C245.124353,114.37695 245.785154,113.579432 246.214844,112.53125 C246.462241,111.925778 246.680338,111.037115 246.869141,109.865234 C246.986329,109.129554 247.097005,108.634767 247.201172,108.380859 C247.370444,107.977212 247.627602,107.775391 247.972656,107.775391 C248.649743,107.775391 249.124999,108.244136 249.398438,109.181641 C249.561199,109.728518 249.678385,110.636712 249.75,111.90625 C249.789063,112.576826 249.828125,113.026041 249.867188,113.253906 C249.938802,113.651044 250.127603,114.276037 250.433594,115.128906 Z M255.208984,112.873047 C255.625653,112.873047 255.967447,112.726564 256.234375,112.433594 C256.481772,112.166665 256.625,111.834637 256.664062,111.4375 C256.670573,111.372396 256.673828,111.307292 256.673828,111.242188 C256.673828,110.929686 256.595704,110.652996 256.439453,110.412109 C256.231119,110.086587 255.925132,109.897787 255.521484,109.845703 C255.469401,109.839193 255.420573,109.835938 255.375,109.835938 C255.114582,109.835938 254.912761,109.943358 254.769531,110.158203 C254.619791,110.379558 254.544922,110.685545 254.544922,111.076172 C254.544922,111.948572 254.766274,112.547524 255.208984,112.873047 Z M262.982422,112.0625 C263.457685,111.710936 263.815754,111.535156 264.056641,111.535156 C264.297527,111.535156 264.417969,111.717446 264.417969,112.082031 C264.261718,113.182297 263.64649,114.337885 262.572266,115.548828 C261.524083,116.720709 260.459641,117.495441 259.378906,117.873047 C258.988279,117.957683 258.600913,118 258.216797,118 C256.309235,118 254.55144,116.919282 252.943359,114.757812 C252.396482,114.022132 252.123047,113.013027 252.123047,111.730469 C252.123047,111.190101 252.171875,110.597659 252.269531,109.953125 C252.445313,108.794265 253.369783,108.029299 255.042969,107.658203 C255.270834,107.60612 255.495442,107.580078 255.716797,107.580078 C256.322269,107.580078 256.888669,107.775389 257.416016,108.166016 C258.014977,108.608726 258.52604,109.269527 258.949219,110.148438 C259.059896,110.545575 259.115234,110.916665 259.115234,111.261719 C259.115234,112.283859 258.636724,113.107419 257.679688,113.732422 C257.523437,113.836589 257.315105,113.934244 257.054688,114.025391 C256.761717,114.129558 256.585938,114.194661 256.527344,114.220703 C256.390624,114.292318 256.322266,114.383463 256.322266,114.494141 L256.322266,114.513672 C256.335287,114.650391 256.449218,114.835936 256.664062,115.070312 C257.119794,115.565107 257.643877,115.8125 258.236328,115.8125 C258.4056,115.8125 258.581379,115.792969 258.763672,115.753906 C259.525394,115.584635 260.287106,115.050786 261.048828,114.152344 C262.070969,112.960932 262.715493,112.264324 262.982422,112.0625 Z M266.673828,110.851562 L266.751953,110.919922 C267.057944,111.004558 268.607408,111.557938 271.400391,112.580078 C272.422531,112.957684 273.125649,113.384112 273.509766,113.859375 C273.763673,114.171877 273.890625,114.52018 273.890625,114.904297 C273.890625,115.24284 273.79297,115.60742 273.597656,115.998047 C273.382811,116.414716 272.842452,116.798826 271.976562,117.150391 C271.169267,117.475913 270.244797,117.713541 269.203125,117.863281 C268.584632,117.954428 268.018232,118 267.503906,118 C267.139321,118 266.797528,117.977214 266.478516,117.931641 C265.625647,117.814453 265.117839,117.547528 264.955078,117.130859 C264.792317,116.733722 264.710938,116.372397 264.710938,116.046875 C264.710938,115.799478 264.75651,115.571616 264.847656,115.363281 C264.997397,115.011717 265.231769,114.835938 265.550781,114.835938 C265.720053,114.835938 265.908853,114.88151 266.117188,114.972656 C267.080734,115.382815 267.917314,115.587891 268.626953,115.587891 C269.382165,115.587891 269.990883,115.353518 270.453125,114.884766 C270.335937,114.884766 269.017591,114.494145 266.498047,113.712891 C264.616527,113.133461 263.675781,112.365239 263.675781,111.408203 C263.65625,111.271484 263.646484,111.138021 263.646484,111.007812 C263.646484,110.057287 264.199864,109.240238 265.306641,108.556641 C266.341802,107.918617 267.376948,107.599609 268.412109,107.599609 L268.587891,107.599609 C268.958986,107.599609 269.30078,107.694009 269.613281,107.882812 C269.906251,108.058595 270.108072,108.276691 270.21875,108.537109 C270.264323,108.654297 270.287109,108.764973 270.287109,108.869141 C270.287109,109.018881 270.244792,109.158854 270.160156,109.289062 C269.990885,109.54297 269.675133,109.72526 269.212891,109.835938 C268.086583,110.01823 267.520182,110.109375 267.513672,110.109375 C266.90169,110.259115 266.595703,110.43815 266.595703,110.646484 C266.595703,110.737631 266.621745,110.805989 266.673828,110.851562 Z M285.658203,108 C285.768881,108.208334 285.824219,108.4069 285.824219,108.595703 C285.824219,108.745443 285.791667,108.885416 285.726562,109.015625 C285.466145,109.549482 284.798833,109.914062 283.724609,110.109375 C283.060544,110.226563 282.048184,110.337239 280.6875,110.441406 L280.296875,110.470703 C280.290365,110.516276 280.280599,110.646483 280.267578,110.861328 C280.222005,111.408206 280.199219,111.834634 280.199219,112.140625 C280.199219,112.270834 280.202474,112.378255 280.208984,112.462891 C280.280599,113.17253 280.326172,114.064448 280.345703,115.138672 L280.345703,115.578125 C280.345703,117.069018 280.218751,117.85677 279.964844,117.941406 C279.951823,117.980469 279.782554,118 279.457031,118 C278.669267,118 278.242839,117.967448 278.177734,117.902344 C277.630857,117.368487 277.357422,116.193368 277.357422,114.376953 C277.357422,113.823565 277.383463,113.214847 277.435547,112.550781 C277.442057,112.427083 277.445312,112.306641 277.445312,112.189453 C277.445312,111.623044 277.337892,111.222657 277.123047,110.988281 C276.934244,110.779947 276.517581,110.675781 275.873047,110.675781 L275.697266,110.675781 C275.593098,110.682292 275.495443,110.685547 275.404297,110.685547 C274.968097,110.685547 274.636069,110.646485 274.408203,110.568359 C273.958982,110.412109 273.63672,110.083336 273.441406,109.582031 L273.441406,109.523438 C273.441406,109.282551 273.522786,109.08073 273.685547,108.917969 C274.050132,108.540363 274.727209,108.351562 275.716797,108.351562 C275.938152,108.351562 276.126952,108.361328 276.283203,108.380859 C276.406902,108.39388 276.520833,108.400391 276.625,108.400391 C276.872397,108.400391 277.110025,108.354818 277.337891,108.263672 C277.259765,107.404293 277.220703,106.557947 277.220703,105.724609 C277.220703,105.080075 277.243489,104.445316 277.289062,103.820312 C277.438803,101.919261 277.800127,100.652998 278.373047,100.021484 C278.652996,99.7089828 278.985024,99.5527344 279.369141,99.5527344 L279.466797,99.5527344 C279.623048,99.5527344 279.759765,99.6145827 279.876953,99.7382812 C280.137371,100.018231 280.267578,100.766921 280.267578,101.984375 C280.267578,102.700524 280.222006,103.576167 280.130859,104.611328 C280.072265,105.288415 280.039714,105.731119 280.033203,105.939453 C280.026693,106.173829 280.023438,106.479816 280.023438,106.857422 L280.023438,108.019531 C280.023438,108.123698 280.222003,108.175781 280.619141,108.175781 C280.703776,108.175781 280.798177,108.172526 280.902344,108.166016 C281.507816,108.133463 282.259761,108.029298 283.158203,107.853516 C283.203776,107.840495 283.304687,107.814453 283.460938,107.775391 C284.014326,107.632161 284.437499,107.560547 284.730469,107.560547 C285.199221,107.560547 285.508463,107.70703 285.658203,108 Z M232.613281,142.396484 C232.730469,143.132165 232.789062,143.740883 232.789062,144.222656 C232.789062,144.437501 232.776042,144.629556 232.75,144.798828 C232.691406,145.189455 232.525392,145.492186 232.251953,145.707031 C232.011067,145.902345 231.737632,146 231.431641,146 C231.112629,146 230.826173,145.902345 230.572266,145.707031 C230.311848,145.511718 230.132813,145.257814 230.035156,144.945312 C229.865885,144.385414 229.78125,143.584641 229.78125,142.542969 C229.78125,142.256509 229.78776,141.953778 229.800781,141.634766 L229.820312,141.087891 C229.826823,140.801431 229.830078,140.485679 229.830078,140.140625 C229.830078,138.708326 229.764975,136.778007 229.634766,134.349609 L229.595703,133.460938 C229.589193,133.317708 229.556641,132.9987 229.498047,132.503906 C229.354817,131.214837 229.283203,130.104822 229.283203,129.173828 C229.283203,127.507153 229.514321,126.413414 229.976562,125.892578 C230.243491,125.599608 230.575519,125.453125 230.972656,125.453125 L231.041016,125.453125 C231.600914,125.453125 232.011066,125.606118 232.271484,125.912109 C232.473308,126.159506 232.574219,126.563148 232.574219,127.123047 C232.574219,127.487632 232.531901,127.92057 232.447266,128.421875 C232.401692,128.669272 232.372396,128.841796 232.359375,128.939453 C232.248697,129.733728 232.193359,130.781895 232.193359,132.083984 C232.193359,133.086594 232.225911,134.235671 232.291016,135.53125 C232.34961,136.768235 232.385417,137.68294 232.398438,138.275391 C232.398438,138.503256 232.401693,138.789712 232.408203,139.134766 C232.408203,140.391282 232.453776,141.328773 232.544922,141.947266 L232.613281,142.396484 Z M244.136719,143.294922 C244.312501,143.958988 244.400391,144.496092 244.400391,144.90625 C244.400391,145.238283 244.341797,145.482421 244.224609,145.638672 C244.035806,145.879558 243.733075,146 243.316406,146 C243.153645,146 242.971355,145.980469 242.769531,145.941406 C242.216143,145.84375 241.776694,145.176438 241.451172,143.939453 C241.255858,143.210283 241.041017,141.95053 240.806641,140.160156 C240.643879,138.936192 240.516928,138.15495 240.425781,137.816406 C239.449214,138.532556 238.762372,139.333329 238.365234,140.21875 C238.039712,140.94792 237.870443,141.856114 237.857422,142.943359 C237.850911,143.412112 237.671877,143.945961 237.320312,144.544922 C236.916665,145.235029 236.483726,145.580078 236.021484,145.580078 C235.624347,145.580078 235.269533,145.303388 234.957031,144.75 C234.768228,144.411457 234.673828,143.851566 234.673828,143.070312 C234.673828,142.360674 234.751952,141.468755 234.908203,140.394531 C235.044923,139.457027 235.116536,138.815757 235.123047,138.470703 C235.129557,137.787106 235.308592,137.285809 235.660156,136.966797 C235.907553,136.732421 236.22005,136.615234 236.597656,136.615234 C236.747397,136.615234 236.910155,136.634765 237.085938,136.673828 C237.509117,136.764974 237.736979,136.911457 237.769531,137.113281 C237.984376,136.885416 238.264321,136.50456 238.609375,135.970703 C238.928387,135.475909 239.185546,135.114584 239.380859,134.886719 C239.5306,134.717447 239.771483,134.528647 240.103516,134.320312 C240.552737,134.046874 240.949868,133.910156 241.294922,133.910156 C241.711591,133.910156 242.014322,134.108722 242.203125,134.505859 C242.743492,135.749355 243.205727,137.69595 243.589844,140.345703 C243.733074,141.289718 243.847005,141.999347 243.931641,142.474609 C243.957682,142.63086 244.026041,142.904295 244.136719,143.294922 Z M255.220703,135.228516 C255.311849,135.384766 255.357422,135.596353 255.357422,135.863281 C255.357422,136.813807 254.778001,138.473946 253.619141,140.84375 C253.352212,141.403649 253.199219,141.742187 253.160156,141.859375 L253.082031,142.074219 C252.710936,143.187506 252.365887,144.01432 252.046875,144.554688 C251.473955,145.518234 250.82292,146 250.09375,146 C250.035156,146 249.983073,145.996745 249.9375,145.990234 C249.377601,145.938151 248.860028,145.537764 248.384766,144.789062 C248.111327,144.359373 247.789064,143.675786 247.417969,142.738281 C247.307291,142.445311 247.225912,142.240235 247.173828,142.123047 C247.108724,141.966796 247.004558,141.735679 246.861328,141.429688 C246.340492,140.296869 245.995444,139.447268 245.826172,138.880859 C245.669921,138.373044 245.591797,137.936851 245.591797,137.572266 C245.591797,137.246743 245.6569,136.983074 245.787109,136.78125 C245.995444,136.455728 246.360023,136.292969 246.880859,136.292969 C247.0306,136.292969 247.196614,136.305989 247.378906,136.332031 C247.854169,136.60547 248.537756,137.949858 249.429688,140.365234 C249.794273,141.348312 250.048176,141.986327 250.191406,142.279297 C250.542971,141.875649 250.985674,140.791675 251.519531,139.027344 C251.949221,137.608066 252.30078,136.628258 252.574219,136.087891 C253.036461,135.189449 253.560544,134.740234 254.146484,134.740234 C254.270183,134.740234 254.39388,134.75651 254.517578,134.789062 C254.83659,134.815104 255.070963,134.961587 255.220703,135.228516 Z M257.710938,133.333984 C257.274737,133.307943 256.945965,133.187501 256.724609,132.972656 C256.542317,132.803385 256.451172,132.601564 256.451172,132.367188 L256.451172,132.337891 C256.464193,131.979816 256.643227,131.667319 256.988281,131.400391 C257.300783,131.166014 257.658852,131.048828 258.0625,131.048828 C258.140625,131.048828 258.21875,131.052083 258.296875,131.058594 C258.713544,131.058594 259.042317,131.149739 259.283203,131.332031 C259.511069,131.501303 259.625,131.72591 259.625,132.005859 C259.625,132.344403 259.472007,132.647134 259.166016,132.914062 C258.840493,133.207033 258.446617,133.353516 257.984375,133.353516 C257.899739,133.353516 257.808594,133.347005 257.710938,133.333984 Z M258.365234,135.53125 C258.814455,135.53125 259.039062,135.723305 259.039062,136.107422 C259.332033,137.735034 259.478516,139.544912 259.478516,141.537109 C259.478516,141.771486 259.47526,142.012369 259.46875,142.259766 L259.410156,145.199219 C259.410156,145.348959 259.211591,145.521483 258.814453,145.716797 C258.430337,145.9056 258.121095,146 257.886719,146 C257.76302,146 257.665365,145.970703 257.59375,145.912109 C257.066404,145.475909 256.757162,144.789067 256.666016,143.851562 C256.646484,143.66927 256.636719,143.454428 256.636719,143.207031 C256.636719,142.673174 256.675781,141.976567 256.753906,141.117188 C256.786458,140.765623 256.809245,140.505209 256.822266,140.335938 C256.867839,139.697913 256.890625,139.037113 256.890625,138.353516 C256.890625,138.12565 256.88737,137.894532 256.880859,137.660156 C256.874349,137.516926 256.858073,137.347657 256.832031,137.152344 C256.825521,137.09375 256.822266,137.035157 256.822266,136.976562 C256.822266,136.664061 256.936197,136.345054 257.164062,136.019531 C257.391928,135.694009 257.792315,135.53125 258.365234,135.53125 Z M272.027344,136 C272.138021,136.208334 272.193359,136.4069 272.193359,136.595703 C272.193359,136.745443 272.160808,136.885416 272.095703,137.015625 C271.835285,137.549482 271.167974,137.914062 270.09375,138.109375 C269.429684,138.226563 268.417325,138.337239 267.056641,138.441406 L266.666016,138.470703 C266.659505,138.516276 266.64974,138.646483 266.636719,138.861328 C266.591146,139.408206 266.568359,139.834634 266.568359,140.140625 C266.568359,140.270834 266.571615,140.378255 266.578125,140.462891 C266.64974,141.17253 266.695312,142.064448 266.714844,143.138672 L266.714844,143.578125 C266.714844,145.069018 266.587892,145.85677 266.333984,145.941406 C266.320963,145.980469 266.151694,146 265.826172,146 C265.038408,146 264.611979,145.967448 264.546875,145.902344 C263.999997,145.368487 263.726562,144.193368 263.726562,142.376953 C263.726562,141.823565 263.752604,141.214847 263.804688,140.550781 C263.811198,140.427083 263.814453,140.306641 263.814453,140.189453 C263.814453,139.623044 263.707032,139.222657 263.492188,138.988281 C263.303384,138.779947 262.886722,138.675781 262.242188,138.675781 L262.066406,138.675781 C261.962239,138.682292 261.864584,138.685547 261.773438,138.685547 C261.337237,138.685547 261.005209,138.646485 260.777344,138.568359 C260.328123,138.412109 260.00586,138.083336 259.810547,137.582031 L259.810547,137.523438 C259.810547,137.282551 259.891926,137.08073 260.054688,136.917969 C260.419273,136.540363 261.096349,136.351562 262.085938,136.351562 C262.307293,136.351562 262.496093,136.361328 262.652344,136.380859 C262.776042,136.39388 262.889973,136.400391 262.994141,136.400391 C263.241538,136.400391 263.479166,136.354818 263.707031,136.263672 C263.628906,135.404293 263.589844,134.557947 263.589844,133.724609 C263.589844,133.080075 263.61263,132.445316 263.658203,131.820312 C263.807943,129.919261 264.169268,128.652998 264.742188,128.021484 C265.022137,127.708983 265.354165,127.552734 265.738281,127.552734 L265.835938,127.552734 C265.992188,127.552734 266.128906,127.614583 266.246094,127.738281 C266.506512,128.018231 266.636719,128.766921 266.636719,129.984375 C266.636719,130.700524 266.591146,131.576167 266.5,132.611328 C266.441406,133.288415 266.408854,133.731119 266.402344,133.939453 C266.395833,134.173829 266.392578,134.479816 266.392578,134.857422 L266.392578,136.019531 C266.392578,136.123698 266.591144,136.175781 266.988281,136.175781 C267.072917,136.175781 267.167317,136.172526 267.271484,136.166016 C267.876956,136.133463 268.628902,136.029298 269.527344,135.853516 C269.572917,135.840495 269.673827,135.814453 269.830078,135.775391 C270.383466,135.632161 270.806639,135.560547 271.099609,135.560547 C271.568362,135.560547 271.877603,135.70703 272.027344,136 Z M277.369141,138.480469 C277.330078,138.454427 277.284505,138.441406 277.232422,138.441406 C277.017577,138.441406 276.721356,138.646482 276.34375,139.056641 C275.861977,139.590497 275.380211,140.303381 274.898438,141.195312 C274.455727,142.02865 274.198568,142.656899 274.126953,143.080078 C274.797529,142.891275 275.500647,142.259771 276.236328,141.185547 C276.958988,140.137365 277.336588,139.235681 277.369141,138.480469 Z M282.232422,143.128906 C282.701174,143.779951 282.935547,144.317055 282.935547,144.740234 C282.876953,145.059246 282.675132,145.342447 282.330078,145.589844 C281.991535,145.837241 281.633465,145.960938 281.255859,145.960938 C280.943358,145.960938 280.682944,145.863282 280.474609,145.667969 C280.04492,145.277342 279.651043,144.515631 279.292969,143.382812 C279.01953,142.497391 278.752605,141.888674 278.492188,141.556641 L278.228516,141.966797 C277.525387,143.080084 276.949221,143.884112 276.5,144.378906 C275.725257,145.225265 274.914718,145.739582 274.068359,145.921875 C273.820962,145.973959 273.583334,146 273.355469,146 C272.691403,146 272.154299,145.788414 271.744141,145.365234 C271.327472,144.942055 271.09961,144.365889 271.060547,143.636719 C271.060547,142.165357 271.994782,140.358735 273.863281,138.216797 C276.259127,136.270173 278.069004,135.296875 279.292969,135.296875 L279.390625,135.296875 C279.885419,135.296875 280.272785,135.76562 280.552734,136.703125 C280.715496,137.230471 280.868489,138.063796 281.011719,139.203125 C281.057292,139.600262 281.089844,139.844401 281.109375,139.935547 C281.128906,140.007162 281.164713,140.176431 281.216797,140.443359 C281.392579,141.335291 281.568358,141.976561 281.744141,142.367188 C281.822266,142.536459 281.985025,142.790363 282.232422,143.128906 Z M294.654297,136 C294.764975,136.208334 294.820312,136.4069 294.820312,136.595703 C294.820312,136.745443 294.787761,136.885416 294.722656,137.015625 C294.462238,137.549482 293.794927,137.914062 292.720703,138.109375 C292.056637,138.226563 291.044278,138.337239 289.683594,138.441406 L289.292969,138.470703 C289.286458,138.516276 289.276693,138.646483 289.263672,138.861328 C289.218099,139.408206 289.195312,139.834634 289.195312,140.140625 C289.195312,140.270834 289.198568,140.378255 289.205078,140.462891 C289.276693,141.17253 289.322266,142.064448 289.341797,143.138672 L289.341797,143.578125 C289.341797,145.069018 289.214845,145.85677 288.960938,145.941406 C288.947917,145.980469 288.778647,146 288.453125,146 C287.665361,146 287.238933,145.967448 287.173828,145.902344 C286.62695,145.368487 286.353516,144.193368 286.353516,142.376953 C286.353516,141.823565 286.379557,141.214847 286.431641,140.550781 C286.438151,140.427083 286.441406,140.306641 286.441406,140.189453 C286.441406,139.623044 286.333985,139.222657 286.119141,138.988281 C285.930338,138.779947 285.513675,138.675781 284.869141,138.675781 L284.693359,138.675781 C284.589192,138.682292 284.491537,138.685547 284.400391,138.685547 C283.964191,138.685547 283.632163,138.646485 283.404297,138.568359 C282.955076,138.412109 282.632813,138.083336 282.4375,137.582031 L282.4375,137.523438 C282.4375,137.282551 282.518879,137.08073 282.681641,136.917969 C283.046226,136.540363 283.723302,136.351562 284.712891,136.351562 C284.934246,136.351562 285.123046,136.361328 285.279297,136.380859 C285.402995,136.39388 285.516927,136.400391 285.621094,136.400391 C285.868491,136.400391 286.106119,136.354818 286.333984,136.263672 C286.255859,135.404293 286.216797,134.557947 286.216797,133.724609 C286.216797,133.080075 286.239583,132.445316 286.285156,131.820312 C286.434897,129.919261 286.796221,128.652998 287.369141,128.021484 C287.64909,127.708983 287.981118,127.552734 288.365234,127.552734 L288.462891,127.552734 C288.619141,127.552734 288.755859,127.614583 288.873047,127.738281 C289.133465,128.018231 289.263672,128.766921 289.263672,129.984375 C289.263672,130.700524 289.218099,131.576167 289.126953,132.611328 C289.068359,133.288415 289.035807,133.731119 289.029297,133.939453 C289.022786,134.173829 289.019531,134.479816 289.019531,134.857422 L289.019531,136.019531 C289.019531,136.123698 289.218097,136.175781 289.615234,136.175781 C289.69987,136.175781 289.79427,136.172526 289.898438,136.166016 C290.503909,136.133463 291.255855,136.029298 292.154297,135.853516 C292.19987,135.840495 292.30078,135.814453 292.457031,135.775391 C293.010419,135.632161 293.433592,135.560547 293.726562,135.560547 C294.195315,135.560547 294.504557,135.70703 294.654297,136 Z M295.396484,133.333984 C294.960284,133.307943 294.631512,133.187501 294.410156,132.972656 C294.227864,132.803385 294.136719,132.601564 294.136719,132.367188 L294.136719,132.337891 C294.14974,131.979816 294.328774,131.667319 294.673828,131.400391 C294.98633,131.166014 295.344399,131.048828 295.748047,131.048828 C295.826172,131.048828 295.904296,131.052083 295.982422,131.058594 C296.399091,131.058594 296.727863,131.149739 296.96875,131.332031 C297.196616,131.501303 297.310547,131.72591 297.310547,132.005859 C297.310547,132.344403 297.157554,132.647134 296.851562,132.914062 C296.52604,133.207033 296.132164,133.353516 295.669922,133.353516 C295.585286,133.353516 295.494141,133.347005 295.396484,133.333984 Z M296.050781,135.53125 C296.500002,135.53125 296.724609,135.723305 296.724609,136.107422 C297.01758,137.735034 297.164062,139.544912 297.164062,141.537109 C297.164062,141.771486 297.160807,142.012369 297.154297,142.259766 L297.095703,145.199219 C297.095703,145.348959 296.897137,145.521483 296.5,145.716797 C296.115883,145.9056 295.806642,146 295.572266,146 C295.448567,146 295.350912,145.970703 295.279297,145.912109 C294.75195,145.475909 294.442709,144.789067 294.351562,143.851562 C294.332031,143.66927 294.322266,143.454428 294.322266,143.207031 C294.322266,142.673174 294.361328,141.976567 294.439453,141.117188 C294.472005,140.765623 294.494792,140.505209 294.507812,140.335938 C294.553386,139.697913 294.576172,139.037113 294.576172,138.353516 C294.576172,138.12565 294.572917,137.894532 294.566406,137.660156 C294.559896,137.516926 294.54362,137.347657 294.517578,137.152344 C294.511068,137.09375 294.507812,137.035157 294.507812,136.976562 C294.507812,136.664061 294.621744,136.345054 294.849609,136.019531 C295.077475,135.694009 295.477862,135.53125 296.050781,135.53125 Z M302.203125,139.535156 C301.98828,139.945315 301.880859,140.41406 301.880859,140.941406 L301.880859,141.078125 C301.89388,141.670576 302.024087,142.171873 302.271484,142.582031 C302.49935,142.966148 302.772785,143.158203 303.091797,143.158203 C303.449872,143.158203 303.830727,142.91732 304.234375,142.435547 C304.651044,141.940753 304.885416,141.305993 304.9375,140.53125 C304.94401,140.427083 304.947266,140.326172 304.947266,140.228516 C304.947266,139.577471 304.797528,139.014325 304.498047,138.539062 C304.322265,138.265624 304.091147,138.128906 303.804688,138.128906 C303.466144,138.128906 303.121096,138.291665 302.769531,138.617188 C302.430988,138.923179 302.242188,139.229165 302.203125,139.535156 Z M304.068359,135.599609 C305.103521,135.599609 305.930335,135.99023 306.548828,136.771484 C307.167321,137.552738 307.476562,138.59765 307.476562,139.90625 C307.476562,141.449226 307.079431,142.8164 306.285156,144.007812 C305.386714,145.335944 304.240892,146 302.847656,146 C302.574217,146 302.294272,145.970703 302.007812,145.912109 C300.907547,145.697265 300.110029,145.003912 299.615234,143.832031 C299.283201,143.037756 299.117188,142.123052 299.117188,141.087891 C299.117188,140.827473 299.126953,140.560548 299.146484,140.287109 C299.250652,138.861321 299.735673,137.725265 300.601562,136.878906 C301.460942,136.026037 302.557936,135.599609 303.892578,135.599609 L304.068359,135.599609 Z M318.609375,143.294922 C318.785157,143.958988 318.873047,144.496092 318.873047,144.90625 C318.873047,145.238283 318.814454,145.482421 318.697266,145.638672 C318.508463,145.879558 318.205731,146 317.789062,146 C317.626301,146 317.444011,145.980469 317.242188,145.941406 C316.688799,145.84375 316.249351,145.176438 315.923828,143.939453 C315.728515,143.210283 315.513673,141.95053 315.279297,140.160156 C315.116536,138.936192 314.989584,138.15495 314.898438,137.816406 C313.92187,138.532556 313.235028,139.333329 312.837891,140.21875 C312.512368,140.94792 312.343099,141.856114 312.330078,142.943359 C312.323568,143.412112 312.144533,143.945961 311.792969,144.544922 C311.389321,145.235029 310.956383,145.580078 310.494141,145.580078 C310.097003,145.580078 309.742189,145.303388 309.429688,144.75 C309.240884,144.411457 309.146484,143.851566 309.146484,143.070312 C309.146484,142.360674 309.224609,141.468755 309.380859,140.394531 C309.517579,139.457027 309.589193,138.815757 309.595703,138.470703 C309.602214,137.787106 309.781248,137.285809 310.132812,136.966797 C310.38021,136.732421 310.692706,136.615234 311.070312,136.615234 C311.220053,136.615234 311.382812,136.634765 311.558594,136.673828 C311.981773,136.764974 312.209635,136.911457 312.242188,137.113281 C312.457032,136.885416 312.736977,136.50456 313.082031,135.970703 C313.401043,135.475909 313.658202,135.114584 313.853516,134.886719 C314.003256,134.717447 314.244139,134.528647 314.576172,134.320312 C315.025393,134.046874 315.422524,133.910156 315.767578,133.910156 C316.184247,133.910156 316.486978,134.108722 316.675781,134.505859 C317.216149,135.749355 317.678383,137.69595 318.0625,140.345703 C318.20573,141.289718 318.319661,141.999347 318.404297,142.474609 C318.430339,142.63086 318.498697,142.904295 318.609375,143.294922 Z" id="RequestInvitation" fill="#2E2E30" fill-rule="nonzero" transform="translate(259.594727, 121.868164) rotate(-9.000000) translate(-259.594727, -121.868164) "></path>
                </g>
            </g>
        </g>
    </g>
</svg>