<?xml version="1.0" encoding="UTF-8"?>
<svg width="359px" height="129px" viewBox="0 0 359 129" version="1.1" xmlns="http://www.w3.org/2000/svg" xmlns:xlink="http://www.w3.org/1999/xlink">
    <!-- Generator: Sketch 53.2 (72643) - https://sketchapp.com -->
    <title>Freshbooks</title>
    <desc>Created with Sketch.</desc>
    <defs>
        <polygon id="path-1" points="0.453446859 0.161132516 232.453017 0.161132516 232.453017 104.912535 0.453446859 104.912535"></polygon>
        <polygon id="path-3" points="0 0.0597120327 18.5352649 0.0597120327 18.5352649 17.95007 0 17.95007"></polygon>
    </defs>
    <g id="Page-2" stroke="none" stroke-width="1" fill="none" fill-rule="evenodd">
        <g id="desktop" transform="translate(-940.000000, -1807.000000)">
            <g id="Group-5" transform="translate(651.000000, 1802.000000)">
                <g id="Freshbooks" transform="translate(288.000000, 0.235393)">
                    <path d="M256.214723,13.6796875 C256.631392,13.8294278 256.839723,14.0410143 256.839723,14.3144531 L256.839723,14.3632812 L256.829958,14.3828125 C256.784385,14.7539081 256.370977,15.1542947 255.589723,15.5839844 C254.899616,15.9615904 254.375533,16.1601562 254.017458,16.1796875 C253.815634,16.1927084 253.551965,16.1992188 253.226442,16.1992188 C252.985556,16.1992188 252.712121,16.1959636 252.40613,16.1894531 C252.223837,16.1829427 252.048058,16.1796875 251.878786,16.1796875 C250.680863,16.1796875 249.78569,16.2805979 249.193239,16.4824219 C248.470579,16.7233085 247.995324,17.4980403 247.767458,18.8066406 C247.728395,19.0475272 247.695843,19.2949206 247.669802,19.5488281 C247.637249,19.8938819 247.620973,20.2486961 247.620973,20.6132812 C247.620973,21.0950545 247.65027,21.5963516 247.708864,22.1171875 C247.728395,22.2604174 247.796754,22.5631487 247.913942,23.0253906 C248.161339,23.9563849 248.285036,24.7083305 248.285036,25.28125 C248.285036,25.3984381 248.278526,25.5058589 248.265505,25.6035156 C248.239463,25.9355485 248.154828,26.1861971 248.011598,26.3554688 C247.783733,26.6289076 247.44845,26.765625 247.005739,26.765625 L246.917848,26.765625 L246.839723,26.7558594 C245.908729,26.6647131 245.322798,25.922533 245.081911,24.5292969 C245.010296,24.0930968 244.974489,23.5527376 244.974489,22.9082031 C244.974489,22.4264299 244.99402,21.8828155 245.033083,21.2773438 L245.042848,21.0625 C245.06238,20.802082 245.094932,20.3723988 245.140505,19.7734375 C245.21212,18.9010373 245.254437,18.2369814 245.267458,17.78125 L245.267458,17.7714844 C245.267458,17.6412754 245.091678,17.4980477 244.740114,17.3417969 C244.219278,17.1269521 243.958864,16.8535173 243.958864,16.5214844 L243.958864,16.4628906 L243.96863,16.4140625 C244.014203,16.1341132 244.242065,15.7988301 244.652223,15.4082031 C244.925662,15.1477852 245.094931,14.9459643 245.160036,14.8027344 C245.303266,14.5097642 245.404176,14.0703154 245.46277,13.484375 C245.482302,13.2825511 245.495322,13.0677095 245.501833,12.8398438 C245.508343,12.4882795 245.524619,12.1920585 245.550661,11.9511719 C245.563682,11.7884106 245.583213,11.6516933 245.609255,11.5410156 C245.498577,11.5345052 245.381391,11.5279948 245.257692,11.5214844 C244.548053,11.4498694 244.092329,11.2220071 243.890505,10.8378906 C243.812379,10.7011712 243.773317,10.5514331 243.773317,10.3886719 C243.773317,10.3561196 243.776572,10.3203127 243.783083,10.28125 C243.809125,10.0533843 243.897014,9.80273574 244.046755,9.52929688 C244.326704,9.02148184 244.98425,8.59830898 246.019411,8.25976562 C246.59233,8.0709626 246.995972,7.89518311 247.230348,7.73242188 C247.803268,7.33528447 248.281779,7.13671875 248.665895,7.13671875 C248.698448,7.13671875 248.730999,7.13997393 248.763552,7.14648438 C249.134647,7.17903662 249.583861,7.42642998 250.111208,7.88867188 C250.306521,8.05143311 250.566935,8.14908838 250.892458,8.18164062 C250.951052,8.18815107 251.016155,8.19140625 251.08777,8.19140625 C251.569544,8.19140625 252.318234,8.05794404 253.333864,7.79101562 C254.271369,7.55663945 254.951701,7.43945312 255.37488,7.43945312 C255.433474,7.43945312 255.488812,7.4427083 255.540895,7.44921875 C256.224492,7.51432324 256.621624,7.77148213 256.732302,8.22070312 C256.758343,8.29231807 256.771364,8.37044229 256.771364,8.45507812 C256.771364,8.48763037 256.768109,8.52018213 256.761598,8.55273438 C256.748578,8.72200605 256.689984,8.9042959 256.585817,9.09960938 C256.416546,9.41211094 256.162642,9.6855457 255.824098,9.91992188 C255.010292,10.4733101 253.766815,10.7532552 252.09363,10.7597656 C251.969931,10.7532552 251.742069,10.7369793 251.410036,10.7109375 C251.058472,10.6783853 250.739464,10.6621094 250.453005,10.6621094 C249.502479,10.6621094 248.945844,10.8313785 248.783083,11.1699219 C248.587769,11.5540384 248.451052,12.1692666 248.372927,13.015625 C248.353395,13.2109385 248.337119,13.4192697 248.324098,13.640625 C248.317588,13.7773444 248.311078,13.8815101 248.304567,13.953125 C248.551964,13.9140623 248.815634,13.8684898 249.095583,13.8164062 C251.029186,13.464842 252.568884,13.2890625 253.714723,13.2890625 C254.020715,13.2890625 254.297405,13.3020832 254.544802,13.328125 C255.150273,13.386719 255.706908,13.5039054 256.214723,13.6796875 Z M265.277223,16.2871094 C265.641809,16.2871094 266.012899,16.4270819 266.390505,16.7070312 C266.729048,16.9609388 266.898317,17.2311184 266.898317,17.5175781 C266.898317,17.5891931 266.885296,17.6640621 266.859255,17.7421875 C265.518102,18.4257847 264.398322,19.3600201 263.49988,20.5449219 C262.510291,21.8405013 261.826705,23.354158 261.449098,25.0859375 C261.17566,26.3554751 260.781783,26.9902344 260.267458,26.9902344 C260.046103,26.9902344 259.801964,26.8697929 259.535036,26.6289062 C258.877481,26.0299449 258.363163,24.8743575 257.992067,23.1621094 C257.692587,21.794915 257.542848,20.4635481 257.542848,19.1679688 C257.666547,18.6406224 257.865113,18.2792979 258.138552,18.0839844 C258.268761,17.9993485 258.402223,17.9570312 258.538942,17.9570312 C258.688683,17.9570312 258.838421,18.0026037 258.988161,18.09375 C259.70431,18.5364605 260.114463,19.5683513 260.21863,21.1894531 C260.485558,20.2063753 261.100786,19.1809949 262.064333,18.1132812 C263.164599,16.8958272 264.229041,16.2871094 265.257692,16.2871094 L265.277223,16.2871094 Z M270.257692,21.8730469 C270.674361,21.8730469 271.016154,21.726564 271.283083,21.4335938 C271.53048,21.1666653 271.673708,20.8346374 271.71277,20.4375 C271.719281,20.3723955 271.722536,20.307292 271.722536,20.2421875 C271.722536,19.9296859 271.644412,19.652996 271.488161,19.4121094 C271.279827,19.0865869 270.97384,18.8977867 270.570192,18.8457031 C270.518109,18.8391927 270.469281,18.8359375 270.423708,18.8359375 C270.16329,18.8359375 269.961469,18.9433583 269.818239,19.1582031 C269.668499,19.3795584 269.59363,19.6855449 269.59363,20.0761719 C269.59363,20.9485721 269.814982,21.5475244 270.257692,21.8730469 Z M278.03113,21.0625 C278.506392,20.7109357 278.864462,20.5351562 279.105348,20.5351562 C279.346235,20.5351562 279.466677,20.7174461 279.466677,21.0820312 C279.310426,22.1822972 278.695198,23.3378846 277.620973,24.5488281 C276.572791,25.720709 275.508349,26.4954408 274.427614,26.8730469 C274.036987,26.9576827 273.649621,27 273.265505,27 C271.357943,27 269.600148,25.9192816 267.992067,23.7578125 C267.445189,23.0221317 267.171755,22.0130272 267.171755,20.7304688 C267.171755,20.1901015 267.220582,19.5976595 267.318239,18.953125 C267.494021,17.794265 268.418491,17.0292987 270.091677,16.6582031 C270.319542,16.6061195 270.544149,16.5800781 270.765505,16.5800781 C271.370976,16.5800781 271.937377,16.7753887 272.464723,17.1660156 C273.063685,17.6087262 273.574747,18.2695269 273.997927,19.1484375 C274.108604,19.5455749 274.163942,19.9166649 274.163942,20.2617188 C274.163942,21.2838593 273.685431,22.1074188 272.728395,22.7324219 C272.572145,22.8365891 272.363813,22.9342443 272.103395,23.0253906 C271.810425,23.1295578 271.634646,23.1946613 271.576052,23.2207031 C271.439332,23.2923181 271.370973,23.383463 271.370973,23.4941406 L271.370973,23.5136719 C271.383994,23.6503913 271.497926,23.8359363 271.71277,24.0703125 C272.168502,24.5651066 272.692585,24.8125 273.285036,24.8125 C273.454308,24.8125 273.630087,24.7929689 273.81238,24.7539062 C274.574102,24.5846346 275.335813,24.0507857 276.097536,23.1523438 C277.119676,21.9609315 277.764201,21.2643239 278.03113,21.0625 Z M281.722536,19.8515625 L281.800661,19.9199219 C282.106652,20.0045577 283.656116,20.5579376 286.449098,21.5800781 C287.471239,21.9576842 288.174357,22.3841122 288.558473,22.859375 C288.812381,23.1718766 288.939333,23.5201804 288.939333,23.9042969 C288.939333,24.2428402 288.841678,24.6074199 288.646364,24.9980469 C288.431519,25.4147156 287.89116,25.7988264 287.02527,26.1503906 C286.217975,26.4759131 285.293505,26.7135409 284.251833,26.8632812 C283.63334,26.9544275 283.06694,27 282.552614,27 C282.188029,27 281.846235,26.9772138 281.527223,26.9316406 C280.674355,26.8144525 280.166547,26.5475281 280.003786,26.1308594 C279.841025,25.733722 279.759645,25.3723975 279.759645,25.046875 C279.759645,24.7994779 279.805218,24.5716156 279.896364,24.3632812 C280.046104,24.011717 280.280477,23.8359375 280.599489,23.8359375 C280.768761,23.8359375 280.957561,23.88151 281.165895,23.9726562 C282.129442,24.3828146 282.966022,24.5878906 283.675661,24.5878906 C284.430873,24.5878906 285.039591,24.353518 285.501833,23.8847656 C285.384645,23.8847656 284.066299,23.4941445 281.546755,22.7128906 C279.665235,22.1334606 278.724489,21.3652392 278.724489,20.4082031 C278.704958,20.2714837 278.695192,20.1380215 278.695192,20.0078125 C278.695192,19.0572869 279.248572,18.2402378 280.355348,17.5566406 C281.39051,16.9186166 282.425656,16.5996094 283.460817,16.5996094 L283.636598,16.5996094 C284.007694,16.5996094 284.349488,16.6940095 284.661989,16.8828125 C284.954959,17.0585946 285.15678,17.2766914 285.267458,17.5371094 C285.313031,17.6542975 285.335817,17.7649734 285.335817,17.8691406 C285.335817,18.018881 285.2935,18.1588535 285.208864,18.2890625 C285.039592,18.54297 284.72384,18.7252599 284.261598,18.8359375 C283.135291,19.0182301 282.56889,19.109375 282.56238,19.109375 C281.950397,19.2591153 281.644411,19.43815 281.644411,19.6464844 C281.644411,19.7376307 281.670452,19.8059894 281.722536,19.8515625 Z M300.394411,25.7402344 L300.394411,25.8183594 C300.348838,26.5410192 300.007044,26.9023438 299.36902,26.9023438 C298.64636,26.9023438 297.933477,26.5898469 297.230348,25.9648438 C296.585814,25.2161421 296.084517,23.861989 295.726442,21.9023438 C295.667848,21.5898422 295.635296,21.4108075 295.628786,21.3652344 C295.472535,21.6582046 295.218631,22.2604121 294.867067,23.171875 C294.391804,24.4088604 294.017459,25.2714819 293.74402,25.7597656 C293.275268,26.5865927 292.813033,27 292.357302,27 C291.882039,27 291.478397,26.8177102 291.146364,26.453125 C290.65157,25.9062473 290.404177,25.2226604 290.404177,24.4023438 C290.404177,24.2721348 290.410687,24.1386726 290.423708,24.0019531 C290.501833,23.1425738 290.540895,21.8437587 290.540895,20.1054688 C290.547406,19.4934865 290.550661,19.0084653 290.550661,18.6503906 C290.576703,16.7623604 290.677613,15.0045654 290.853395,13.3769531 C291.185428,10.3691256 291.699746,8.86523438 292.396364,8.86523438 C292.520063,8.86523438 292.640504,8.90755166 292.757692,8.9921875 C293.226445,9.20703232 293.467328,9.93944688 293.480348,11.1894531 L293.480348,11.2578125 C293.480348,12.1171918 293.363162,13.4225173 293.128786,15.1738281 C293.04415,15.8183626 292.998578,16.2252596 292.992067,16.3945312 C292.913942,17.7031315 292.87488,18.8977811 292.87488,19.9785156 C292.87488,20.4602889 292.88139,20.9160135 292.894411,21.3457031 C293.265507,20.9680971 293.623576,20.2649791 293.96863,19.2363281 C294.209516,18.4941369 294.430868,17.9602881 294.632692,17.6347656 C294.964725,17.0813774 295.42045,16.684246 295.99988,16.4433594 C296.130089,16.3847653 296.257041,16.3554688 296.380739,16.3554688 C296.947148,16.3554688 297.406128,16.9023383 297.757692,17.9960938 C298.0116,18.7903686 298.236207,19.9850181 298.43152,21.5800781 L298.490114,22.0488281 C298.932825,23.7871181 299.548053,25.0012986 300.335817,25.6914062 L300.394411,25.7402344 Z M306.068239,23.0546875 C309.616434,21.7265559 311.943885,20.3431062 313.050661,18.9042969 C312.953004,18.891276 312.370328,18.8131518 311.302614,18.6699219 C310.508339,18.5657547 309.844283,18.5006512 309.310427,18.4746094 C309.102092,18.4615885 308.900271,18.4550781 308.704958,18.4550781 C307.396358,18.4550781 306.403529,18.6861956 305.726442,19.1484375 L306.068239,23.0546875 Z M305.199098,11.1699219 C305.264203,12.0488325 305.322796,13.2109303 305.37488,14.65625 C307.829319,13.5364527 309.382038,12.3645895 310.033083,11.140625 C309.238808,10.8997384 308.363166,10.7792969 307.40613,10.7792969 C307.236858,10.7792969 307.061079,10.7825521 306.878786,10.7890625 C306.162637,10.8085938 305.602746,10.9355457 305.199098,11.1699219 Z M304.21277,7.13671875 C304.538293,7.13671875 304.834514,7.26367061 305.101442,7.51757812 C305.576705,7.98633047 305.811078,8.21744795 305.804567,8.2109375 C306.175663,8.47135547 306.794146,8.62109355 307.660036,8.66015625 C307.881391,8.67317715 308.23295,8.6796875 308.714723,8.6796875 C309.144413,8.6796875 309.4504,8.68619785 309.632692,8.69921875 C310.76551,8.79036504 311.530477,8.89127549 311.927614,9.00195312 C312.865119,9.26888154 313.333864,9.7311165 313.333864,10.3886719 L313.333864,10.4960938 C313.262249,11.5312552 312.500538,12.6510356 311.048708,13.8554688 C311.07475,13.829427 310.488818,14.2298136 309.290895,15.0566406 C308.984904,15.264975 308.389207,15.616534 307.503786,16.1113281 C308.018111,16.0722654 308.561726,16.0527344 309.134645,16.0527344 C309.564335,16.0527344 310.010294,16.0624999 310.472536,16.0820312 C311.553271,16.1341148 312.308471,16.1764321 312.738161,16.2089844 L312.913942,16.2089844 C314.001187,16.2089844 314.828002,16.3229155 315.394411,16.5507812 C316.156134,16.8567724 316.536989,17.3938764 316.536989,18.1621094 C316.536989,19.9850352 315.25445,21.6744714 312.689333,23.2304688 C310.664583,24.4609437 308.555229,25.2779928 306.361208,25.6816406 C306.361208,26.078778 306.208215,26.4010404 305.902223,26.6484375 C305.622274,26.8697928 305.27397,26.9869791 304.857302,27 L304.759645,27 C304.408081,27 304.173708,26.9348965 304.05652,26.8046875 C303.848186,26.5833322 303.695193,26.44987 303.597536,26.4042969 C303.454306,26.3457028 303.320844,26.3164062 303.197145,26.3164062 C303.11902,26.3164062 303.040896,26.329427 302.96277,26.3554688 C302.715373,26.4401046 302.513552,26.4824219 302.357302,26.4824219 L302.328005,26.4824219 C302.041545,26.4759114 301.76811,26.2740905 301.507692,25.8769531 C301.305868,25.5774725 301.204958,25.310548 301.204958,25.0761719 C301.204958,25.0110674 301.214723,24.9459639 301.234255,24.8808594 C301.325401,24.5748683 301.497925,24.366537 301.751833,24.2558594 C301.84949,24.2102862 302.083862,24.1614586 302.454958,24.109375 C302.734907,24.0703123 302.930218,23.9889329 303.040895,23.8652344 C303.164594,23.7220045 303.226442,23.4973974 303.226442,23.1914062 C303.226442,23.1132809 303.223187,23.0319015 303.216677,22.9472656 C303.203656,22.8040357 303.197145,22.6152355 303.197145,22.3808594 C303.197145,22.2050772 303.200401,22.0065115 303.206911,21.7851562 C303.213421,21.5117174 303.216677,21.2740896 303.216677,21.0722656 C303.216677,20.8769521 303.213421,20.7174485 303.206911,20.59375 C303.141806,19.6757767 302.813034,19.0312519 302.220583,18.6601562 C301.680216,18.3216129 301.410036,17.9928401 301.410036,17.6738281 C301.410036,17.6022132 301.423057,17.5338545 301.449098,17.46875 C301.566287,17.1302066 301.940632,16.7493511 302.572145,16.3261719 C302.552614,15.5514284 302.533083,14.8320346 302.513552,14.1679688 C302.461468,12.3320221 302.415896,11.3261728 302.376833,11.1503906 C302.376833,11.1438802 302.217329,11.1373698 301.898317,11.1308594 C301.559774,11.1178385 301.367718,11.1080729 301.322145,11.1015625 C300.66459,10.9713535 300.192589,10.6263049 299.90613,10.0664062 C299.828004,9.91666592 299.788942,9.77994854 299.788942,9.65625 C299.788942,9.55859326 299.811728,9.46744834 299.857302,9.3828125 C299.981,9.15494678 300.25118,8.99218799 300.667848,8.89453125 C300.765505,8.8749999 300.905478,8.8619792 301.08777,8.85546875 C301.341678,8.8489583 301.501181,8.84244795 301.566286,8.8359375 C301.943892,8.80338525 302.194541,8.68294375 302.318239,8.47460938 C302.62423,7.97330479 302.868368,7.64453203 303.050661,7.48828125 C303.317589,7.24739463 303.646362,7.12695312 304.036989,7.12695312 C304.095583,7.12695312 304.154176,7.1302083 304.21277,7.13671875 Z M320.794802,20.5351562 C320.579957,20.9453146 320.472536,21.4140599 320.472536,21.9414062 L320.472536,22.078125 C320.485557,22.6705759 320.615764,23.1718729 320.863161,23.5820312 C321.091027,23.9661478 321.364461,24.1582031 321.683473,24.1582031 C322.041548,24.1582031 322.422404,23.9173201 322.826052,23.4355469 C323.24272,22.9407527 323.477093,22.3059935 323.529177,21.53125 C323.535687,21.4270828 323.538942,21.3261724 323.538942,21.2285156 C323.538942,20.5774707 323.389204,20.0143253 323.089723,19.5390625 C322.913941,19.2656236 322.682824,19.1289062 322.396364,19.1289062 C322.057821,19.1289062 321.712772,19.291665 321.361208,19.6171875 C321.022664,19.9231786 320.833864,20.2291651 320.794802,20.5351562 Z M322.660036,16.5996094 C323.695197,16.5996094 324.522012,16.9902305 325.140505,17.7714844 C325.758997,18.5527383 326.068239,19.5976497 326.068239,20.90625 C326.068239,22.4492265 325.671108,23.8164003 324.876833,25.0078125 C323.978391,26.3359441 322.832569,27 321.439333,27 C321.165894,27 320.885949,26.9707034 320.599489,26.9121094 C319.499223,26.6972646 318.701705,26.0039121 318.206911,24.8320312 C317.874878,24.0377564 317.708864,23.1230521 317.708864,22.0878906 C317.708864,21.8274727 317.71863,21.5605482 317.738161,21.2871094 C317.842328,19.861321 318.327349,18.7252646 319.193239,17.8789062 C320.052618,17.0260374 321.149613,16.5996094 322.484255,16.5996094 L322.660036,16.5996094 Z M330.677614,20.5351562 C330.462769,20.9453146 330.355348,21.4140599 330.355348,21.9414062 L330.355348,22.078125 C330.368369,22.6705759 330.498576,23.1718729 330.745973,23.5820312 C330.973839,23.9661478 331.247274,24.1582031 331.566286,24.1582031 C331.924361,24.1582031 332.305216,23.9173201 332.708864,23.4355469 C333.125533,22.9407527 333.359905,22.3059935 333.411989,21.53125 C333.4185,21.4270828 333.421755,21.3261724 333.421755,21.2285156 C333.421755,20.5774707 333.272017,20.0143253 332.972536,19.5390625 C332.796754,19.2656236 332.565636,19.1289062 332.279177,19.1289062 C331.940633,19.1289062 331.595585,19.291665 331.24402,19.6171875 C330.905477,19.9231786 330.716677,20.2291651 330.677614,20.5351562 Z M332.542848,16.5996094 C333.57801,16.5996094 334.404825,16.9902305 335.023317,17.7714844 C335.64181,18.5527383 335.951052,19.5976497 335.951052,20.90625 C335.951052,22.4492265 335.55392,23.8164003 334.759645,25.0078125 C333.861203,26.3359441 332.715381,27 331.322145,27 C331.048706,27 330.768761,26.9707034 330.482302,26.9121094 C329.382036,26.6972646 328.584518,26.0039121 328.089723,24.8320312 C327.757691,24.0377564 327.591677,23.1230521 327.591677,22.0878906 C327.591677,21.8274727 327.601442,21.5605482 327.620973,21.2871094 C327.725141,19.861321 328.210162,18.7252646 329.076052,17.8789062 C329.935431,17.0260374 331.032425,16.5996094 332.367067,16.5996094 L332.542848,16.5996094 Z M341.361208,20.5644531 C341.38725,20.5644531 342.900906,21.1438744 345.902223,22.3027344 C348.226454,23.2011764 349.460165,24.0019496 349.603395,24.7050781 C349.590374,24.7050781 349.502485,24.8971335 349.339723,25.28125 C349.176962,25.671877 348.919803,25.8671875 348.568239,25.8671875 C348.425009,25.9127606 348.275271,25.9355469 348.11902,25.9355469 C347.800008,25.9355469 347.445194,25.8476571 347.054567,25.671875 C346.878785,25.6002601 346.628137,25.4765634 346.302614,25.3007812 C345.970581,25.1184887 345.729698,24.994792 345.579958,24.9296875 L345.589723,24.9296875 L344.466677,24.3828125 C343.835163,24.0703109 343.294804,23.8229176 342.845583,23.640625 C342.096881,23.3411443 341.530481,23.1914062 341.146364,23.1914062 C340.814331,23.1914062 340.625531,23.3085926 340.579958,23.5429688 C340.553916,23.6731777 340.540895,23.8652331 340.540895,24.1191406 C340.540895,24.2949228 340.547406,24.4967437 340.560427,24.7246094 C340.573447,24.9980482 340.579958,25.2356761 340.579958,25.4375 C340.579958,25.6848971 340.570192,25.8802076 340.550661,26.0234375 C340.472536,26.667972 340.160039,26.9902344 339.613161,26.9902344 C339.372274,26.9902344 339.082564,26.9251309 338.74402,26.7949219 C338.262247,26.6126293 337.985557,26.2773462 337.913942,25.7890625 C337.900921,25.7044267 337.894411,25.6100266 337.894411,25.5058594 C337.894411,25.1998683 337.949749,24.7994816 338.060427,24.3046875 C338.229698,23.529944 338.320843,23.0221366 338.333864,22.78125 L338.333864,22.6933594 C338.333864,22.2180966 338.184126,21.8730479 337.884645,21.6582031 C337.461466,21.3587225 337.223838,21.0494808 337.171755,20.7304688 C337.165244,20.6914061 337.161989,20.6490888 337.161989,20.6035156 C337.161989,20.3691395 337.243368,20.0989599 337.40613,19.7929688 C338.037643,18.5820252 338.363161,17.7942727 338.382692,17.4296875 C338.389203,17.2734367 338.392458,16.8567742 338.392458,16.1796875 L338.392458,14.0214844 C338.392458,12.9798125 338.408734,12.1106806 338.441286,11.4140625 C338.584516,8.48436035 339.066282,7.01953125 339.886598,7.01953125 L339.964723,7.01953125 C340.719936,7.11067754 341.097536,8.42576855 341.097536,10.9648438 C341.097536,12.5533934 340.947798,14.6269403 340.648317,17.1855469 C340.941287,17.0878901 341.374226,16.9283865 341.947145,16.7070312 C342.604701,16.4466133 343.070191,16.2675786 343.34363,16.1699219 C344.372281,15.8053367 345.234902,15.6230469 345.93152,15.6230469 C346.009646,15.6230469 346.084515,15.6263021 346.15613,15.6328125 C346.761601,15.6328125 347.129436,15.7402333 347.259645,15.9550781 C347.33126,16.0722662 347.367067,16.4303355 347.367067,17.0292969 C347.184775,17.4264343 346.250539,17.8723934 344.564333,18.3671875 C343.294795,18.6536473 342.412643,18.8977854 341.917848,19.0996094 C341.201699,19.3860691 340.84363,19.6757798 340.84363,19.96875 C340.84363,20.1640635 341.016154,20.3626292 341.361208,20.5644531 Z M352.142458,19.8515625 L352.220583,19.9199219 C352.526574,20.0045577 354.076038,20.5579376 356.86902,21.5800781 C357.891161,21.9576842 358.594279,22.3841122 358.978395,22.859375 C359.232303,23.1718766 359.359255,23.5201804 359.359255,23.9042969 C359.359255,24.2428402 359.261599,24.6074199 359.066286,24.9980469 C358.851441,25.4147156 358.311082,25.7988264 357.445192,26.1503906 C356.637896,26.4759131 355.713427,26.7135409 354.671755,26.8632812 C354.053262,26.9544275 353.486861,27 352.972536,27 C352.607951,27 352.266157,26.9772138 351.947145,26.9316406 C351.094276,26.8144525 350.586469,26.5475281 350.423708,26.1308594 C350.260947,25.733722 350.179567,25.3723975 350.179567,25.046875 C350.179567,24.7994779 350.22514,24.5716156 350.316286,24.3632812 C350.466026,24.011717 350.700399,23.8359375 351.019411,23.8359375 C351.188683,23.8359375 351.377483,23.88151 351.585817,23.9726562 C352.549364,24.3828146 353.385944,24.5878906 354.095583,24.5878906 C354.850795,24.5878906 355.459513,24.353518 355.921755,23.8847656 C355.804567,23.8847656 354.48622,23.4941445 351.966677,22.7128906 C350.085157,22.1334606 349.144411,21.3652392 349.144411,20.4082031 C349.12488,20.2714837 349.115114,20.1380215 349.115114,20.0078125 C349.115114,19.0572869 349.668494,18.2402378 350.77527,17.5566406 C351.810432,16.9186166 352.845578,16.5996094 353.880739,16.5996094 L354.05652,16.5996094 C354.427616,16.5996094 354.769409,16.6940095 355.081911,16.8828125 C355.374881,17.0585946 355.576702,17.2766914 355.68738,17.5371094 C355.732953,17.6542975 355.755739,17.7649734 355.755739,17.8691406 C355.755739,18.018881 355.713422,18.1588535 355.628786,18.2890625 C355.459514,18.54297 355.143762,18.7252599 354.68152,18.8359375 C353.555213,19.0182301 352.988812,19.109375 352.982302,19.109375 C352.370319,19.2591153 352.064333,19.43815 352.064333,19.6464844 C352.064333,19.7376307 352.090374,19.8059894 352.142458,19.8515625 Z" id="FreshBooks" fill="#2E2E30" fill-rule="nonzero" transform="translate(301.566286, 17.009766) rotate(-363.000000) translate(-301.566286, -17.009766) "></path>
                    <g id="arrow" transform="translate(118.500000, 78.764607) rotate(-361.000000) translate(-118.500000, -78.764607) translate(1.000000, 25.764607)">
                        <g id="Group-3" transform="translate(1.196671, 0.000000)">
                            <mask id="mask-2" fill="white">
                                <use xlink:href="#path-1"></use>
                            </mask>
                            <g id="Clip-2"></g>
                            <path d="M1.38349189,102.236552 C2.84573972,101.035036 0.0734294442,104.552039 1.11209464,104.912366 C1.23891579,104.92886 2.03281617,103.73242 3.32385544,102.098257 C4.59460334,100.448869 5.99978165,98.751268 6.30668882,98.3008582 C15.9362185,84.9598471 27.2220324,71.3105273 39.4412499,61.1947041 C50.0371568,52.4427978 63.2075329,43.5805094 76.4730249,35.9641433 C80.4767685,33.7565009 84.5109492,31.441014 88.7683351,29.4312982 C92.9445555,27.2604499 97.3389082,25.4232854 101.719311,23.4846202 C110.587913,19.8635792 119.720304,16.5089779 129.034049,13.9257826 C147.60447,8.55385285 166.540135,5.33374004 183.95902,3.61203276 C186.527148,3.26058625 189.47574,3.17557933 192.629782,3.04870334 C195.78636,2.95227758 199.145852,2.76196358 202.567487,2.73658838 C209.414561,2.81271398 216.482303,2.58433719 222.590009,2.50821159 C224.668608,2.43716103 226.279237,2.43589227 227.736412,2.24430951 C228.58104,2.13519616 229.406646,1.91950696 230.220838,1.67717381 C230.747146,1.51984757 231.287404,1.41961553 231.811175,1.24579542 C232.012821,1.17855114 232.771211,0.956518142 232.303241,0.734485147 C231.718596,0.455357954 230.810556,0.532752312 230.182792,0.504839593 C228.92853,0.450282914 227.671733,0.437595314 226.416204,0.421101435 C224.66734,0.396994995 222.918476,0.376694836 221.170881,0.319600637 C219.480355,0.263775198 217.862117,0.211756039 216.298412,0.16100564 C214.733439,0.16988696 213.223,0.17876828 211.750606,0.18638084 C208.807087,0.1939934 206.015754,0.200337199 203.240907,0.206680999 C201.852216,0.18638084 200.468597,0.230787439 199.073564,0.310719317 C197.678532,0.374157316 196.269549,0.440132834 194.831397,0.506108353 C191.956361,0.660897069 188.955773,0.744635227 185.71042,1.00092474 C168.617466,2.30520999 150.865042,5.27918336 132.884339,10.1677155 C115.271418,14.9623595 98.0389609,21.5434174 81.9199931,29.9058144 C73.8706549,34.110485 66.1155418,38.7516089 58.6432398,43.688354 C51.2419577,48.7278686 44.1450463,54.0718856 37.4438169,59.7242113 C30.764147,65.3422804 24.5993711,71.4729286 18.8480321,78.1935502 C15.896904,81.7384655 12.3142066,85.5993021 9.22737984,89.5667145 C6.11011605,93.502408 3.38980244,97.4584016 1.88443542,100.796509 C1.02966089,102.664124 -0.570821983,104.535545 1.38349189,102.236552" id="Fill-1" fill="#2E2E30" mask="url(#mask-2)"></path>
                        </g>
                        <g id="Group-6" transform="translate(0.000000, 87.357008)">
                            <mask id="mask-4" fill="white">
                                <use xlink:href="#path-3"></use>
                            </mask>
                            <g id="Clip-5"></g>
                            <path d="M1.36197154,0.060517379 C1.27517298,0.0630816747 1.19092731,0.0720567098 1.11178745,0.0874424841 C0.880750104,0.133599807 0.705876532,0.310536212 0.519514916,0.440033146 C0.228484447,0.642612508 0.0970101564,1.04136049 0.0829692127,1.11187862 C-0.325494604,3.21588326 0.917767137,5.17628734 0.696941386,7.16618082 C0.506750422,8.89451614 0.211890605,10.9062061 0.588443185,12.7422419 C0.783739947,13.7730887 0.984142507,14.8321429 1.18837442,15.9117114 L1.42451756,17.1605234 C1.53429221,17.7400542 2.13039409,18.0887984 2.68692604,17.8977584 L3.82168958,17.5079855 C7.02047184,16.411749 10.2345715,15.336027 13.2150809,13.7166742 C14.1877354,13.1871472 15.3161167,13.0550859 16.3436584,12.6704416 C17.1605861,12.3652904 17.8766742,11.7921703 18.3323667,11.043396 C18.714025,10.4177078 18.5940388,9.36634655 17.6558485,9.43558254 C17.0980401,9.47789342 16.606607,9.78689105 16.1049624,10.0087026 C15.1169905,10.4446329 14.0677491,10.6959339 13.0657363,11.0985283 C11.1485093,11.8665349 3.43364896,15.2244801 3.43364896,15.2244801 C2.94987462,12.1716861 2.9932739,9.39070736 3.1145366,6.36355626 C3.15410653,5.38014885 2.93455723,4.41725581 2.74819561,3.45179847 C2.63203872,2.84790683 2.69841409,2.22350082 2.64735611,1.61448059 C2.60395683,1.09264641 2.43929485,0.304125473 1.86106326,0.122060476 C1.71044223,0.0746210055 1.53301576,0.0553887876 1.36197154,0.060517379" id="Fill-4" fill="#2E2E30" mask="url(#mask-4)"></path>
                        </g>
                    </g>
                </g>
            </g>
        </g>
    </g>
</svg>