<?xml version="1.0" encoding="UTF-8"?>
<svg width="15px" height="15px" viewBox="0 0 15 15" version="1.1" xmlns="http://www.w3.org/2000/svg" xmlns:xlink="http://www.w3.org/1999/xlink">
    <!-- Generator: Sketch 53.2 (72643) - https://sketchapp.com -->
    <title>Group 5</title>
    <desc>Created with Sketch.</desc>
    <g id="Page-2" stroke="none" stroke-width="1" fill="none" fill-rule="evenodd">
        <g id="Group-5" transform="translate(-4.500000, -4.500000)">
            <polygon id="Stroke-1" stroke-opacity="0.0117647061" stroke="#000000" stroke-width="1.33333336e-11" points="0 0 23.999999 0 23.999999 23.999999 0 23.999999"></polygon>
            <path d="M18.2949989,5.70499956 L18.2949989,5.70499956 C17.9056382,5.31563888 17.2743597,5.31563891 16.884999,5.70499962 L11.9999993,10.5899996 L7.11499927,5.70499956 C6.7256386,5.31563889 6.09436023,5.31563889 5.70499956,5.70499956 L5.70499956,5.70499956 C5.31563889,6.09436023 5.31563889,6.7256386 5.70499956,7.11499927 L10.5899996,11.9999993 L5.70499962,16.884999 C5.31563891,17.2743597 5.31563888,17.9056382 5.70499956,18.2949989 L5.70499956,18.2949989 C6.0943602,18.6843596 6.72563858,18.6843596 7.11499927,18.294999 C7.11499929,18.294999 7.11499931,18.294999 7.11499932,18.294999 L11.9999993,13.409999 L16.884999,18.2949989 C17.2743597,18.6843596 17.9056382,18.6843596 18.2949989,18.2949989 C18.2949989,18.2949989 18.2949989,18.2949989 18.2949989,18.2949989 L18.2949989,18.2949989 C18.6843596,17.9056382 18.6843596,17.2743597 18.2949989,16.884999 C18.2949989,16.884999 18.2949989,16.884999 18.2949989,16.884999 L13.409999,11.9999993 L18.294999,7.11499932 C18.6843596,6.72563865 18.6843596,6.09436028 18.294999,5.70499961 C18.2949989,5.70499959 18.2949989,5.70499958 18.2949989,5.70499956 Z" id="Fill-3" fill="#FFFFFF"></path>
        </g>
    </g>
</svg>