<svg xmlns="http://www.w3.org/2000/svg" width="153" height="79" viewBox="0 0 153 79">
    <g fill="none" fill-rule="nonzero">
        <g fill="#7C8084">
            <path d="M45.67 69.687c-.127-1.077-.312-1.987-1.36-1.987-1.283 0-1.595 1.283-1.595 3.493 0 .817 0 3.048 1.596 3.048 1.158 0 1.286-1.209 1.359-1.987l1.8.168c-.146 1.13-.459 3.382-3.305 3.382-2.937 0-3.414-2.843-3.414-4.78 0-2.132.588-4.829 3.543-4.829 2.699 0 3.048 2.323 3.175 3.309l-1.799.183zM50.663 63.184v12.393H48.79V63.184zM58.928 70.895c0 2.137-.495 4.908-3.58 4.908-2.808 0-3.543-2.434-3.543-4.813 0-2.212.606-4.796 3.58-4.796 2.829 0 3.543 2.47 3.543 4.701zm-5.139.112c0 2.397.532 3.361 1.58 3.361 1.045 0 1.577-.928 1.577-3.38 0-2.358-.514-3.364-1.578-3.364-1.139 0-1.579 1.154-1.579 3.383zM61.945 66.417v5.815c0 1.286 0 2.045 1.048 2.045 1.505 0 1.505-1.763 1.505-3.455v-4.404h1.873v9.16h-1.727v-1.376c-.328.672-.789 1.601-2.295 1.601-2.276 0-2.276-2.009-2.276-3.532v-5.853h1.872v-.001zM74.616 63.184v12.393h-1.724v-1.392c-.24.538-.7 1.56-2.278 1.56-2.552 0-3.03-2.935-3.03-4.702 0-3.139 1.305-4.793 3.103-4.793 1.413 0 1.854.817 2.074 1.225v-4.291h1.855zm-1.854 7.006c0-.594 0-1.188-.385-1.784-.201-.298-.606-.762-1.247-.762-1.378 0-1.561 1.765-1.561 3.233 0 1.562.164 3.437 1.578 3.437.532 0 .953-.294 1.23-.723.239-.371.385-.819.385-1.82V70.19zM78.936 68.778c.423-2.361 2.572-2.584 3.417-2.584 1.302 0 2.072.484 2.496.985.568.633.568 1.766.568 2.749v3.104c0 .78 0 1.916.148 2.546H83.82c-.09-.445-.127-.666-.127-1.523-.349.65-.937 1.749-2.553 1.749-1.467 0-2.534-.949-2.534-2.64 0-1.466.79-2.49 1.873-2.862.771-.26 1.764-.41 3.066-.373v-.371c0-.666 0-1.97-1.34-1.97-1.192 0-1.396 1.044-1.466 1.434l-1.803-.244zm4.608 2.323c-.291-.02-.422-.02-.55-.02-2.167 0-2.441 1.097-2.441 1.951 0 1.098.586 1.376 1.211 1.376.79 0 1.78-.817 1.78-2.844v-.463zM91.547 69.687c-.13-1.077-.314-1.987-1.359-1.987-1.286 0-1.596 1.283-1.596 3.493 0 .817 0 3.048 1.596 3.048 1.156 0 1.286-1.209 1.359-1.987l1.799.168c-.147 1.13-.458 3.382-3.305 3.382-2.938 0-3.414-2.843-3.414-4.78 0-2.132.586-4.829 3.543-4.829 2.7 0 3.048 2.323 3.176 3.309l-1.8.183zM99.308 69.687c-.132-1.077-.314-1.987-1.361-1.987-1.284 0-1.596 1.283-1.596 3.493 0 .817 0 3.048 1.596 3.048 1.156 0 1.285-1.209 1.36-1.987l1.796.168c-.142 1.13-.458 3.382-3.302 3.382-2.94 0-3.415-2.843-3.415-4.78 0-2.132.587-4.829 3.543-4.829 2.7 0 3.05 2.323 3.174 3.309l-1.795.183zM109.33 70.895c0 2.137-.494 4.908-3.581 4.908-2.807 0-3.542-2.434-3.542-4.813 0-2.212.605-4.796 3.577-4.796 2.83 0 3.547 2.47 3.547 4.701zm-5.14.112c0 2.397.531 3.361 1.577 3.361 1.048 0 1.58-.928 1.58-3.38 0-2.358-.513-3.364-1.58-3.364-1.137 0-1.577 1.154-1.577 3.383zM112.39 66.417v5.815c0 1.286 0 2.045 1.046 2.045 1.505 0 1.505-1.763 1.505-3.455v-4.404h1.874v9.16h-1.728v-1.376c-.33.672-.79 1.601-2.296 1.601-2.274 0-2.274-2.009-2.274-3.532v-5.853h1.874v-.001zM118.254 66.417h1.73v1.413c.218-.5.677-1.636 2.237-1.636.587 0 1.523.148 2.02 1.136.294.575.311 1.428.311 2.34v5.908h-1.87v-5.795c0-1.19 0-2.063-1.085-2.063-1.469 0-1.469 1.783-1.469 2.732v5.126h-1.872v-9.161h-.002zM130.111 67.943h-1.729v4.048c0 1.6 0 2.21 1.25 2.21.33 0 .553-.034.77-.055v1.49c-.366.073-.788.167-1.393.167-2.464 0-2.464-1.673-2.464-3.681v-4.179h-1.174v-1.526h1.23l.093-2.399 1.688-.147v2.546h1.73v1.526zM131.745 65.172v-2.008h1.964v2.008h-1.964zm1.93 1.245v9.16h-1.876v-9.16h1.875zM135.26 66.417h1.727v1.413c.219-.5.68-1.636 2.24-1.636.586 0 1.524.148 2.02 1.136.292.575.311 1.428.311 2.34v5.908h-1.872v-5.795c0-1.19 0-2.063-1.083-2.063-1.467 0-1.467 1.783-1.467 2.732v5.126h-1.875v-9.161h-.002zM150.364 66.342a1.72 1.72 0 0 0-.42-.056c-.533 0-.846.243-.993 1.004.46.575.699 1.228.699 1.97 0 1.43-.99 2.936-3.139 2.936-.515 0-.844-.074-1.158-.166-.274.132-.678.298-.678.817 0 .687.46.706 2.294.8 1.762.112 3.525.205 3.525 2.472 0 2.433-2.442 2.843-4.112 2.843-1.286 0-3.654-.241-3.654-2.304 0-1.281.918-1.618 1.322-1.767-.348-.222-.991-.596-.991-1.521 0-1.137.936-1.618 1.342-1.823-.442-.316-1.177-.836-1.177-2.342 0-1.82 1.322-3.01 3.176-3.01.862 0 1.34.223 1.729.391.125-.707.29-1.69 1.668-1.69.238 0 .404.035.588.054l-.02 1.392zm-5.948 10.017c0 .987.809 1.282 2.184 1.282.791 0 2.15-.127 2.15-1.263 0-.835-.661-1.023-1.085-1.057-.347-.04-2.074-.115-2.458-.13-.257.129-.79.423-.79 1.168zm.736-7.117c0 .279 0 1.765 1.285 1.765s1.285-1.545 1.285-1.765c0-.428-.075-1.801-1.233-1.801-1.155 0-1.337 1.021-1.337 1.801z"/>
        </g>
        <path fill="#7C8084" d="M0 29h13v6.185H6.388v5.335h5.862v6.036H6.388V58H0zM14 34h6.467c2.618 0 4.68.663 6.195 1.98 1.514 1.317 2.271 3.11 2.271 5.375 0 1.162-.285 2.287-.857 3.374a5.64 5.64 0 0 1-2.513 2.45L30 58h-5.865l-4.493-10.931h-.093V58H14V34zm5.549 4.641v5.695c2.456-.045 3.685-.89 3.685-2.533 0-1.113-.285-1.913-.851-2.393-.567-.48-1.513-.733-2.834-.769zM30 34h10.964v5.105H35.42v4.423h4.809v4.981h-4.81v4.368H41V58H30zM53 34h5.54v8.898h4.92V34H69v24h-5.54v-9.978h-4.92V58H53zM70 29h6.648c3.866 0 6.655.764 8.35 2.29 1.696 1.533 2.545 3.483 2.545 5.844 0 2.554-1.229 4.605-3.69 6.156C86.618 44.403 88 46.522 88 49.648c0 2.506-.87 4.52-2.603 6.053C83.66 57.236 81.37 58 78.53 58H70V29zm6.483 5.57v6.263c3.053-.073 4.576-1.096 4.576-3.068 0-1.177-.364-1.995-1.094-2.457-.727-.462-1.885-.711-3.482-.739zm0 11.524v6.338c1.679-.029 2.934-.283 3.777-.777.84-.49 1.257-1.3 1.257-2.428 0-2.09-1.494-3.133-4.486-3.133h-.548zM97.078 58c-2.95 0-5.197-1.102-6.75-3.302C88.773 52.496 88 49.32 88 45.169c0-3.829.779-6.816 2.333-8.956C91.888 34.069 94.061 33 96.845 33c2.966 0 5.232 1.073 6.8 3.221 1.563 2.146 2.355 5.212 2.355 9.2 0 3.982-.774 7.074-2.32 9.276-1.542 2.2-3.742 3.303-6.602 3.303zm-.2-19.61c-2 0-3 2.286-3 6.848 0 2.944.252 4.905.759 5.891.506.984 1.241 1.475 2.207 1.475 1.035 0 1.831-.491 2.39-1.475.552-.986.832-2.914.832-5.781 0-4.642-1.062-6.958-3.189-6.958zM115.082 58c-2.953 0-5.207-1.102-6.758-3.302-1.549-2.202-2.324-5.378-2.324-9.529 0-3.829.778-6.816 2.332-8.956 1.56-2.144 3.726-3.213 6.512-3.213 2.966 0 5.233 1.073 6.8 3.221 1.57 2.146 2.356 5.212 2.356 9.2 0 3.982-.772 7.074-2.319 9.276-1.543 2.2-3.741 3.303-6.6 3.303zm-.2-19.61c-2.004 0-3.005 2.286-3.005 6.848 0 2.944.252 4.905.757 5.891.51.984 1.246 1.475 2.21 1.475 1.035 0 1.834-.491 2.387-1.475.56-.986.834-2.914.834-5.781 0-4.642-1.061-6.958-3.183-6.958zM124 34h5.317v11.288h.086L134.42 34H140l-5.438 12.26 5.21 11.74h-5.838l-4.53-9.978h-.086V58h-5.317V34z"/>
        <path fill="#7C8084" d="M139.907 56.936V51.41c1.705.992 3.138 1.491 4.305 1.491.676 0 1.208-.187 1.6-.56.386-.371.584-.87.584-1.484 0-.473-.156-.915-.47-1.332-.315-.414-.855-.917-1.627-1.508-1.859-1.425-3.212-2.747-4.047-3.974-.835-1.225-1.252-2.592-1.252-4.097 0-2.048.646-3.72 1.94-5.01 1.291-1.29 2.964-1.936 5.012-1.936 1.52 0 3.026.324 4.52.979v5.309c-1.601-.872-2.902-1.314-3.895-1.314-.664 0-1.189.166-1.58.49-.384.326-.575.773-.575 1.34 0 .998.895 2.115 2.683 3.358 1.07.737 2.152 1.768 3.249 3.103 1.1 1.335 1.646 2.877 1.646 4.63 0 2.048-.72 3.742-2.153 5.09C148.413 57.33 146.594 58 144.39 58c-1.509 0-3-.355-4.483-1.064zM52.711 51.723l-5.302-7.878c-5.3-7.877 6.052-12.977 6.052-12.977L52.628 30s-18.463 3.952-10.74 15.436l5.255 8.223c1.974 3.085-.98 4.861-2.803 4.861h-3.333V60h2.59c4.389 0 13.836-.998 9.114-8.277zM117.821 23s-2.655 1.419-7.54 7.906c-.763 1.015-1.281.921-1.281.921s.227 1.551 2.738 1.086c0 0 3.552-7.652 7.262-9.176L117.821 23z"/>
        <path fill="#7C8084" d="M114 26.549s1.584-21.872 19.442-21.307C148.242 5.71 153 0 153 0s.158 31.08-39 26.549z"/>
        <path fill="#FFF" d="M116 24s7.282-10.971 15.893-11.826C140.65 11.302 146 7 146 7s-5.328 6.487-14.641 7.42C123.329 15.217 116 24 116 24z"/>
    </g>
</svg>
