<svg xmlns="http://www.w3.org/2000/svg" width="155" height="43" viewBox="0 0 155 43">
    <g fill="#7C8084" fill-rule="nonzero">
        <path d="M9.877 5.255H.5V.5h24v4.755h-9.377V29.5H9.877zM27.5.5h5v29h-5zM9.5 35.569h.873l1.984 4.897 1.826-4.966h.634l1.905 4.966 1.984-4.897h.794L17.04 41.5h-.635L14.5 36.672 12.595 41.5h-.635zM20.5 34.5h.893v2.878c.357-.622 1.16-1.011 1.964-.934 1.34 0 2.143.778 2.143 1.945V41.5h-.804v-2.878c0-.933-.535-1.478-1.607-1.478-.893 0-1.696.623-1.696 1.4V41.5H20.5v-7zM30.68 38.632c-.082-.882-.655-1.617-1.639-1.617-.902 0-1.557.661-1.721 1.617h3.36zm-4.18.294c0-1.397 1.066-2.426 2.541-2.426 1.557 0 2.459 1.103 2.459 2.5v.22h-4.098c0 .883.82 1.618 1.803 1.618.656 0 1.23-.22 1.64-.662l.491.442c-.492.588-1.311.882-2.131.882-1.394 0-2.623-1.03-2.623-2.353C26.5 39 26.5 39 26.5 38.927zM32.5 36.578h.833v1.328c.334-.86 1.167-1.406 2.167-1.406v.781h-.083c-1.167 0-2.084.782-2.084 2.266V41.5H32.5v-4.922zM40.681 38.632c-.082-.882-.655-1.617-1.638-1.617-.9 0-1.556.661-1.72 1.617h3.358zm-4.177.294c-.081-1.323.983-2.352 2.457-2.426h.082c1.556 0 2.457 1.103 2.457 2.5v.22h-4.177c0 .883.82 1.618 1.802 1.618.655 0 1.228-.22 1.638-.662l.491.442c-.491.588-1.31.882-2.129.882-1.392 0-2.62-1.03-2.62-2.353v-.22zM51.215 38.913c.078-.99-.702-1.826-1.639-1.902h-.078c-1.015 0-1.795.837-1.795 1.902-.079.99.702 1.826 1.717 1.902 1.015 0 1.795-.76 1.795-1.902m-3.512 1.522v.913H47V34.5h.703v2.967c.39-.684 1.092-1.065 1.873-1.065a2.418 2.418 0 0 1 2.42 2.435v.152c.078 1.294-.937 2.435-2.264 2.511h-.078c-.78-.076-1.561-.457-1.951-1.065M53 36.578h.833v1.328C54.167 37.046 55 36.5 56 36.5v.781h-.083c-1.167 0-2.084.782-2.084 2.266V41.5H53v-4.922zM60.035 39.565v-.446a5.947 5.947 0 0 0-1.667-.223c-1.052 0-1.666.372-1.666.967s.614.967 1.403.967c1.14 0 1.93-.52 1.93-1.265M56 39.937c0-.967.965-1.562 2.368-1.562.614 0 1.14.074 1.755.223v-.149c0-.819-.614-1.265-1.667-1.265-.614 0-1.14.149-1.667.372l-.263-.595c.614-.298 1.316-.372 2.018-.447.702-.074 1.316.15 1.842.521.439.372.614.893.614 1.414v2.902h-.79v-.67c-.438.521-1.228.819-2.017.819-1.14-.074-2.193-.595-2.193-1.563M62 36.587h.893v.844c.357-.614 1.16-.998 1.964-.921 1.34 0 2.143.767 2.143 1.92v3.07h-.804v-2.84c0-.922-.535-1.46-1.607-1.46-.893 0-1.696.615-1.696 1.383V41.5h-.804L62 36.587zM72.445 38.885c0-1-.793-1.847-1.824-1.923-.951 0-1.744.692-1.744 1.923-.08 1 .713 1.846 1.665 1.923h.08c1.03-.077 1.823-.923 1.823-1.923m-4.44 0c-.08-1.308.95-2.462 2.299-2.539h.08c.792 0 1.506.385 1.902 1.077V34.5H73v6.923h-.714v-1c-.396.692-1.11 1.077-1.903 1.077-1.348 0-2.458-1.077-2.379-2.462v-.153M74 40.808l.4-.539c.48.385 1.12.616 1.76.616.64 0 1.04-.308 1.04-.77 0-.461-.64-.692-1.28-.846-.8-.23-1.68-.461-1.68-1.384 0-.847.72-1.385 1.76-1.385.64 0 1.28.23 1.84.538l-.32.539c-.48-.308-.96-.462-1.52-.462-.64 0-.96.308-.96.693 0 .461.64.615 1.36.846.8.23 1.6.538 1.6 1.384 0 .924-.8 1.462-1.84 1.462a5.08 5.08 0 0 1-2.16-.692M85.875 38.613c0-.845-.781-1.55-1.797-1.55H84c-.938-.07-1.719.564-1.719 1.41v.07c0 .845.781 1.549 1.64 1.549H84c1.016.07 1.797-.634 1.875-1.48m-4.14 3.24l.312-.492a3.68 3.68 0 0 0 1.953.563c1.094 0 1.797-.563 1.797-1.62v-.493a2.533 2.533 0 0 1-1.953.916c-1.25 0-2.344-.916-2.344-2.043v-.07c0-1.197 1.094-2.113 2.344-2.113.781 0 1.484.352 1.953.916v-.846h.703v3.733c0 .564-.156 1.127-.625 1.62-.547.423-1.172.634-1.875.564a4.39 4.39 0 0 1-2.266-.634M91.18 38.632c-.082-.882-.655-1.617-1.639-1.617-.902 0-1.557.661-1.721 1.617h3.36zm-4.18.294c0-1.397 1.066-2.426 2.541-2.426C91.098 36.5 92 37.603 92 39v.22h-4.098c0 .883.82 1.618 1.803 1.618.656 0 1.23-.22 1.64-.662l.491.442c-.492.588-1.311.882-2.131.882-1.394 0-2.623-1.03-2.623-2.353C87 39 87 39 87 38.927zM93.21 40.193v-2.744h-.71v-.577h.71V35.5h.711v1.372H95.5v.577h-1.579v2.671c-.079.361.237.722.632.795h.236c.237 0 .474-.073.711-.145v.506c-.316.144-.553.216-.868.216-.71.072-1.343-.36-1.421-1.01v-.29M99.5 36.578h.771v1.328c.343-.86 1.2-1.406 2.229-1.406v.781h-.086c-1.2 0-2.143.782-2.143 2.266V41.5H99.5v-4.922zM106.598 38.632c-.082-.882-.655-1.617-1.639-1.617-.902 0-1.557.661-1.721 1.617h3.36zm-4.098.294c0-1.397 1.066-2.426 2.541-2.426 1.557 0 2.459 1.103 2.459 2.5v.22h-4.098c0 .883.82 1.618 1.803 1.618.656 0 1.23-.22 1.64-.662l.491.442c-.492.588-1.311.882-2.131.882-1.394 0-2.623-1.03-2.623-2.353-.082-.147-.082-.147-.082-.22zM108.5 40.808l.4-.539c.48.385 1.12.616 1.76.616.64 0 1.04-.308 1.04-.77 0-.461-.56-.692-1.28-.846-.8-.23-1.68-.461-1.68-1.384 0-.847.72-1.385 1.76-1.385.64 0 1.28.23 1.84.538l-.32.539c-.48-.308-.96-.462-1.52-.462-.64 0-.96.308-.96.693 0 .461.64.615 1.36.846.8.23 1.6.538 1.6 1.384 0 .924-.8 1.462-1.84 1.462a5.08 5.08 0 0 1-2.16-.692M113.5 39.57V36.5h.818v2.84c0 .922.546 1.46 1.637 1.46.909 0 1.727-.615 1.727-1.46V36.5h.818v4.913h-.818v-.844c-.364.614-1.182.998-2 .921-1.364 0-2.182-.767-2.182-1.92M119.5 34.5h1v7h-1zM122.21 40.193v-2.744h-.71v-.577h.71V35.5h.711v1.372h1.579v.577h-1.579v2.671c-.079.361.237.722.632.795h.236c.237 0 .474-.073.711-.145v.506c-.316.144-.553.216-.868.216-.71.072-1.343-.36-1.421-1.01v-.29M125.5 40.808l.4-.539c.48.385 1.12.616 1.76.616.64 0 1.04-.308 1.04-.77 0-.461-.64-.692-1.28-.846-.8-.23-1.68-.461-1.68-1.384 0-.847.72-1.385 1.76-1.385.64 0 1.28.23 1.84.538l-.32.539c-.48-.308-.96-.462-1.52-.462-.64 0-.96.308-.96.693 0 .461.64.615 1.36.846.8.23 1.6.538 1.6 1.384 0 .924-.8 1.462-1.84 1.462a5.08 5.08 0 0 1-2.16-.692M130.5 40.5h1v1h-1zM44.5 15.577V15.5c0-7.268 5.459-14 13.845-14 4.589 0 7.437 1.3 10.206 3.52l-1.345 1.53c-2.215-1.837-4.747-3.214-9.02-3.214-6.803.077-11.55 5.585-11.55 12.164v.077c0 6.961 4.51 12.163 11.946 12.163 3.244 0 6.409-1.147 8.94-3.06v-7.803h-9.335v-1.836H69.5v10.404c-3.006 2.601-6.962 4.055-10.997 4.055-8.781 0-14.003-6.273-14.003-13.923M75.5 8.813h1.978v5.592c1.583-3.524 4.986-6.052 9.022-5.898v2.068h-.158c-4.748 0-8.864 3.447-8.864 9.882V28.5H75.5V8.813zM86.5 19.078C86.5 13.4 90.938 8.5 97.04 8.5c6.102 0 10.46 4.822 10.46 10.422V19c0 5.6-4.438 10.5-10.54 10.5-6.102 0-10.46-4.822-10.46-10.422m18.86 0c0-4.9-3.645-8.79-8.4-8.79-4.834 0-8.32 3.89-8.32 8.634V19c0 4.822 3.645 8.711 8.4 8.711 4.834 0 8.32-3.889 8.32-8.633M111.5 21.438V9.5h1.923v11.633c0 4.03 2.308 6.692 6.308 6.692 3.846 0 6.846-2.89 6.846-6.996V9.5h1.923v19.541h-1.923v-3.65c-1.385 2.586-4.154 4.182-7.154 4.106-5.077 0-7.923-3.345-7.923-8.06M134.5 8.963h1.953v4.472c1.719-2.622 4.297-4.935 8.281-4.935 4.844 0 9.766 3.855 9.766 10.333v.077c0 6.477-4.922 10.41-9.766 10.41-3.984 0-6.64-2.237-8.28-4.781V40.5H134.5V8.963zm17.89 9.947c0-5.32-3.671-8.637-7.89-8.637-4.219 0-8.203 3.47-8.203 8.56v.077c0 5.089 3.984 8.559 8.203 8.559 4.375 0 7.89-3.162 7.89-8.56z"/>
    </g>
</svg>
