<svg xmlns="http://www.w3.org/2000/svg" width="146" height="30" viewBox="0 0 146 30">
    <g fill="#7C8084" fill-rule="nonzero">
        <path d="M12.345 21.373c2.434 3.926 6.746 6.324 11.398 6.34 7.057 0 10.947-6.027 10.947-6.027l.496 1.61C31.921 27.495 26.09 30 19.567 30c-7.523 0-13.994-3.546-16.98-8.664a12.57 12.57 0 0 1-1.754-6.325C.833 6.705 9.215 0 19.56 0c7.305 0 13.189 3.1 16.273 7.591L23.577 14.9l6.997-10.638c-2.001-1.281-4.461-2.45-6.997-2.45-7.228.072-13.058 5.879-13.09 13.036a12.439 12.439 0 0 0 1.858 6.526zM45.815 21.68c-.04.25-.06.503-.06.756 0 2.74 2.237 4.962 4.997 4.962s4.997-2.221 4.997-4.962c0-.253-.02-.506-.06-.756-.311-2.481-2.435-4.343-4.953-4.343-2.518 0-4.64 1.862-4.951 4.343h.03zm18.535 0L66.833 30h-8.707l-1.714-5.688C55.262 27.587 51.392 30 46.798 30c-5.5 0-9.965-3.457-9.965-7.707v-.598c.389-3.971 4.685-7.11 9.904-7.11a11.38 11.38 0 0 1 7.504 2.594l-2.347-7.873H41.9s1.676-.999 9.035-3.654c7.36-2.655 9.713 3.654 9.713 3.654L64.35 21.68zM91.833 21.68V30H82.75V11.732c.007-1.174-.846-2.185-2.024-2.4-1.18-.216-2.346.425-2.773 1.523v19.13h-8.921V9.305h-5.199s7.238-4.29 9.748-4.29c2.312.02 4.215 1.787 4.357 4.047C81.437 7.216 84.889 5 87.292 5c2.458-.001 4.47 1.913 4.541 4.32v12.36zM104.395 21.407l1.209 3.99a3.134 3.134 0 0 0 3.156 3.075 3.193 3.193 0 0 0 3.193-3.193 3.09 3.09 0 0 0 0-.369l-1.025-3.503-3.628-12.3a3.193 3.193 0 0 0-3.17-2.83 3.687 3.687 0 0 0-3.378 3.067l3.643 12.063zm13.812 0a12.5 12.5 0 1 1-23.745-7.818 12.5 12.5 0 0 1 23.745 7.818zM132.34 21.68V30h-8.659V9.304h-4.848s6.822-4.289 9.26-4.289c2.248.016 4.099 1.785 4.233 4.047C135.726 7.216 139.08 5 141.42 5c2.388-.001 4.343 1.913 4.412 4.32v20.65h-8.832V11.732a2.423 2.423 0 0 0-1.967-2.4 2.406 2.406 0 0 0-2.693 1.523v10.824z"/>
    </g>
</svg>
