<svg xmlns="http://www.w3.org/2000/svg" width="158" height="82" viewBox="0 0 158 82">
    <g fill="#7C8084" fill-rule="nonzero">
        <path d="M47.115 71.041c-.133-1.226-.325-2.27-1.42-2.27-1.33 0-1.655 1.471-1.655 3.954 0 .934 0 3.488 1.656 3.488 1.205 0 1.338-1.384 1.42-2.278l1.87.198C48.83 75.422 48.504 78 45.547 78 42.591 78 42 74.75 42 72.536c0-2.444.606-5.536 3.696-5.536 2.809 0 3.17 2.657 3.304 3.788l-1.885.253zM51 65h2v13h-2zM61 72.397C61 74.836 60.51 78 57.5 78c-2.765 0-3.5-2.778-3.5-5.524 0-2.525.595-5.476 3.5-5.476 2.793.032 3.5 2.84 3.5 5.397zm-5.061.127c0 2.738.525 3.835 1.554 3.835s1.554-1.058 1.554-3.851c0-2.794-.504-3.843-1.554-3.843s-1.554 1.318-1.554 3.859zM64.781 67v6.822c0 1.508 0 2.433 1.002 2.433 1.43 0 1.43-2.068 1.43-4.056v-5.19H69v10.73h-1.646v-1.622c-.292 1.146-1.187 1.916-2.187 1.882C63 77.999 63 75.639 63 73.854v-6.846h1.781V67zM77 65v12.819h-1.72v-1.432a2.26 2.26 0 0 1-2.265 1.61c-2.54 0-3.015-3.034-3.015-4.866 0-3.25 1.295-4.96 3.086-4.96a2.079 2.079 0 0 1 2.067 1.266V65H77zm-1.847 7.25a3.236 3.236 0 0 0-.383-1.846 1.527 1.527 0 0 0-1.245-.788c-1.366 0-1.55 1.825-1.55 3.343 0 1.517.163 3.578 1.571 3.578.505 0 .972-.273 1.224-.715.31-.576.442-1.23.383-1.883V72.25zM81.336 69.963c.273-1.822 1.769-3.107 3.436-2.95.948-.074 1.875.342 2.507 1.128.571.718.571 2.011.571 3.155v3.541c-.03.97.02 1.942.15 2.903h-1.75a7.62 7.62 0 0 1-.128-1.736c-.394 1.192-1.417 1.987-2.565 1.996-1.478 0-2.55-1.08-2.55-3.013-.092-1.444.687-2.782 1.915-3.289A7.977 7.977 0 0 1 86 71.272v-.418c0-.789 0-2.248-1.35-2.248-.806.025-1.453.743-1.471 1.633l-1.843-.276zm4.636 2.65h-.558c-2.142 0-2.45 1.246-2.45 2.224 0 1.254.586 1.578 1.215 1.578.8 0 1.793-.931 1.793-3.242v-.56zM94.122 71.041c-.14-1.226-.325-2.27-1.411-2.27-1.338 0-1.663 1.471-1.663 3.954 0 .934 0 3.488 1.663 3.488 1.197 0 1.33-1.384 1.411-2.278l1.87.198c-.155 1.289-.48 3.867-3.437 3.867C89.6 78 89 74.75 89 72.536c0-2.444.614-5.536 3.696-5.536 2.809 0 3.17 2.657 3.304 3.788l-1.878.253zM103.115 71.041c-.133-1.226-.325-2.27-1.412-2.27-1.338 0-1.655 1.471-1.655 3.954 0 .934 0 3.488 1.655 3.488 1.205 0 1.338-1.384 1.412-2.278l1.87.198c-.148 1.289-.473 3.867-3.437 3.867S98 74.75 98 72.536c0-2.444.614-5.536 3.696-5.536 2.809 0 3.178 2.657 3.304 3.788l-1.885.253zM113 72.397c0 2.439-.483 5.603-3.5 5.603-2.765 0-3.5-2.778-3.5-5.524 0-2.525.595-5.476 3.5-5.476 2.8.032 3.5 2.84 3.5 5.397zm-5.061.127c0 2.738.525 3.835 1.554 3.835s1.554-1.058 1.554-3.851c0-2.794-.504-3.843-1.554-3.843s-1.554 1.318-1.554 3.859zM116.788 67v6.822c0 1.508 0 2.433.995 2.433 1.436 0 1.436-2.068 1.436-4.056v-5.19H121v10.73h-1.646v-1.622c-.292 1.146-1.187 1.916-2.187 1.882-2.167 0-2.167-2.36-2.167-4.145v-6.846h1.788V67zM123 67.302h1.64v1.616c.269-1.138 1.14-1.922 2.128-1.915.804-.05 1.557.473 1.918 1.334a7.9 7.9 0 0 1 .297 2.73V78h-1.776v-6.763c0-1.39 0-2.424-1.033-2.424-1.398 0-1.398 2.085-1.398 3.192V78H123V67.302zM135.712 69.451h-1.706v4.399c0 1.744 0 2.406 1.229 2.406.256-.005.511-.025.765-.06v1.624c-.46.114-.932.175-1.404.18-2.437 0-2.437-1.82-2.437-4.008v-4.54H131v-1.685h1.215l.14-2.602 1.672-.165v2.767h1.706l-.02 1.684zM136 67.106V65h2v2.106h-2zm1.964 1.307V78h-1.913v-9.616l1.913.03zM140 67.302h1.64v1.616c.27-1.137 1.14-1.92 2.127-1.915.804-.05 1.556.473 1.917 1.334.26.874.361 1.805.297 2.73V78h-1.775v-6.763c0-1.39 0-2.424-1.033-2.424-1.39 0-1.39 2.085-1.39 3.192V78H140V67.302zM154.86 67.549a1.52 1.52 0 0 0-.431-.06c-.55 0-.872.259-1.025 1.07.477.594.736 1.337.732 2.102a3.071 3.071 0 0 1-.935 2.281 3.027 3.027 0 0 1-2.302.846 3.856 3.856 0 0 1-1.194-.177c-.278.14-.695.317-.695.87 0 .737.468.737 2.365.855 1.897.118 3.625.214 3.625 2.633 0 2.596-2.512 3.031-4.233 3.031-1.325 0-3.764-.258-3.764-2.456a1.835 1.835 0 0 1 1.362-1.88 1.83 1.83 0 0 1-1.025-1.623 2.211 2.211 0 0 1 1.384-1.947 2.69 2.69 0 0 1-1.208-2.492c-.035-.876.3-1.726.923-2.34a3.064 3.064 0 0 1 2.343-.876 3.874 3.874 0 0 1 1.787.42c.124-.737.3-1.806 1.713-1.806.25 0 .418.044.608.059l-.03 1.49zm-6.129 10.678c0 1.055.835 1.364 2.256 1.364.813 0 2.197-.132 2.197-1.342a1.088 1.088 0 0 0-.315-.811 1.072 1.072 0 0 0-.806-.317c-.351-.044-2.13-.125-2.526-.14a1.335 1.335 0 0 0-.806 1.246zm.733-7.588c0 .295 0 1.88 1.325 1.88 1.326 0 1.318-1.644 1.318-1.88 0-.458-.073-1.918-1.267-1.918-1.193 0-1.347 1.084-1.347 1.918h-.03zM0 32h14v6.396H6.883v5.522h6.31v6.246h-6.31V62H0zM14 36h6.469c2.618 0 4.674.72 6.191 2.147 1.54 1.48 2.374 3.616 2.275 5.82a8.221 8.221 0 0 1-.86 3.657 5.885 5.885 0 0 1-2.509 2.659L30 62h-5.834l-4.558-11.841h-.087V62H14V36zm5.55 5.03v6.2c2.455-.047 3.67-.962 3.646-2.744a3.404 3.404 0 0 0-.853-2.596 4.331 4.331 0 0 0-2.793-.86zM31 36h10.964v5.533h-5.546v4.79h4.807v5.401h-4.807v4.727H42V62H31zM54 36h5.537v9.64h4.919V36H70v26h-5.544V51.19h-4.919V62H54zM72 32h7.006c4.066 0 6.998.787 8.797 2.362a7.738 7.738 0 0 1 2.712 6.073c0 2.638-1.296 4.76-3.889 6.364 2.913 1.147 4.369 3.336 4.369 6.565a7.879 7.879 0 0 1-2.743 6.259C86.424 61.208 84.012 62 81.014 62h-8.992L72 32zm6.834 5.753v6.468c3.217-.075 4.823-1.13 4.818-3.167a2.744 2.744 0 0 0-1.154-2.541 7.415 7.415 0 0 0-3.664-.76zm0 11.922v6.55a8.56 8.56 0 0 0 3.971-.805 2.656 2.656 0 0 0 1.326-2.51c0-2.162-1.573-3.235-4.72-3.235h-.577zM100.58 61.991c-2.84.131-5.546-1.173-7.127-3.435-1.64-2.286-2.458-5.586-2.453-9.902 0-3.982.82-7.084 2.46-9.305 1.535-2.175 4.134-3.438 6.875-3.34 2.84-.13 5.55 1.145 7.174 3.377C109.162 41.592 110 44.8 110 48.949c0 4.148-.823 7.356-2.453 9.636-1.533 2.23-4.18 3.524-6.966 3.406zm-.215-20.399c-2.106 0-3.16 2.372-3.16 7.114 0 3.06.262 5.098.77 6.12.37.913 1.283 1.518 2.306 1.53 1.099.029 2.11-.57 2.576-1.523.584-1.022.876-3.03.876-6.01 0-4.82-1.122-7.23-3.368-7.23z"/>
        <path d="M118.561 61.991c-2.835.131-5.535-1.173-7.113-3.435C109.816 56.27 109 52.97 109 48.654c0-3.982.819-7.084 2.456-9.305 1.53-2.175 4.125-3.438 6.86-3.34 2.833-.13 5.538 1.145 7.16 3.377 1.682 2.211 2.524 5.399 2.524 9.563 0 4.163-.816 7.375-2.448 9.636-1.538 2.24-4.196 3.535-6.99 3.406zm-.207-20.399c-2.108 0-3.164 2.372-3.169 7.114 0 3.06.256 5.1.767 6.12.373.91 1.283 1.514 2.302 1.53 1.099.034 2.112-.565 2.571-1.523.591-1.022.883-3.03.883-6.01 0-4.82-1.118-7.23-3.354-7.23zM128 36h5.644v12.229h.09L139.073 36H145l-5.778 13.283L144.755 62h-6.2l-4.814-10.81h-.097V62H128z"/>
        <path d="M144.912 60.914v-5.747a8.863 8.863 0 0 0 4.304 1.55 2.16 2.16 0 0 0 1.597-.58c.396-.405.609-.966.586-1.543a2.35 2.35 0 0 0-.473-1.39 9.187 9.187 0 0 0-1.626-1.565 18.63 18.63 0 0 1-4.042-4.152 7.61 7.61 0 0 1-1.251-4.255c-.085-1.942.619-3.832 1.94-5.206 1.323-1.375 3.14-2.108 5.007-2.019 1.558.008 3.096.356 4.516 1.022v5.512a8.629 8.629 0 0 0-3.894-1.36 2.313 2.313 0 0 0-1.576.507c-.387.35-.598.865-.572 1.397 0 1.038.892 2.2 2.678 3.483a16.696 16.696 0 0 1 3.244 3.227 7.532 7.532 0 0 1 1.647 4.814c.06 1.999-.713 3.928-2.12 5.291a7.465 7.465 0 0 1-5.45 2.095 10 10 0 0 1-4.515-1.08zM55.617 53.47l-5.678-8.165c-5.679-8.166 6.487-13.407 6.487-13.407L55.529 31s-19.78 4.083-11.506 15.953l5.634 8.492c2.113 3.192-1.053 5.025-3.01 5.025h-3.566V62h2.773c4.7.022 14.827-1.01 9.763-8.53zM124 20.64c.2-.21.41-.42.61-.64-.2.22-.41.43-.61.64zM129.24 18l-.24.14.24-.14zM128.12 18l-.12.07.12-.07zM123 21.4c.12-.14.23-.27.36-.4-.13.13-.24.26-.36.4zM123 21.4c.12-.13.24-.27.37-.4-.13.13-.25.27-.37.4zM124 19.56l.55-.56-.55.56zM131.22 17l-.22.11.22-.11zM123 22.32l.28-.32-.28.32zM126 18.59l.67-.59-.67.59zM127 17.55l.66-.55-.66.55zM125 18.68l.74-.68-.74.68zM131.14 17l-.14.07.14-.07zM124 18.51l.53-.51-.53.51zM127.21 18l-.21.14.21-.14zM127.2 18l-.2.13.2-.13zM124.14 20l-.14.11.14-.11zM123.18 22l-.18.17.18-.17zM125.21 19l-.21.15.21-.15zM124.17 21l-.17.14.17-.14zM124.19 21l-.19.16.19-.16zM122 23.07l.06-.07-.06.07zM123.16 22zM127 16.66l.84-.66-.84.66zM122 22.22l.19-.22-.19.22zM123.14 23l-.14.14.14-.14zM122.17 23l-.17.16.17-.16zM126.07 18H126h.07zM133 13.27zM133 13.31l.9-.31-.9.31zM134.23 15l-.23.05.23-.05zM133 14.31l.76-.31-.76.31zM132 14.44l1-.44-1 .44zM133.2 16l-.2.06.2-.06zM136 13.14l1-.14-1 .14zM122 24.1l.1-.1zM135 13.15c.26-.05.51-.11.77-.15-.26.04-.51.1-.77.15zM131 15.43zM135.27 15H135h.27zM129 16.51l.75-.51-.75.51zM130 15.58l.91-.58-.91.58zM132.09 16H132h.09zM128 16.53c.24-.18.48-.36.73-.53-.25.17-.49.35-.73.53zM131 15.44zM132.24 16l-.24.1.24-.1zM133.26 16l-.26.09.26-.09z"/>
        <path d="M138.052 5.421c-15.772-.507-19.101 16.373-19.715 20.913a58.634 58.634 0 0 0-4.088 5.399c-.73 1.102-1.249.999-1.249.999s.219 1.674 2.672 1.175a39.975 39.975 0 0 1 3.461-6.361C158.153 31.63 158 0 158 0s-4.848 5.876-19.948 5.421zm-1.752 9.836l-.73.095h-.198l-.54.103-.168.037-.672.169-.146.044-.547.161-.19.066-.548.228h-.066l-.657.272-.175.073-.511.228-.16.08-.636.317-.102.051-.526.287-.175.103-.526.3-.088.052-.598.375-.146.095-.453.301-.153.103-.563.39h-.05l-.497.367-.154.11-.423.33-.102.081-.54.492-.125.103-.372.309-.139.117-.445.382-.416.368-.132.124-.3.28a.783.783 0 0 0-.116.102l-.365.346-.102.103-.256.25-.124.117-.248.25-.073.073c-1.037 1.05-1.636 1.77-1.636 1.77s.694-1.043 1.899-2.534l.043-.051a3.59 3.59 0 0 0 .212-.257l.139-.162c.066-.088.139-.169.204-.25l.205-.235.285-.323c.087-.103.167-.198.262-.294.057-.072.118-.14.183-.206.088-.095.175-.198.27-.293.095-.096.11-.125.168-.191.058-.066.3-.309.445-.47l.095-.089.402-.411c.051-.051.11-.103.16-.162l.388-.374.138-.132.54-.5.08-.073.49-.434.153-.132.482-.404.117-.095.614-.485.094-.074c.176-.132.35-.264.533-.389l.161-.125.548-.375.102-.073.664-.426.132-.073c.182-.11.365-.22.555-.324l.182-.103c.197-.11.402-.22.606-.315l.08-.052.73-.323.169-.073.555-.228.204-.081.657-.228h.066c.241-.073.482-.14.73-.198l.197-.051c.19-.037.373-.081.563-.11l.211-.045.73-.103a29.492 29.492 0 0 0 14.604-5.398 23.943 23.943 0 0 1-15.158 7.72zM126.68 18l-.68.5.68-.5zM125.58 19l-.58.45.58-.45zM136 15l-1 .13 1-.13z"/>
        <path d="M133.75 16l-.75.22.75-.22zM129.72 18l-.72.41.72-.41zM132.9 16l-.9.37.9-.37zM134.74 15l-.74.14.74-.14zM127.62 18l-.62.41.62-.41zM130.72 17l-.72.39.72-.39zM128.82 18l-.82.51.82-.51zM131.87 17l-.87.43.87-.43zM133.92 16l-.92.23.92-.23zM131.7 16l-.7.31.7-.31zM132.8 16l-.8.27.8-.27zM126.77 18l-.77.53.77-.53zM123.5 22l-.5.47.5-.47zM130 16.1l.14-.1-.14.1zM129 16.17l.22-.17-.22.17zM131 15.1l.18-.1-.18.1zM131 15.14l.25-.14-.25.14zM128 16.1l.13-.1-.13.1zM126 18.18l.21-.18-.21.18zM127 17.13l.16-.13-.16.13zM134 13.07l.27-.07-.27.07zM136 13.06l.29-.06-.29.06zM126 18.1l.11-.1-.11.1zM133 14.11l.28-.11-.28.11zM133 13h.09-.09zM133 14.1l.23-.1-.23.1zM132 15.07l.11-.07-.11.07zM123 22.34l.28-.34c-.09.11-.19.22-.28.34zM122.35 23l-.35.34.35-.34zM123.41 22l-.41.38.41-.38zM122.34 24l-.34.34.34-.34zM124.51 21l-.51.42.51-.42zM122 22.35c.1-.11.2-.23.29-.35-.07.12-.17.24-.29.35zM124 18.18l.19-.18-.19.18zM124.61 21l-.61.52.61-.52zM123.57 22l-.57.5.57-.5zM124 19.12l.13-.12-.13.12zM124 19.22c.07-.07.15-.14.22-.22-.12.08-.22.15-.22.22zM124 20.26c.07-.09.15-.17.23-.26-.08.14-.16.14-.23.26zM124.71 20l-.71.57.71-.57zM123 21.28zM123 22.44l.39-.44-.39.44z"/>
    </g>
</svg>
