<?xml version="1.0" encoding="UTF-8"?>
<svg width="224px" height="158px" viewBox="0 0 224 158" version="1.1" xmlns="http://www.w3.org/2000/svg" xmlns:xlink="http://www.w3.org/1999/xlink">
    <!-- Generator: Sketch 54.1 (76490) - https://sketchapp.com -->
    <title>Group 12</title>
    <desc>Created with Sketch.</desc>
    <defs>
        <polygon id="path-1" points="0.343148974 0.12193812 175.910391 0.12193812 175.910391 79.3932696 0.343148974 79.3932696"></polygon>
        <polygon id="path-3" points="0 0.0451874842 14.026687 0.0451874842 14.026687 13.5838368 0 13.5838368"></polygon>
    </defs>
    <g id="Page-2" stroke="none" stroke-width="1" fill="none" fill-rule="evenodd">
        <g id="Group-12" transform="translate(113.159978, 97.170189) rotate(-3.000000) translate(-113.159978, -97.170189) translate(2.159978, -4.329811)">
            <g id="Group-11" transform="translate(140.317398, 104.137753) rotate(-120.000000) translate(-140.317398, -104.137753) translate(50.817398, 61.637753)">
                <g id="arrow" transform="translate(89.263660, 42.052992) rotate(-361.000000) translate(-89.263660, -42.052992) translate(0.763660, 1.552992)">
                    <g id="Group-3" transform="translate(0.905589, 0.000000)">
                        <mask id="mask-2" fill="white">
                            <use xlink:href="#path-1"></use>
                        </mask>
                        <g id="Clip-2"></g>
                        <path d="M1.04696684,77.3682012 C2.15353276,76.4589461 0.055568228,79.1204616 0.841585132,79.3931421 C0.937557892,79.405624 1.53834737,78.5002094 2.51535007,77.2635457 C3.47699712,76.0153602 4.5403753,74.7306893 4.77262938,74.3898386 C12.059841,64.2939383 20.600457,53.9647234 29.8474324,46.3095058 C37.8659565,39.6864416 47.8327276,32.9798449 57.8714783,27.2161084 C60.9013383,25.5454602 63.9542318,23.7931998 67.1760374,22.2723338 C70.3364203,20.6295296 73.6618765,19.239243 76.9767756,17.772145 C83.6881507,15.0318978 90.5991492,12.4932806 97.6473886,10.5384301 C111.70068,6.47318594 126.030373,4.03634382 139.212231,2.7334302 C141.15568,2.46747068 143.387046,2.40314112 145.773889,2.30712685 C148.162651,2.234156 150.704969,2.0901346 153.294314,2.07093175 C158.475884,2.12854031 163.824446,1.95571463 168.446494,1.89810607 C170.019487,1.84433808 171.238341,1.84337793 172.341068,1.69839639 C172.980247,1.61582412 173.60503,1.45259986 174.221175,1.26921261 C174.619462,1.15015492 175.028306,1.07430365 175.424673,0.942764099 C175.57727,0.891876536 176.151187,0.723851567 175.797047,0.555826598 C175.354613,0.344595208 174.667448,0.403163912 174.192383,0.382040773 C173.243212,0.340754638 172.292122,0.331153211 171.341992,0.318671356 C170.018527,0.300428645 168.695063,0.285066362 167.372558,0.241859941 C166.093242,0.199613663 164.868629,0.160247813 163.685285,0.121842106 C162.500981,0.128563105 161.357946,0.135284104 160.243702,0.14104496 C158.016174,0.146805816 155.903814,0.151606529 153.80393,0.156407243 C152.753028,0.14104496 151.705965,0.174649954 150.650265,0.235138943 C149.594564,0.283146077 148.528307,0.333073496 147.439976,0.383000915 C145.264274,0.500138323 142.993558,0.56350774 140.537615,0.757456561 C127.602406,1.74448324 114.16814,3.99505768 100.561122,7.69448743 C87.2324247,11.3228666 74.1916461,16.3031267 61.9935083,22.6314271 C55.9021172,25.81334 50.033383,29.3255419 44.378668,33.0614571 C38.7776977,36.8751438 33.407062,40.9192648 28.3358614,45.1967004 C23.2809761,49.4482122 18.6157403,54.0876216 14.2633756,59.1734974 C12.0300895,61.8561361 9.31885902,64.7778502 6.98288204,67.7802164 C4.6238716,70.758579 2.5652559,73.7523039 1.42605924,76.2784393 C0.779202838,77.6917693 -0.431973393,79.1079798 1.04696684,77.3682012" id="Fill-1" fill="#2E2E30" mask="url(#mask-2)"></path>
                    </g>
                    <g id="Group-6" transform="translate(0.000000, 66.108006)">
                        <mask id="mask-4" fill="white">
                            <use xlink:href="#path-3"></use>
                        </mask>
                        <g id="Clip-5"></g>
                        <path d="M1.03068116,0.0457969355 C0.964995766,0.0477374836 0.901242292,0.054529402 0.841352665,0.0661726907 C0.666513592,0.101102557 0.534176835,0.235000377 0.393146423,0.332998056 C0.172907149,0.486301357 0.0734130913,0.788056589 0.0627875123,0.841421662 C-0.246320241,2.43364139 0.694526482,3.91719042 0.527415103,5.42305576 C0.383486806,6.73098519 0.160349647,8.25334518 0.445308356,9.64277763 C0.593100501,10.422878 0.744756492,11.2243243 0.899310368,12.0412951 L1.07801329,12.986342 C1.161086,13.4249059 1.61219012,13.6888204 2.03334944,13.5442496 L2.89208941,13.2492863 C5.3127895,12.419702 7.74508113,11.605642 10.0006018,10.3801859 C10.7366646,9.97946273 11.5905748,9.8795245 12.368174,9.58844228 C12.9863895,9.35751706 13.528294,8.92380455 13.8731423,8.35716451 C14.1619649,7.88367077 14.0711645,7.08804604 13.3611826,7.14044084 C12.9390573,7.17245988 12.5671621,7.40629593 12.1875391,7.57415334 C11.4398847,7.90404652 10.6458642,8.09422024 9.88758424,8.39888629 C8.43670973,8.98008045 2.59843705,11.5212282 2.59843705,11.5212282 C2.23233755,9.21100568 2.26518025,7.10648125 2.35694662,4.8156642 C2.38689143,4.071464 2.22074601,3.34278818 2.0797156,2.61217182 C1.99181308,2.15517273 2.04204309,1.68264927 2.00340462,1.22176909 C1.97056192,0.826867551 1.84595286,0.230149006 1.4083722,0.0923700902 C1.29438871,0.0564699501 1.16012003,0.0419158393 1.03068116,0.0457969355" id="Fill-4" fill="#2E2E30" mask="url(#mask-4)"></path>
                    </g>
                </g>
            </g>
            <path d="M4.59570312,26.8300781 C5.99414762,26.6074208 6.86327955,26.4492192 7.203125,26.3554688 C8.35156824,26.0390609 8.92578125,25.6464867 8.92578125,25.1777344 L8.92578125,25.1542969 C8.92578125,24.6621069 8.35547445,24.2050802 7.21484375,23.7832031 C7.11718701,23.751953 6.32422619,23.5625017 4.8359375,23.2148438 L4.56054688,23.25 C4.55664061,23.9375034 4.5546875,24.4628888 4.5546875,24.8261719 C4.5546875,25.8964897 4.56835924,26.5644518 4.59570312,26.8300781 Z M7.87695312,22.359375 C9.01758383,22.8125023 9.78906049,23.2734352 10.1914062,23.7421875 C10.4882827,24.0898455 10.6367188,24.4785135 10.6367188,24.9082031 C10.6367188,25.2949238 10.5195324,25.7128884 10.2851562,26.1621094 C9.88671676,26.9355507 9.11133389,27.5039044 7.95898438,27.8671875 C7.56445115,27.9921881 7.05078441,28.1152338 6.41796875,28.2363281 C5.46483898,28.4199228 4.96484398,28.515625 4.91796875,28.5234375 C4.72656154,28.5664065 4.63085938,28.8007791 4.63085938,29.2265625 C4.63085938,29.4414073 4.65429664,29.7031235 4.70117188,30.0117188 C4.72851576,30.1992197 4.79687445,30.5644504 4.90625,31.1074219 C4.98437539,31.5136739 5.0234375,31.7812494 5.0234375,31.9101562 L5.0234375,32.0449219 C5.0234375,32.6347686 4.94921949,33.0214835 4.80078125,33.2050781 C4.70703078,33.3183599 4.59375066,33.375 4.4609375,33.375 C4.30468672,33.375 4.1210948,33.2988289 3.91015625,33.1464844 C3.48437287,32.8964831 3.23437537,32.654298 3.16015625,32.4199219 C3.10546848,32.2441397 3.078125,31.8320345 3.078125,31.1835938 C3.078125,30.9999991 3.08007811,30.8007823 3.08398438,30.5859375 C3.08789064,30.4687494 3.08984375,30.3574224 3.08984375,30.2519531 C3.08984375,29.5175745 3.02929748,29.0429698 2.90820312,28.828125 C2.88085924,28.7773435 2.76562602,28.6894537 2.5625,28.5644531 C2.38671787,28.4550776 2.28710949,28.3281257 2.26367188,28.1835938 C2.25976561,28.1562499 2.2578125,28.1289064 2.2578125,28.1015625 C2.2578125,27.9726556 2.31835877,27.8515631 2.43945312,27.7382812 L2.85546875,27.4335938 C2.80468725,26.2851505 2.77343756,25.4140655 2.76171875,24.8203125 C2.76171875,24.7539059 2.77343738,24.5957044 2.796875,24.3457031 C2.82812516,24.0761705 2.84570311,23.8691413 2.84960938,23.7246094 L2.84960938,23.6542969 C2.86914072,23.5332025 2.87890625,23.4277348 2.87890625,23.3378906 C2.87890625,23.0957019 2.80078203,22.9746094 2.64453125,22.9746094 L2.56835938,22.9746094 C2.31054559,22.9746094 2.1367192,22.8847665 2.046875,22.7050781 C2.01562484,22.6425778 2,22.5761722 2,22.5058594 C2,22.3339835 2.09765527,22.1406261 2.29296875,21.9257812 C2.39062549,21.820312 2.55273324,21.7187505 2.77929688,21.6210938 C3.02148559,21.5156245 3.18749955,21.4238285 3.27734375,21.3457031 C3.54687635,21.1152332 3.82421732,21 4.109375,21 C4.14453143,21 4.17968732,21.0019531 4.21484375,21.0058594 C4.42187604,21.0058594 4.57617137,21.0859367 4.67773438,21.2460938 C4.79882873,21.4335947 4.96288959,21.550781 5.16992188,21.5976562 C6.43945947,21.8945327 7.3417942,22.1484364 7.87695312,22.359375 Z M12.9507895,31.2304688 C12.9937584,31.4609387 13.0152426,31.6699209 13.0152426,31.8574219 C13.0152426,32.2324237 12.9312591,32.5195303 12.7632895,32.71875 C12.6578202,32.8437506 12.525009,32.90625 12.364852,32.90625 C12.2046949,32.90625 12.021103,32.8398444 11.8140707,32.7070312 C11.368756,32.4257798 11.0972743,31.3222753 10.9996176,29.3964844 C10.9839925,29.0878891 10.9703208,28.8847661 10.958602,28.7871094 C10.9039142,28.1425749 10.8765707,27.4863315 10.8765707,26.8183594 L10.8765707,26.4609375 C10.8765707,24.9531175 10.9507887,23.4765697 11.099227,22.03125 L11.1050863,21.984375 L11.146102,21.9609375 C11.4234471,21.7890616 11.7007881,21.703125 11.9781332,21.703125 C12.1265715,21.703125 12.2496171,21.7558588 12.3472738,21.8613281 C12.58165,22.1191419 12.6988363,22.7617136 12.6988363,23.7890625 C12.6988363,24.3203152 12.6675867,24.9531213 12.6050863,25.6875 C12.585555,25.9257824 12.5738364,26.0722654 12.5699301,26.1269531 C12.554305,26.4238296 12.5464926,26.7226547 12.5464926,27.0234375 C12.5464926,28.3632879 12.6812569,29.7656177 12.9507895,31.2304688 Z M17.7199383,28.3945312 C17.6965007,28.3789062 17.6691572,28.3710938 17.6379071,28.3710938 C17.5090002,28.3710938 17.3312676,28.4941394 17.1047039,28.7402344 C16.81564,29.0605485 16.5265804,29.4882786 16.2375164,30.0234375 C15.9718901,30.52344 15.8175948,30.9003894 15.7746258,31.1542969 C16.1769716,31.0410151 16.5988424,30.6621126 17.0402508,30.0175781 C17.4738467,29.3886687 17.700407,28.8476585 17.7199383,28.3945312 Z M20.6379071,31.1835938 C20.9191585,31.5742207 21.0597821,31.8964831 21.0597821,32.1503906 C21.0246256,32.3417978 20.9035331,32.511718 20.6965008,32.6601562 C20.4933748,32.8085945 20.2785332,32.8828125 20.0519696,32.8828125 C19.8644686,32.8828125 19.7082202,32.8242193 19.5832196,32.7070312 C19.3254058,32.4726551 19.08908,32.0156284 18.8742352,31.3359375 C18.7101719,30.8046848 18.5500172,30.4394541 18.3937664,30.2402344 L18.2355633,30.4863281 C17.8136862,31.1543002 17.4679865,31.6367173 17.1984539,31.9335938 C16.7336079,32.4414088 16.2472846,32.7499995 15.7394696,32.859375 C15.5910313,32.8906252 15.4484546,32.90625 15.3117352,32.90625 C14.9132957,32.90625 14.5910333,32.7792981 14.3449383,32.5253906 C14.0949371,32.2714831 13.9582197,31.9257834 13.9347821,31.4882812 C13.9347821,30.6054643 14.4953233,29.5214908 15.6164227,28.2363281 C17.0539299,27.0683535 18.1398565,26.484375 18.8742352,26.484375 L18.9328289,26.484375 C19.2297054,26.484375 19.462125,26.7656222 19.6300946,27.328125 C19.7277513,27.6445328 19.8195473,28.1445278 19.9054852,28.828125 C19.9328291,29.0664074 19.9523601,29.2128904 19.9640789,29.2675781 C19.9757978,29.3105471 19.9972819,29.4121086 20.0285321,29.5722656 C20.1340014,30.1074246 20.239469,30.4921863 20.3449383,30.7265625 C20.3918136,30.8281255 20.4894688,30.9804677 20.6379071,31.1835938 Z M23.4148684,30.4863281 C23.5515879,30.8925802 23.8406475,31.0957031 24.2820559,31.0957031 C24.3523688,31.0957031 24.4265868,31.0898438 24.5047122,31.078125 C24.8719015,31.0312498 25.4441614,30.8300799 26.221509,30.4746094 C27.0340131,30.10742 27.569164,29.9003909 27.8269778,29.8535156 C27.9090095,29.8378905 27.9832275,29.8300781 28.049634,29.8300781 C28.3855732,29.8300781 28.5633058,30.0117169 28.5828372,30.375 C28.4617428,31.1210975 27.4734714,31.8476527 25.6179934,32.5546875 C25.0008028,32.7890637 24.4539333,32.90625 23.9773684,32.90625 C23.2312709,32.90625 22.6531517,32.6210966 22.2429934,32.0507812 C21.9500232,31.6445292 21.7957279,31.1328156 21.7801028,30.515625 L21.7801028,30.375 C21.7801028,29.8398411 21.8816643,29.3085964 22.0847903,28.78125 C22.3113539,28.1953096 22.6199446,27.7246112 23.0105715,27.3691406 C23.4246361,26.998045 23.8718973,26.8125 24.3523684,26.8125 L24.393384,26.8125 C24.8386988,26.8125 25.1297115,26.998045 25.2664309,27.3691406 C25.3015873,27.4667974 25.3191653,27.5585933 25.3191653,27.6445312 C25.3191653,27.9062513 25.16487,28.1269522 24.8562747,28.3066406 C24.2195527,28.689455 23.8308847,28.9531243 23.690259,29.0976562 C23.4441641,29.3515638 23.3211184,29.6425765 23.3211184,29.9707031 C23.3211184,30.1308602 23.3523681,30.3027335 23.4148684,30.4863281 Z M29.1859704,29.8300781 C29.4359716,29.8300781 29.6410477,29.7421884 29.8012048,29.5664062 C29.949643,29.4062492 30.0355797,29.2070324 30.0590173,28.96875 C30.0629235,28.9296873 30.0648766,28.8906252 30.0648766,28.8515625 C30.0648766,28.6640616 30.0180021,28.4980476 29.9242516,28.3535156 C29.799251,28.1582021 29.6156591,28.044922 29.3734704,28.0136719 C29.3422202,28.0097656 29.3129237,28.0078125 29.2855798,28.0078125 C29.129329,28.0078125 29.0082365,28.072265 28.9222985,28.2011719 C28.8324543,28.333985 28.7875329,28.517577 28.7875329,28.7519531 C28.7875329,29.2753932 28.9203441,29.6347646 29.1859704,29.8300781 Z M33.8500329,29.34375 C34.1351906,29.1328114 34.3500322,29.0273438 34.4945641,29.0273438 C34.6390961,29.0273438 34.711361,29.1367177 34.711361,29.3554688 C34.6176106,30.0156283 34.2484736,30.7089807 33.6039391,31.4355469 C32.9750298,32.1386754 32.3363643,32.6035145 31.6879235,32.8300781 C31.4535473,32.8808596 31.2211278,32.90625 30.9906579,32.90625 C29.8461209,32.90625 28.791444,32.257819 27.8265954,30.9609375 C27.4984688,30.519529 27.3344079,29.9140663 27.3344079,29.1445312 C27.3344079,28.8203109 27.3637045,28.4648457 27.4222985,28.078125 C27.5277678,27.382809 28.0824498,26.9238292 29.086361,26.7011719 C29.2230805,26.6699217 29.3578447,26.6542969 29.4906579,26.6542969 C29.853941,26.6542969 30.1937813,26.7714832 30.5101891,27.0058594 C30.8695659,27.2714857 31.1762035,27.6679661 31.430111,28.1953125 C31.4965176,28.4335949 31.5297204,28.656249 31.5297204,28.8632812 C31.5297204,29.4765656 31.2426139,29.9707013 30.6683923,30.3457031 C30.5746418,30.4082034 30.4496431,30.4667966 30.2933923,30.5214844 C30.1176101,30.5839847 30.0121424,30.6230468 29.976986,30.6386719 C29.8949544,30.6816408 29.8539391,30.7363278 29.8539391,30.8027344 L29.8539391,30.8144531 C29.8617517,30.8964848 29.9301104,31.0078118 30.0590173,31.1484375 C30.3324561,31.445314 30.6469061,31.59375 31.0023766,31.59375 C31.1039397,31.59375 31.2094073,31.5820314 31.3187829,31.5585938 C31.7758164,31.4570307 32.2328431,31.1367214 32.6898766,30.5976562 C33.303161,29.8828089 33.6898758,29.4648444 33.8500329,29.34375 Z M42.7203618,26.8300781 C44.1188063,26.6074208 44.9879383,26.4492192 45.3277837,26.3554688 C46.476227,26.0390609 47.05044,25.6464867 47.05044,25.1777344 L47.05044,25.1542969 C47.05044,24.6621069 46.4801332,24.2050802 45.3395025,23.7832031 C45.2418457,23.751953 44.4488849,23.5625017 42.9605962,23.2148438 L42.6852056,23.25 C42.6812993,23.9375034 42.6793462,24.4628888 42.6793462,24.8261719 C42.6793462,25.8964897 42.693018,26.5644518 42.7203618,26.8300781 Z M46.0016118,22.359375 C47.1422425,22.8125023 47.9137192,23.2734352 48.316065,23.7421875 C48.6129415,24.0898455 48.7613775,24.4785135 48.7613775,24.9082031 C48.7613775,25.2949238 48.6441911,25.7128884 48.409815,26.1621094 C48.0113755,26.9355507 47.2359926,27.5039044 46.0836431,27.8671875 C45.6891099,27.9921881 45.1754431,28.1152338 44.5426275,28.2363281 C43.5894977,28.4199228 43.0895027,28.515625 43.0426275,28.5234375 C42.8512203,28.5664065 42.7555181,28.8007791 42.7555181,29.2265625 C42.7555181,29.4414073 42.7789554,29.7031235 42.8258306,30.0117188 C42.8531745,30.1992197 42.9215332,30.5644504 43.0309087,31.1074219 C43.1090341,31.5136739 43.1480962,31.7812494 43.1480962,31.9101562 L43.1480962,32.0449219 C43.1480962,32.6347686 43.0738782,33.0214835 42.92544,33.2050781 C42.8316895,33.3183599 42.7184094,33.375 42.5855962,33.375 C42.4293454,33.375 42.2457535,33.2988289 42.034815,33.1464844 C41.6090316,32.8964831 41.3590341,32.654298 41.284815,32.4199219 C41.2301272,32.2441397 41.2027837,31.8320345 41.2027837,31.1835938 C41.2027837,30.9999991 41.2047368,30.8007823 41.2086431,30.5859375 C41.2125494,30.4687494 41.2145025,30.3574224 41.2145025,30.2519531 C41.2145025,29.5175745 41.1539562,29.0429698 41.0328618,28.828125 C41.005518,28.7773435 40.8902847,28.6894537 40.6871587,28.5644531 C40.5113766,28.4550776 40.4117682,28.3281257 40.3883306,28.1835938 C40.3844243,28.1562499 40.3824712,28.1289064 40.3824712,28.1015625 C40.3824712,27.9726556 40.4430175,27.8515631 40.5641118,27.7382812 L40.9801275,27.4335938 C40.929346,26.2851505 40.8980963,25.4140655 40.8863775,24.8203125 C40.8863775,24.7539059 40.8980961,24.5957044 40.9215337,24.3457031 C40.9527839,24.0761705 40.9703618,23.8691413 40.9742681,23.7246094 L40.9742681,23.6542969 C40.9937994,23.5332025 41.003565,23.4277348 41.003565,23.3378906 C41.003565,23.0957019 40.9254407,22.9746094 40.76919,22.9746094 L40.6930181,22.9746094 C40.4352043,22.9746094 40.2613779,22.8847665 40.1715337,22.7050781 C40.1402836,22.6425778 40.1246587,22.5761722 40.1246587,22.5058594 C40.1246587,22.3339835 40.222314,22.1406261 40.4176275,21.9257812 C40.5152842,21.820312 40.677392,21.7187505 40.9039556,21.6210938 C41.1461443,21.5156245 41.3121583,21.4238285 41.4020025,21.3457031 C41.6715351,21.1152332 41.948876,21 42.2340337,21 C42.2691901,21 42.304346,21.0019531 42.3395025,21.0058594 C42.5465348,21.0058594 42.7008301,21.0859367 42.8023931,21.2460938 C42.9234874,21.4335947 43.0875483,21.550781 43.2945806,21.5976562 C44.5641182,21.8945327 45.4664529,22.1484364 46.0016118,22.359375 Z M49.9738857,29.0273438 C49.8449788,29.2734387 49.7805263,29.5546859 49.7805263,29.8710938 L49.7805263,29.953125 C49.7883389,30.3085955 49.8664631,30.6093738 50.0149013,30.8554688 C50.1516208,31.0859387 50.3156816,31.2011719 50.5070888,31.2011719 C50.7219336,31.2011719 50.950447,31.0566421 51.1926357,30.7675781 C51.4426369,30.4707016 51.5832605,30.0898461 51.6145107,29.625 C51.618417,29.5624997 51.6203701,29.5019534 51.6203701,29.4433594 C51.6203701,29.0527324 51.5305272,28.7148452 51.3508388,28.4296875 C51.2453695,28.2656242 51.1066991,28.1835938 50.9348232,28.1835938 C50.7316972,28.1835938 50.524668,28.281249 50.3137294,28.4765625 C50.1106034,28.6601572 49.9973233,28.8437491 49.9738857,29.0273438 Z M51.0930263,26.6660156 C51.7141232,26.6660156 52.210212,26.9003883 52.5813076,27.3691406 C52.9524032,27.837893 53.1379482,28.4648398 53.1379482,29.25 C53.1379482,30.1757859 52.8996693,30.9960902 52.4231044,31.7109375 C51.8840392,32.5078165 51.1965461,32.90625 50.3606044,32.90625 C50.1965411,32.90625 50.0285741,32.8886721 49.8566982,32.8535156 C49.1965386,32.7246087 48.7180278,32.3085973 48.4211513,31.6054688 C48.2219316,31.1289039 48.1223232,30.5800812 48.1223232,29.9589844 C48.1223232,29.8027336 48.1281825,29.6425789 48.1399013,29.4785156 C48.2024016,28.6230426 48.4934143,27.9414088 49.0129482,27.4335938 C49.5285758,26.9218724 50.1867723,26.6660156 50.9875576,26.6660156 L51.0930263,26.6660156 Z M55.750847,28.6171875 L55.797722,28.6582031 C55.9813167,28.7089846 56.9109949,29.0410126 58.5867845,29.6542969 C59.2000689,29.8808605 59.6219396,30.1367173 59.8524095,30.421875 C60.0047541,30.6093759 60.0809252,30.8183582 60.0809252,31.0488281 C60.0809252,31.2519541 60.022332,31.470702 59.9051439,31.7050781 C59.776237,31.9550794 59.4520215,32.1855458 58.9324877,32.3964844 C58.4481102,32.5917979 57.8934283,32.7343746 57.2684252,32.8242188 C56.8973296,32.8789065 56.5574892,32.90625 56.2488939,32.90625 C56.0301428,32.90625 55.8250667,32.8925783 55.6336595,32.8652344 C55.1219382,32.7949215 54.8172538,32.6347669 54.719597,32.3847656 C54.6219403,32.1464832 54.5731127,31.9296885 54.5731127,31.734375 C54.5731127,31.5859368 54.6004561,31.4492194 54.6551439,31.3242188 C54.7449881,31.1132802 54.8856117,31.0078125 55.0770189,31.0078125 C55.1785819,31.0078125 55.291862,31.035156 55.4168627,31.0898438 C55.9949906,31.3359387 56.4969387,31.4589844 56.922722,31.4589844 C57.3758493,31.4589844 57.74108,31.3183608 58.0184252,31.0371094 C57.9481123,31.0371094 57.1571046,30.8027367 55.6453783,30.3339844 C54.5164664,29.9863264 53.9520189,29.5253935 53.9520189,28.9511719 C53.9403001,28.8691402 53.9344408,28.7890629 53.9344408,28.7109375 C53.9344408,28.1406221 54.2664687,27.6503927 54.9305345,27.2402344 C55.5516314,26.85742 56.1727189,26.6660156 56.7938158,26.6660156 L56.8992845,26.6660156 C57.1219419,26.6660156 57.327018,26.7226557 57.5145189,26.8359375 C57.690301,26.9414068 57.8113936,27.0722648 57.8778002,27.2285156 C57.9051441,27.2988285 57.9188158,27.3652341 57.9188158,27.4277344 C57.9188158,27.5175786 57.8934254,27.6015621 57.8426439,27.6796875 C57.7410809,27.832032 57.5516297,27.9414059 57.2742845,28.0078125 C56.5984999,28.117188 56.2586596,28.171875 56.2547533,28.171875 C55.887564,28.2617192 55.703972,28.36914 55.703972,28.4941406 C55.703972,28.5488284 55.7195969,28.5898436 55.750847,28.6171875 Z M66.5024178,26.90625 C66.5688243,27.0312506 66.6020271,27.1503901 66.6020271,27.2636719 C66.6020271,27.3535161 66.5824961,27.4374996 66.5434334,27.515625 C66.3871826,27.8359391 65.986796,28.0546869 65.3422615,28.171875 C64.943822,28.2421879 64.3364062,28.3085934 63.5199959,28.3710938 L63.2856209,28.3886719 C63.2817146,28.4160158 63.2758553,28.49414 63.2680428,28.6230469 C63.2406989,28.9511735 63.2270271,29.2070303 63.2270271,29.390625 C63.2270271,29.4687504 63.2289802,29.5332029 63.2328865,29.5839844 C63.2758555,30.0097678 63.303199,30.5449187 63.3149178,31.1894531 L63.3149178,31.453125 C63.3149178,32.3476607 63.2387467,32.8203122 63.0864021,32.8710938 C63.0785896,32.8945314 62.9770281,32.90625 62.7817146,32.90625 C62.309056,32.90625 62.0531992,32.8867189 62.0141365,32.8476562 C61.6860099,32.5273421 61.521949,31.8222711 61.521949,30.7324219 C61.521949,30.400389 61.5375739,30.0351582 61.568824,29.6367188 C61.5727303,29.5624996 61.5746834,29.4902347 61.5746834,29.4199219 C61.5746834,29.0800764 61.5102309,28.8398445 61.381324,28.6992188 C61.2680422,28.5742181 61.0180447,28.5117188 60.631324,28.5117188 L60.5258553,28.5117188 C60.463355,28.515625 60.4047618,28.5175781 60.350074,28.5175781 C60.088354,28.5175781 59.8891372,28.4941409 59.7524178,28.4472656 C59.4828852,28.3535152 59.2895277,28.1562515 59.1723396,27.8554688 L59.1723396,27.8203125 C59.1723396,27.6757805 59.2211673,27.554688 59.318824,27.4570312 C59.5375751,27.2304676 59.943821,27.1171875 60.537574,27.1171875 C60.6703872,27.1171875 60.7836673,27.1230468 60.8774178,27.1347656 C60.9516369,27.1425782 61.0199956,27.1464844 61.0824959,27.1464844 C61.2309341,27.1464844 61.3735108,27.1191409 61.5102303,27.0644531 C61.463355,26.5488255 61.4399178,26.0410181 61.4399178,25.5410156 C61.4399178,25.1542949 61.4535895,24.7734394 61.4809334,24.3984375 C61.5707776,23.2578068 61.7875723,22.4980488 62.131324,22.1191406 C62.2992936,21.9316397 62.4985104,21.8378906 62.7289803,21.8378906 L62.787574,21.8378906 C62.8813245,21.8378906 62.9633549,21.8749996 63.0336678,21.9492188 C63.1899185,22.1171883 63.2680428,22.5664026 63.2680428,23.296875 C63.2680428,23.7265646 63.2406993,24.25195 63.1860115,24.8730469 C63.1508551,25.2792989 63.131324,25.5449213 63.1274178,25.6699219 C63.1235115,25.8105476 63.1215584,25.9941395 63.1215584,26.2207031 L63.1215584,26.9179688 C63.1215584,26.9804691 63.2406978,27.0117188 63.4789803,27.0117188 C63.5297618,27.0117188 63.5864018,27.0097656 63.6489021,27.0058594 C64.0121852,26.986328 64.4633526,26.9238287 65.0024178,26.8183594 C65.0297617,26.8105468 65.0903079,26.794922 65.1840584,26.7714844 C65.5160913,26.6855464 65.769995,26.6425781 65.9457771,26.6425781 C66.2270285,26.6425781 66.4125736,26.7304679 66.5024178,26.90625 Z M67.7559416,30.4863281 C67.892661,30.8925802 68.1817207,31.0957031 68.6231291,31.0957031 C68.693442,31.0957031 68.76766,31.0898438 68.8457854,31.078125 C69.2129747,31.0312498 69.7852346,30.8300799 70.5625822,30.4746094 C71.3750863,30.10742 71.9102372,29.9003909 72.168051,29.8535156 C72.2500826,29.8378905 72.3243007,29.8300781 72.3907072,29.8300781 C72.7266464,29.8300781 72.904379,30.0117169 72.9239104,30.375 C72.802816,31.1210975 71.8145446,31.8476527 69.9590666,32.5546875 C69.341876,32.7890637 68.7950065,32.90625 68.3184416,32.90625 C67.5723441,32.90625 66.9942249,32.6210966 66.5840666,32.0507812 C66.2910964,31.6445292 66.1368011,31.1328156 66.121176,30.515625 L66.121176,30.375 C66.121176,29.8398411 66.2227375,29.3085964 66.4258635,28.78125 C66.6524271,28.1953096 66.9610178,27.7246112 67.3516447,27.3691406 C67.7657093,26.998045 68.2129705,26.8125 68.6934416,26.8125 L68.7344572,26.8125 C69.179772,26.8125 69.4707847,26.998045 69.6075041,27.3691406 C69.6426605,27.4667974 69.6602385,27.5585933 69.6602385,27.6445312 C69.6602385,27.9062513 69.5059432,28.1269522 69.1973479,28.3066406 C68.5606259,28.689455 68.1719579,28.9531243 68.0313322,29.0976562 C67.7852373,29.3515638 67.6621916,29.6425765 67.6621916,29.9707031 C67.6621916,30.1308602 67.6934413,30.3027335 67.7559416,30.4863281 Z M75.454778,28.3945312 C75.4313403,28.3789062 75.4039969,28.3710938 75.3727467,28.3710938 C75.2438398,28.3710938 75.0661072,28.4941394 74.8395436,28.7402344 C74.5504796,29.0605485 74.26142,29.4882786 73.9723561,30.0234375 C73.7067298,30.52344 73.5524344,30.9003894 73.5094655,31.1542969 C73.9118112,31.0410151 74.333682,30.6621126 74.7750905,30.0175781 C75.2086864,29.3886687 75.4352466,28.8476585 75.454778,28.3945312 Z M78.3727467,31.1835938 C78.6539981,31.5742207 78.7946217,31.8964831 78.7946217,32.1503906 C78.7594653,32.3417978 78.6383727,32.511718 78.4313405,32.6601562 C78.2282144,32.8085945 78.0133728,32.8828125 77.7868092,32.8828125 C77.5993083,32.8828125 77.4430598,32.8242193 77.3180592,32.7070312 C77.0602454,32.4726551 76.8239197,32.0156284 76.6090748,31.3359375 C76.4450115,30.8046848 76.2848569,30.4394541 76.1286061,30.2402344 L75.970403,30.4863281 C75.5485259,31.1543002 75.2028262,31.6367173 74.9332936,31.9335938 C74.4684475,32.4414088 73.9821243,32.7499995 73.4743092,32.859375 C73.325871,32.8906252 73.1832943,32.90625 73.0465748,32.90625 C72.6481353,32.90625 72.3258729,32.7792981 72.079778,32.5253906 C71.8297767,32.2714831 71.6930593,31.9257834 71.6696217,31.4882812 C71.6696217,30.6054643 72.230163,29.5214908 73.3512623,28.2363281 C74.7887695,27.0683535 75.8746962,26.484375 76.6090748,26.484375 L76.6676686,26.484375 C76.9645451,26.484375 77.1969646,26.7656222 77.3649342,27.328125 C77.462591,27.6445328 77.5543869,28.1445278 77.6403248,28.828125 C77.6676687,29.0664074 77.6871998,29.2128904 77.6989186,29.2675781 C77.7106374,29.3105471 77.7321216,29.4121086 77.7633717,29.5722656 C77.868841,30.1074246 77.9743087,30.4921863 78.079778,30.7265625 C78.1266532,30.8281255 78.2243085,30.9804677 78.3727467,31.1835938 Z M84.1907237,26.4785156 C84.4094748,26.4785156 84.6321288,26.5624992 84.8586924,26.7304688 C85.0618185,26.8828133 85.1633799,27.044921 85.1633799,27.2167969 C85.1633799,27.2597658 85.1555675,27.3046873 85.1399424,27.3515625 C84.3352509,27.7617208 83.6633826,28.3222621 83.1243174,29.0332031 C82.5305645,29.8105508 82.1204123,30.7187448 81.8938487,31.7578125 C81.7297854,32.5195351 81.4934596,32.9003906 81.1848643,32.9003906 C81.0520511,32.9003906 80.9055682,32.8281257 80.7454112,32.6835938 C80.350878,32.324217 80.0422873,31.6308645 79.8196299,30.6035156 C79.6399415,29.783199 79.5500987,28.9843789 79.5500987,28.2070312 C79.6243178,27.8906234 79.7434572,27.6738287 79.9075206,27.5566406 C79.985646,27.5058591 80.0657233,27.4804688 80.1477549,27.4804688 C80.2375991,27.4804688 80.327442,27.5078122 80.4172862,27.5625 C80.8469758,27.8281263 81.0930671,28.4472608 81.1555674,29.4199219 C81.3157245,28.8300752 81.6848614,28.214847 82.2629893,27.5742188 C82.9231489,26.8437463 83.5618144,26.4785156 84.1790049,26.4785156 L84.1907237,26.4785156 Z M89.0067475,29.6484375 C88.6122143,29.7890632 88.2430774,29.970702 87.8993257,30.1933594 C87.4735423,30.462892 87.227451,30.7148426 87.1610444,30.9492188 C87.1493256,30.9882814 87.1434663,31.0273436 87.1434663,31.0664062 C87.1434663,31.1562504 87.174716,31.240234 87.2372163,31.3183594 L87.3954194,31.3359375 C87.7391711,31.3359375 88.0848708,31.1464863 88.4325288,30.7675781 C88.7645617,30.4003888 88.955966,30.0273456 89.0067475,29.6484375 Z M91.9422944,31.0253906 C92.2626085,31.39258 92.4227632,31.7031237 92.4227632,31.9570312 C92.4227632,32.0351566 92.4071383,32.1093746 92.3758882,32.1796875 C92.1688559,32.6250022 91.9247177,32.8476562 91.6434663,32.8476562 C91.3036208,32.8476562 90.8465942,32.3906296 90.2723725,31.4765625 C90.1317468,31.2539051 90.0321385,31.103516 89.9735444,31.0253906 C89.5946363,31.8378947 88.8544093,32.3945297 87.7528413,32.6953125 C87.24112,32.8359382 86.7704216,32.90625 86.3407319,32.90625 C85.7313539,32.90625 85.4266694,32.7246112 85.4266694,32.3613281 C85.391513,32.1816397 85.373935,32.001954 85.373935,31.8222656 C85.373935,30.6894475 86.1063496,29.625005 87.5712007,28.6289062 C87.6493261,28.5781247 87.8251055,28.4980474 88.0985444,28.3886719 C88.774329,28.1191393 89.1122163,27.9023446 89.1122163,27.7382812 C89.0848724,27.4804675 89.0712007,27.0957057 89.0712007,26.5839844 C89.0712007,26.3261706 89.0751069,26.037111 89.0829194,25.7167969 C89.090732,25.3144511 89.0946382,24.9804701 89.0946382,24.7148438 C89.0946382,24.515624 89.0926851,24.3554694 89.0887788,24.234375 L89.0829194,24.1757812 C89.0751069,24.0429681 89.0712007,23.9160162 89.0712007,23.7949219 C89.0712007,23.0331993 89.188387,22.5312512 89.4227632,22.2890625 C89.5829202,22.1210929 89.7958087,22.0371094 90.061435,22.0371094 C90.104404,22.0371094 90.1473723,22.0390625 90.1903413,22.0429688 C90.3192482,22.0546876 90.4403407,22.1679677 90.5536225,22.3828125 C90.647373,22.5664072 90.7079193,22.7519522 90.7352632,22.9394531 C90.7977635,23.3496114 90.8290132,24.0546825 90.8290132,25.0546875 L90.8290132,25.4003906 C90.8290132,25.5332038 90.8270601,25.7363268 90.8231538,26.0097656 C90.8192475,26.1621101 90.8172944,26.308593 90.8172944,26.4492188 C90.8172944,27.3593796 90.8719814,28.0488258 90.9813569,28.5175781 C91.1532328,29.2793007 91.4735421,30.1152298 91.9422944,31.0253906 Z M17.3394613,45.796875 L17.3394613,45.8261719 C17.3394613,46.0097665 17.2086033,46.166015 16.9468832,46.2949219 C16.5875064,46.470704 16.2007915,46.6015621 15.786727,46.6875 L15.7808676,46.6875 L15.7808676,46.8398438 C15.7808676,47.3046898 15.8453201,47.8203097 15.974227,48.3867188 C16.1109464,48.984378 16.1871175,49.5175758 16.2027426,49.9863281 L16.2027426,50.0214844 C16.2027426,50.2675794 16.1226653,50.4707023 15.9625082,50.6308594 C15.7867261,50.814454 15.5484472,50.90625 15.2476645,50.90625 C15.1734454,50.90625 15.0953211,50.9003907 15.0132895,50.8886719 C14.7515694,50.8417966 14.5718837,50.7109386 14.474227,50.4960938 C14.4195392,50.3710931 14.3824302,50.1660171 14.3628988,49.8808594 C14.3394612,49.5292951 14.3082115,49.3164066 14.2691488,49.2421875 C14.2183673,49.132812 14.1714928,48.9062517 14.1285238,48.5625 C14.1207113,48.503906 14.1109458,48.3496106 14.099227,48.0996094 C14.056258,47.1581984 13.9937586,46.6308599 13.911727,46.5175781 C13.8570392,46.443359 13.6421976,46.40625 13.2671957,46.40625 C12.9546942,46.40625 12.450793,46.4453121 11.755477,46.5234375 C11.552351,46.5468751 11.4156336,46.5605469 11.3453207,46.5644531 C11.3531333,46.6425785 11.3687581,46.8124987 11.3921957,47.0742188 C11.4742274,47.9023479 11.5152426,48.5878879 11.5152426,49.1308594 C11.5152426,49.8222691 11.448837,50.283202 11.3160238,50.5136719 C11.187117,50.732423 10.9644629,50.8417969 10.6480551,50.8417969 C10.4527416,50.8417969 10.2652435,50.7949223 10.0855551,50.7011719 C9.89024162,50.5996089 9.76328977,50.4667977 9.70469572,50.3027344 C9.65000795,50.1582024 9.62266447,49.910158 9.62266447,49.5585938 C9.62266447,49.316405 9.63633621,49.0253923 9.6636801,48.6855469 C9.68711772,48.3730453 9.69883635,48.0937512 9.69883635,47.8476562 C9.69883635,47.1835904 9.61680592,46.7636728 9.4527426,46.5878906 C9.35508586,46.4863276 9.22227469,46.4355469 9.0543051,46.4355469 C8.94883582,46.4355469 8.82774328,46.4550779 8.69102385,46.4941406 C8.63242981,46.513672 8.57774285,46.5234375 8.52696135,46.5234375 C8.4175858,46.5234375 8.31797742,46.4863285 8.22813322,46.4121094 C8.09141379,46.3066401 8.01133647,46.156251 7.98789885,45.9609375 C7.98399258,45.9257811 7.98203947,45.8925783 7.98203947,45.8613281 C7.98203947,45.7363275 8.01133606,45.6230474 8.0699301,45.5214844 C8.15586803,45.3730461 8.2867261,45.277344 8.46250822,45.234375 C8.57969631,45.2070311 8.73008543,45.1933594 8.9136801,45.1933594 L9.13047697,45.1992188 C9.23985252,45.1992188 9.32969537,45.1933594 9.40000822,45.1816406 C9.46250854,45.1777344 9.49375822,45.0566418 9.49375822,44.8183594 C9.49375822,44.6738274 9.48203959,44.4843762 9.45860197,44.25 C9.44688317,44.1406245 9.44102385,44.0683596 9.44102385,44.0332031 L9.44102385,43.8984375 C9.42539877,43.0468707 9.38438356,42.2304727 9.31797697,41.4492188 C9.31016443,41.394531 9.30039891,41.3046881 9.2886801,41.1796875 C9.2378986,40.722654 9.21250822,40.3496108 9.21250822,40.0605469 C9.21250822,39.9628901 9.21446133,39.8750004 9.2183676,39.796875 C9.26133656,39.2382785 9.43125674,38.8750008 9.72813322,38.7070312 C9.95469686,38.5781244 10.1558667,38.5136719 10.3316488,38.5136719 C10.5191498,38.5136719 10.6793044,38.5859368 10.8121176,38.7304688 C11.0738377,39.0156264 11.2046957,39.6542919 11.2046957,40.6464844 C11.2046957,41.0292988 11.1851647,41.4667944 11.146102,41.9589844 C11.1265706,42.2246107 11.1168051,42.3886716 11.1168051,42.4511719 L11.1168051,42.6035156 C11.1168051,42.8535169 11.1089927,43.0976551 11.0933676,43.3359375 C11.0816488,43.531251 11.0757895,43.7363271 11.0757895,43.9511719 C11.0757895,44.0605474 11.0777426,44.1718744 11.0816488,44.2851562 C11.0933677,44.5976578 11.1714919,44.8164056 11.3160238,44.9414062 C11.4371182,45.0429693 11.6324288,45.09375 11.9019613,45.09375 C12.0230557,45.09375 12.2222725,45.0800783 12.4996176,45.0527344 C12.7652439,45.0253905 12.9644607,45.0097656 13.0972738,45.0058594 C13.4410256,44.9941406 13.6695389,44.9257819 13.7828207,44.8007812 C13.8765712,44.7031245 13.9234457,44.4648456 13.9234457,44.0859375 C13.9234457,44.0312497 13.9214926,43.9726566 13.9175863,43.9101562 C13.9136801,43.7929682 13.9097739,43.6992191 13.9058676,43.6289062 C13.9019613,43.4296865 13.9000082,43.2031263 13.9000082,42.9492188 C13.8921957,42.4804664 13.8648522,41.9843776 13.817977,41.4609375 C13.8140707,41.4179685 13.800399,41.3164071 13.7769613,41.15625 C13.7183673,40.6874977 13.6890707,40.2792986 13.6890707,39.9316406 C13.6890707,39.2675748 13.7945384,38.8164074 14.005477,38.578125 C14.1617278,38.3984366 14.3668038,38.3085938 14.6207113,38.3085938 C14.9175878,38.3085938 15.161726,38.4160146 15.3531332,38.6308594 C15.6968849,39.0097675 15.8687582,39.7910097 15.8687582,40.9746094 C15.8687582,41.548831 15.827743,42.2187462 15.7457113,42.984375 C15.7222737,43.2109386 15.708602,43.365234 15.7046957,43.4472656 L15.6812582,43.7167969 C15.6578206,44.0214859 15.646102,44.2519523 15.646102,44.4082031 C15.6773521,44.6777357 15.7339922,44.8535152 15.8160238,44.9355469 C15.8746179,44.9941409 16.005476,45.0429686 16.208602,45.0820312 C16.3765716,45.1171877 16.5093827,45.1484374 16.6070395,45.1757812 C17.0718855,45.316407 17.3160237,45.5234361 17.3394613,45.796875 Z M19.6945477,47.8300781 C19.9445489,47.8300781 20.149625,47.7421884 20.3097821,47.5664062 C20.4582203,47.4062492 20.544157,47.2070324 20.5675946,46.96875 C20.5715008,46.9296873 20.5734539,46.8906252 20.5734539,46.8515625 C20.5734539,46.6640616 20.5265794,46.4980476 20.4328289,46.3535156 C20.3078283,46.1582021 20.1242364,46.044922 19.8820477,46.0136719 C19.8507975,46.0097656 19.821501,46.0078125 19.7941571,46.0078125 C19.6379063,46.0078125 19.5168138,46.072265 19.4308758,46.2011719 C19.3410316,46.333985 19.2961102,46.517577 19.2961102,46.7519531 C19.2961102,47.2753932 19.4289214,47.6347646 19.6945477,47.8300781 Z M24.3586102,47.34375 C24.6437679,47.1328114 24.8586095,47.0273438 25.0031414,47.0273438 C25.1476734,47.0273438 25.2199383,47.1367177 25.2199383,47.3554688 C25.1261879,48.0156283 24.7570509,48.7089807 24.1125164,49.4355469 C23.4836071,50.1386754 22.8449416,50.6035145 22.1965008,50.8300781 C21.9621247,50.8808596 21.7297051,50.90625 21.4992352,50.90625 C20.3546982,50.90625 19.3000213,50.257819 18.3351727,48.9609375 C18.0070461,48.519529 17.8429852,47.9140663 17.8429852,47.1445312 C17.8429852,46.8203109 17.8722818,46.4648457 17.9308758,46.078125 C18.0363451,45.382809 18.5910271,44.9238292 19.5949383,44.7011719 C19.7316578,44.6699217 19.866422,44.6542969 19.9992352,44.6542969 C20.3625183,44.6542969 20.7023586,44.7714832 21.0187664,45.0058594 C21.3781432,45.2714857 21.6847808,45.6679661 21.9386883,46.1953125 C22.0050949,46.4335949 22.0382977,46.656249 22.0382977,46.8632812 C22.0382977,47.4765656 21.7511912,47.9707013 21.1769696,48.3457031 C21.0832191,48.4082034 20.9582204,48.4667966 20.8019696,48.5214844 C20.6261874,48.5839847 20.5207197,48.6230468 20.4855633,48.6386719 C20.4035317,48.6816408 20.3625164,48.7363278 20.3625164,48.8027344 L20.3625164,48.8144531 C20.370329,48.8964848 20.4386877,49.0078118 20.5675946,49.1484375 C20.8410334,49.445314 21.1554834,49.59375 21.5109539,49.59375 C21.612517,49.59375 21.7179847,49.5820314 21.8273602,49.5585938 C22.2843937,49.4570307 22.7414204,49.1367214 23.1984539,48.5976562 C23.8117383,47.8828089 24.1984531,47.4648444 24.3586102,47.34375 Z M29.6726809,44.4785156 C29.891432,44.4785156 30.114086,44.5624992 30.3406497,44.7304688 C30.5437757,44.8828133 30.6453372,45.044921 30.6453372,45.2167969 C30.6453372,45.2597658 30.6375247,45.3046873 30.6218997,45.3515625 C29.8172081,45.7617208 29.1453399,46.3222621 28.6062747,47.0332031 C28.0125217,47.8105508 27.6023696,48.7187448 27.3758059,49.7578125 C27.2117426,50.5195351 26.9754168,50.9003906 26.6668215,50.9003906 C26.5340084,50.9003906 26.3875255,50.8281257 26.2273684,50.6835938 C25.8328352,50.324217 25.5242445,49.6308645 25.3015872,48.6035156 C25.1218988,47.783199 25.0320559,46.9843789 25.0320559,46.2070312 C25.106275,45.8906234 25.2254145,45.6738287 25.3894778,45.5566406 C25.4676032,45.5058591 25.5476805,45.4804688 25.6297122,45.4804688 C25.7195564,45.4804688 25.8093992,45.5078122 25.8992434,45.5625 C26.3289331,45.8281263 26.5750244,46.4472608 26.6375247,47.4199219 C26.7976817,46.8300752 27.1668187,46.214847 27.7449465,45.5742188 C28.4051061,44.8437463 29.0437716,44.4785156 29.6609622,44.4785156 L29.6726809,44.4785156 Z M32.7367516,47.8300781 C32.9867529,47.8300781 33.191829,47.7421884 33.351986,47.5664062 C33.5004243,47.4062492 33.5863609,47.2070324 33.6097985,46.96875 C33.6137048,46.9296873 33.6156579,46.8906252 33.6156579,46.8515625 C33.6156579,46.6640616 33.5687834,46.4980476 33.4750329,46.3535156 C33.3500323,46.1582021 33.1664404,46.044922 32.9242516,46.0136719 C32.8930015,46.0097656 32.8637049,46.0078125 32.836361,46.0078125 C32.6801102,46.0078125 32.5590177,46.072265 32.4730798,46.2011719 C32.3832356,46.333985 32.3383141,46.517577 32.3383141,46.7519531 C32.3383141,47.2753932 32.4711253,47.6347646 32.7367516,47.8300781 Z M37.4008141,47.34375 C37.6859718,47.1328114 37.9008134,47.0273438 38.0453454,47.0273438 C38.1898774,47.0273438 38.2621423,47.1367177 38.2621423,47.3554688 C38.1683918,48.0156283 37.7992549,48.7089807 37.1547204,49.4355469 C36.525811,50.1386754 35.8871455,50.6035145 35.2387048,50.8300781 C35.0043286,50.8808596 34.771909,50.90625 34.5414391,50.90625 C33.3969022,50.90625 32.3422252,50.257819 31.3773766,48.9609375 C31.04925,48.519529 30.8851891,47.9140663 30.8851891,47.1445312 C30.8851891,46.8203109 30.9144857,46.4648457 30.9730798,46.078125 C31.078549,45.382809 31.633231,44.9238292 32.6371423,44.7011719 C32.7738617,44.6699217 32.908626,44.6542969 33.0414391,44.6542969 C33.4047222,44.6542969 33.7445626,44.7714832 34.0609704,45.0058594 C34.4203472,45.2714857 34.7269848,45.6679661 34.9808923,46.1953125 C35.0472989,46.4335949 35.0805016,46.656249 35.0805016,46.8632812 C35.0805016,47.4765656 34.7933951,47.9707013 34.2191735,48.3457031 C34.1254231,48.4082034 34.0004243,48.4667966 33.8441735,48.5214844 C33.6683914,48.5839847 33.5629237,48.6230468 33.5277673,48.6386719 C33.4457356,48.6816408 33.4047204,48.7363278 33.4047204,48.8027344 L33.4047204,48.8144531 C33.4125329,48.8964848 33.4808916,49.0078118 33.6097985,49.1484375 C33.8832374,49.445314 34.1976874,49.59375 34.5531579,49.59375 C34.6547209,49.59375 34.7601886,49.5820314 34.8695641,49.5585938 C35.3265977,49.4570307 35.7836244,49.1367214 36.2406579,48.5976562 C36.8539422,47.8828089 37.2406571,47.4648444 37.4008141,47.34375 Z M39.638713,49.5820312 C39.9824647,49.5820312 40.2598057,49.6777334 40.4707442,49.8691406 C40.6582452,50.0371102 40.7519942,50.2421863 40.7519942,50.484375 C40.7519942,50.7187512 40.6601983,50.9140617 40.4766036,51.0703125 C40.2773839,51.2343758 40.0098084,51.3164062 39.6738692,51.3164062 C39.5644937,51.3164062 39.4473074,51.3085938 39.3223067,51.2929688 C39.123087,51.2539061 38.9668386,51.1445321 38.8535567,50.9648438 C38.7676188,50.8203118 38.7246505,50.6640633 38.7246505,50.4960938 L38.7246505,50.4316406 C38.7363693,50.2207021 38.8105873,50.0390633 38.9473067,49.8867188 C39.1113701,49.7070304 39.3418365,49.6054689 39.638713,49.5820312 Z M40.7578536,38.6835938 C40.878948,38.8359383 40.9394942,39.0761702 40.9394942,39.4042969 C40.9394942,39.6699232 40.9004321,39.9882794 40.8223067,40.359375 C40.7871503,40.5273446 40.7637131,40.6425778 40.7519942,40.7050781 C40.6308999,41.4394568 40.5703536,42.2246052 40.5703536,43.0605469 L40.5703536,43.3710938 C40.5742599,43.621095 40.576213,43.8398428 40.576213,44.0273438 C40.576213,44.2148447 40.5742599,44.3730462 40.5703536,44.5019531 C40.5664474,44.6894541 40.5644942,44.8652336 40.5644942,45.0292969 C40.5644942,45.3964862 40.578166,45.7011707 40.6055099,45.9433594 L40.6348067,46.2421875 C40.6855882,46.6640646 40.7109786,47.023436 40.7109786,47.3203125 C40.7109786,47.5273448 40.69926,47.7050774 40.6758224,47.8535156 C40.5664468,48.4316435 40.3203555,48.7207031 39.9375411,48.7207031 C39.7383214,48.7207031 39.5527764,48.66211 39.3809005,48.5449219 C39.1973058,48.4121087 39.070354,48.2246106 39.0000411,47.9824219 C38.9101969,47.6738266 38.8652755,47.2519558 38.8652755,46.7167969 C38.8652755,46.4355455 38.8789472,46.1210955 38.9062911,45.7734375 L38.935588,45.8378906 C38.9590256,45.4433574 38.9707442,44.9785183 38.9707442,44.4433594 C38.9707442,44.1425766 38.966838,43.8222673 38.9590255,43.4824219 L38.9473067,42.8964844 C38.9473067,42.8027339 38.933635,42.5878923 38.9062911,42.2519531 C38.8398845,41.4667929 38.8066817,40.8906268 38.8066817,40.5234375 C38.8066817,40.4453121 38.810588,40.3769534 38.8184005,40.3183594 C38.8574632,39.6035121 39.0371489,39.0722674 39.357463,38.7246094 C39.5410577,38.5332022 39.7617586,38.4375 40.0195724,38.4375 L40.0898849,38.4375 C40.4141052,38.4492188 40.6367593,38.5312492 40.7578536,38.6835938 Z" id="PlacePostcardHere!" fill="#282C3B" fill-rule="nonzero" transform="translate(47.211382, 36.158203) rotate(-29.000000) translate(-47.211382, -36.158203) "></path>
        </g>
    </g>
</svg>