<?xml version="1.0" encoding="UTF-8"?>
<svg width="316px" height="76px" viewBox="0 0 316 76" version="1.1" xmlns="http://www.w3.org/2000/svg" xmlns:xlink="http://www.w3.org/1999/xlink">
    <!-- Generator: Sketch 53.2 (72643) - https://sketchapp.com -->
    <title>Group 11</title>
    <desc>Created with Sketch.</desc>
    <defs>
        <polygon id="path-1" points="0.453446859 0.161132516 232.453017 0.161132516 232.453017 104.912535 0.453446859 104.912535"></polygon>
        <polygon id="path-3" points="0 0.0597120327 18.5352649 0.0597120327 18.5352649 17.95007 0 17.95007"></polygon>
    </defs>
    <g id="Page-2" stroke="none" stroke-width="1" fill="none" fill-rule="evenodd">
        <g id="Group-11" transform="translate(158.907082, 44.500000) rotate(-345.000000) translate(-158.907082, -44.500000) translate(9.907082, -28.000000)">
            <path d="M234.960496,12.8857422 C237.058163,12.5517561 238.361861,12.3144538 238.871629,12.1738281 C240.594294,11.6992164 241.455614,11.1103551 241.455614,10.4072266 L241.455614,10.3720703 C241.455614,9.63378537 240.600153,8.94824535 238.889207,8.31542969 C238.742722,8.26855445 237.553281,7.98437761 235.320848,7.46289062 L234.907762,7.515625 C234.901903,8.54688016 234.898973,9.33495821 234.898973,9.87988281 C234.898973,11.4853596 234.919481,12.4873027 234.960496,12.8857422 Z M239.882371,6.1796875 C241.593317,6.8593784 242.750532,7.55077773 243.354051,8.25390625 C243.799366,8.77539323 244.02202,9.35839521 244.02202,10.0029297 C244.02202,10.5830107 243.84624,11.2099576 243.494676,11.8837891 C242.897017,13.0439511 241.733943,13.8964817 240.005418,14.4414062 C239.413618,14.6289072 238.643118,14.8134757 237.693895,14.9951172 C236.2642,15.2705092 235.514208,15.4140624 235.443895,15.4257812 C235.156784,15.4902347 235.013231,15.8417937 235.013231,16.4804688 C235.013231,16.802736 235.048387,17.1953102 235.1187,17.6582031 C235.159715,17.9394545 235.262253,18.4873006 235.426317,19.3017578 C235.543505,19.9111359 235.602098,20.312499 235.602098,20.5058594 L235.602098,20.7080078 C235.602098,21.5927779 235.490771,22.1728502 235.268114,22.4482422 C235.127488,22.6181649 234.957568,22.703125 234.758348,22.703125 C234.523972,22.703125 234.248584,22.5888683 233.932176,22.3603516 C233.293501,21.9853497 232.918505,21.6220721 232.807176,21.2705078 C232.725144,21.0068346 232.684129,20.3886767 232.684129,19.4160156 C232.684129,19.1406236 232.687059,18.8417985 232.692918,18.5195312 C232.698778,18.3437491 232.701707,18.1767586 232.701707,18.0185547 C232.701707,16.9169867 232.610888,16.2050797 232.429246,15.8828125 C232.388231,15.8066402 232.215381,15.6748056 231.910692,15.4873047 C231.647019,15.3232414 231.497606,15.1328136 231.46245,14.9160156 C231.45659,14.8749998 231.45366,14.8339846 231.45366,14.7929688 C231.45366,14.5996084 231.54448,14.4179696 231.726121,14.2480469 L232.350145,13.7910156 C232.273973,12.0683508 232.227098,10.7617232 232.20952,9.87109375 C232.20952,9.77148388 232.227098,9.53418156 232.262254,9.15917969 C232.309129,8.75488079 232.335496,8.44433702 232.341356,8.22753906 L232.341356,8.12207031 C232.370653,7.94042878 232.385301,7.78222724 232.385301,7.64746094 C232.385301,7.28417787 232.268115,7.10253906 232.033739,7.10253906 L231.919481,7.10253906 C231.53276,7.10253906 231.27202,6.96777479 231.137254,6.69824219 C231.090379,6.60449172 231.066942,6.50488334 231.066942,6.39941406 C231.066942,6.14160027 231.213425,5.85156411 231.506395,5.52929688 C231.65288,5.37109296 231.896042,5.21875073 232.235887,5.07226562 C232.59917,4.91406171 232.848191,4.77636777 232.982957,4.65917969 C233.387256,4.31347483 233.803268,4.140625 234.231004,4.140625 C234.283739,4.140625 234.336473,4.14355466 234.389207,4.14941406 C234.699756,4.14941406 234.931199,4.26953005 235.083543,4.50976562 C235.265185,4.79101703 235.511276,4.96679652 235.821825,5.03710938 C237.726131,5.4824241 239.079633,5.86327967 239.882371,6.1796875 Z M245.53159,10.6005859 C245.13901,10.5771483 244.843115,10.468751 244.643895,10.2753906 C244.479832,10.1230461 244.397801,9.9414073 244.397801,9.73046875 L244.397801,9.70410156 C244.40952,9.38183433 244.570651,9.10058714 244.8812,8.86035156 C245.162451,8.64941301 245.484713,8.54394531 245.847996,8.54394531 C245.918309,8.54394531 245.988621,8.54687497 246.058934,8.55273438 C246.433936,8.55273438 246.729831,8.6347648 246.946629,8.79882812 C247.151708,8.95117264 247.254246,9.15331905 247.254246,9.40527344 C247.254246,9.70996246 247.116552,9.98242067 246.84116,10.2226562 C246.54819,10.4863294 246.193702,10.6181641 245.777684,10.6181641 C245.701512,10.6181641 245.619481,10.6123047 245.53159,10.6005859 Z M246.120457,12.578125 C246.524756,12.578125 246.726903,12.7509748 246.726903,13.0966797 C246.990576,14.5615308 247.12241,16.1904207 247.12241,17.9833984 C247.12241,18.194337 247.119481,18.4111317 247.113621,18.6337891 L247.060887,21.2792969 C247.060887,21.4140632 246.882178,21.5693351 246.524754,21.7451172 C246.179049,21.9150399 245.900732,22 245.689793,22 C245.578465,22 245.490575,21.9736331 245.426121,21.9208984 C244.95151,21.5283183 244.673192,20.9101605 244.59116,20.0664062 C244.573582,19.9023429 244.564793,19.7089855 244.564793,19.4863281 C244.564793,19.005857 244.599949,18.3789101 244.670262,17.6054688 C244.699559,17.2890609 244.720067,17.0546883 244.731785,16.9023438 C244.772801,16.3281221 244.793309,15.7334015 244.793309,15.1181641 C244.793309,14.9130849 244.790379,14.7050792 244.78452,14.4941406 C244.77866,14.3652337 244.764012,14.2128915 244.740575,14.0371094 C244.734715,13.9843747 244.731785,13.9316409 244.731785,13.8789062 C244.731785,13.5976548 244.834323,13.3105483 245.039403,13.0175781 C245.244482,12.7246079 245.60483,12.578125 246.120457,12.578125 Z M251.488426,18.3701172 C251.693505,18.9794952 252.127095,19.2841797 252.789207,19.2841797 C252.894677,19.2841797 253.006004,19.2753907 253.123192,19.2578125 C253.673976,19.1874996 254.532366,18.8857449 255.698387,18.3525391 C256.917143,17.8017551 257.719869,17.4912113 258.10659,17.4208984 C258.229638,17.3974608 258.340965,17.3857422 258.440575,17.3857422 C258.944483,17.3857422 259.211082,17.6582004 259.240379,18.203125 C259.058738,19.3222712 257.576331,20.4121041 254.793114,21.4726562 C253.867328,21.8242205 253.047023,22 252.332176,22 C251.21303,22 250.345851,21.5722699 249.730614,20.7167969 C249.291158,20.1074188 249.059715,19.3398484 249.036278,18.4140625 L249.036278,18.203125 C249.036278,17.4003866 249.18862,16.6035196 249.493309,15.8125 C249.833154,14.9335894 250.29604,14.2275417 250.881981,13.6943359 C251.503078,13.1376925 252.173969,12.859375 252.894676,12.859375 L252.9562,12.859375 C253.624172,12.859375 254.060691,13.1376925 254.26577,13.6943359 C254.318504,13.840821 254.344871,13.978515 254.344871,14.1074219 C254.344871,14.500002 254.113428,14.8310533 253.650535,15.1005859 C252.695453,15.6748076 252.112451,16.0703114 251.901512,16.2871094 C251.53237,16.6679707 251.347801,17.1044897 251.347801,17.5966797 C251.347801,17.8369153 251.394676,18.0947252 251.488426,18.3701172 Z M261.171825,16.2080078 C261.195262,16.2080078 262.557553,16.729487 265.258739,17.7724609 C267.350546,18.5810587 268.460886,19.3017546 268.589793,19.9345703 C268.578074,19.9345703 268.498974,20.1074201 268.352489,20.453125 C268.206003,20.8046893 267.97456,20.9804688 267.658153,20.9804688 C267.529246,21.0214846 267.394481,21.0419922 267.253856,21.0419922 C266.966745,21.0419922 266.647412,20.9628914 266.295848,20.8046875 C266.137644,20.7402341 265.91206,20.628907 265.61909,20.4707031 C265.320261,20.3066398 265.103466,20.1953128 264.9687,20.1367188 L264.977489,20.1367188 L263.966746,19.6445312 C263.398384,19.3632798 262.912061,19.1406258 262.507762,18.9765625 C261.833931,18.7070299 261.32417,18.5722656 260.978465,18.5722656 C260.679636,18.5722656 260.509715,18.6777333 260.4687,18.8886719 C260.445262,19.00586 260.433543,19.1787098 260.433543,19.4072266 C260.433543,19.5654305 260.439403,19.7470693 260.451121,19.9521484 C260.46284,20.1982434 260.4687,20.4121085 260.4687,20.59375 C260.4687,20.8164074 260.459911,20.9921869 260.442332,21.1210938 C260.372019,21.7011748 260.090772,21.9912109 259.598582,21.9912109 C259.381784,21.9912109 259.121045,21.9326178 258.816356,21.8154297 C258.38276,21.6513664 258.133739,21.3496116 258.069285,20.9101562 C258.057567,20.833984 258.051707,20.7490239 258.051707,20.6552734 C258.051707,20.3798814 258.101512,20.0195335 258.201121,19.5742188 C258.353466,18.8769496 258.435496,18.419923 258.447215,18.203125 L258.447215,18.1240234 C258.447215,17.6962869 258.312451,17.3857432 258.042918,17.1923828 C257.662057,16.9228502 257.448192,16.6445327 257.401317,16.3574219 C257.395457,16.3222654 257.392528,16.2841799 257.392528,16.2431641 C257.392528,16.0322255 257.465769,15.7890639 257.612254,15.5136719 C258.180616,14.4238227 258.473582,13.7148454 258.49116,13.3867188 C258.49702,13.246093 258.49995,12.8710968 258.49995,12.2617188 L258.49995,10.3193359 C258.49995,9.38183125 258.514598,8.59961251 258.543895,7.97265625 C258.672802,5.33592432 259.106391,4.01757812 259.844676,4.01757812 L259.914989,4.01757812 C260.594679,4.09960979 260.93452,5.2831917 260.93452,7.56835938 C260.93452,8.99805402 260.799756,10.8642463 260.530223,13.1669922 C260.793896,13.0791011 261.183541,12.9355479 261.699168,12.7363281 C262.290968,12.501952 262.709909,12.3408208 262.956004,12.2529297 C263.88179,11.924803 264.65815,11.7607422 265.285106,11.7607422 C265.355419,11.7607422 265.422801,11.7636718 265.487254,11.7695312 C266.032179,11.7695312 266.36323,11.86621 266.480418,12.0595703 C266.544872,12.1650396 266.577098,12.487302 266.577098,13.0263672 C266.413035,13.3837908 265.572223,13.785154 264.054637,14.2304688 C262.912053,14.4882825 262.118116,14.7080069 261.672801,14.8896484 C261.028267,15.1474622 260.706004,15.4082018 260.706004,15.671875 C260.706004,15.8476571 260.861276,16.0263663 261.171825,16.2080078 Z M286.093309,19.4160156 C286.48003,20.5000054 286.673387,21.2910131 286.673387,21.7890625 C286.673387,22.3984405 286.412647,22.703125 285.89116,22.703125 C285.533737,22.703125 285.190967,22.5654311 284.86284,22.2900391 C284.405807,21.9091778 284.048388,21.0683659 283.790575,19.7675781 C283.714402,19.3808574 283.655809,19.1054696 283.614793,18.9414062 C283.187057,19.7148476 282.598195,20.4033173 281.848192,21.0068359 C281.045453,21.6513704 280.318898,21.9736328 279.668504,21.9736328 C279.141158,21.9736328 278.731006,21.7480491 278.438035,21.296875 C278.127487,20.8105444 277.972215,20.0839892 277.972215,19.1171875 C277.972215,18.10937 278.162643,16.9228584 278.543504,15.5576172 C279.023975,13.8056553 279.615766,12.9179689 280.318895,12.8945312 L280.327684,12.8945312 C280.585498,12.8945312 280.784714,12.9794913 280.92534,13.1494141 C281.065966,13.3251962 281.136278,13.6445289 281.136278,14.1074219 C281.136278,14.7929722 280.986865,15.789056 280.688035,17.0957031 C280.459519,18.1035207 280.345262,18.7626938 280.345262,19.0732422 C280.345262,19.1845709 280.35991,19.251953 280.389207,19.2753906 C280.418504,19.2753906 280.45952,19.2607423 280.512254,19.2314453 C281.314993,18.7392554 281.909713,18.0214891 282.296434,17.078125 C282.519091,16.5332004 282.715378,15.7334037 282.885301,14.6787109 C282.99077,14.0165983 283.090379,13.5712902 283.184129,13.3427734 C283.336474,12.9794904 283.567917,12.7978516 283.878465,12.7978516 C284.487843,12.7978516 284.915573,13.2197223 285.161668,14.0634766 C285.308153,14.5556665 285.413621,15.3730412 285.478075,16.515625 C285.513231,17.1191436 285.548387,17.5234365 285.583543,17.7285156 C285.647997,18.0859393 285.817917,18.6484337 286.093309,19.4160156 Z M291.004246,17.3066406 C291.051122,17.8515652 291.074559,18.2470691 291.074559,18.4931641 L291.074559,18.6162109 C291.683937,18.5751951 292.228853,18.3349631 292.709325,17.8955078 C293.183936,17.4501931 293.471043,16.9169953 293.570653,16.2958984 C293.582371,16.2373044 293.588231,16.1816409 293.588231,16.1289062 C293.588231,15.8945301 293.50913,15.6865243 293.350926,15.5048828 C293.098972,15.2060532 292.706398,15.0039068 292.173192,14.8984375 C291.944675,14.8515623 291.739599,14.828125 291.557957,14.828125 C291.358738,14.828125 291.191747,14.8574216 291.056981,14.9160156 C290.96909,15.0449225 290.925145,15.3554663 290.925145,15.8476562 C290.925145,16.2226581 290.951512,16.7089814 291.004246,17.3066406 Z M295.987645,15.4169922 C296.116552,15.7158218 296.181004,16.0234359 296.181004,16.3398438 C296.181004,17.183598 295.723978,18.0800734 294.80991,19.0292969 C293.913422,19.9550828 292.937845,20.5234364 291.883153,20.734375 C291.472994,20.8164067 291.232762,20.9072261 291.16245,21.0068359 C291.121434,21.0595706 291.100926,21.1738272 291.100926,21.3496094 C291.100926,21.4433598 291.106785,21.5546869 291.118504,21.6835938 C291.147801,22.0175798 291.16245,22.298827 291.16245,22.5273438 L291.171239,22.84375 C291.188817,24.8418069 291.267918,26.4238223 291.408543,27.5898438 C291.414403,27.6601566 291.417332,27.7275387 291.417332,27.7919922 C291.417332,28.0322278 291.35581,28.2226555 291.232762,28.3632812 C291.097996,28.5156258 290.904638,28.5917969 290.652684,28.5917969 C290.306979,28.5917969 289.914405,28.4599623 289.47495,28.1962891 C289.047213,27.9384753 288.763036,27.340825 288.62241,26.4033203 C288.552098,25.9052709 288.516942,25.1669971 288.516942,24.1884766 L288.516942,23.2919922 C288.440769,20.85448 288.402684,18.8886793 288.402684,17.3945312 C288.402684,15.8476485 288.443699,14.8046902 288.525731,14.265625 C288.578465,13.5273401 288.695652,13.0380871 288.877293,12.7978516 C289.0062,12.6337882 289.217136,12.5517578 289.510106,12.5517578 L289.764989,12.5517578 C290.948588,12.5517578 292.1351,12.7861305 293.324559,13.2548828 C294.724957,13.7998074 295.612643,14.5205033 295.987645,15.4169922 Z M259.029442,42 C259.129052,42.1875009 259.178856,42.3662101 259.178856,42.5361328 C259.178856,42.6708991 259.149559,42.7968744 259.090965,42.9140625 C258.856589,43.3945337 258.256009,43.7226554 257.289207,43.8984375 C256.691548,44.0039068 255.780424,44.1035152 254.555809,44.1972656 L254.204246,44.2236328 C254.198387,44.2646486 254.189598,44.381835 254.177879,44.5751953 C254.136863,45.0673853 254.116356,45.4511705 254.116356,45.7265625 C254.116356,45.8437506 254.119285,45.9404293 254.125145,46.0166016 C254.189598,46.6552766 254.230613,47.458003 254.248192,48.4248047 L254.248192,48.8203125 C254.248192,50.1621161 254.133935,50.8710934 253.905418,50.9472656 C253.893699,50.9824221 253.741357,51 253.448387,51 C252.739399,51 252.355614,50.9707034 252.29702,50.9121094 C251.80483,50.4316382 251.558739,49.3740316 251.558739,47.7392578 C251.558739,47.2412084 251.582176,46.6933624 251.629051,46.0957031 C251.63491,45.9843744 251.63784,45.8759771 251.63784,45.7705078 C251.63784,45.2607396 251.541161,44.9003917 251.347801,44.6894531 C251.177878,44.5019522 250.802882,44.4082031 250.222801,44.4082031 L250.064598,44.4082031 C249.970847,44.4140625 249.882958,44.4169922 249.800926,44.4169922 C249.408346,44.4169922 249.109521,44.3818363 248.904442,44.3115234 C248.500143,44.1708977 248.210107,43.8750023 248.034325,43.4238281 L248.034325,43.3710938 C248.034325,43.1542958 248.107566,42.972657 248.254051,42.8261719 C248.582178,42.4863264 249.191547,42.3164062 250.082176,42.3164062 C250.281396,42.3164062 250.451316,42.3251952 250.591942,42.3427734 C250.70327,42.3544922 250.805808,42.3603516 250.899559,42.3603516 C251.122216,42.3603516 251.336081,42.3193363 251.54116,42.2373047 C251.470848,41.4638633 251.435692,40.7021522 251.435692,39.9521484 C251.435692,39.3720674 251.456199,38.8007841 251.497215,38.2382812 C251.631981,36.5273352 251.957173,35.3876982 252.472801,34.8193359 C252.724755,34.5380845 253.023581,34.3974609 253.369285,34.3974609 L253.457176,34.3974609 C253.597802,34.3974609 253.720847,34.4531244 253.826317,34.5644531 C254.060693,34.8164075 254.177879,35.4902289 254.177879,36.5859375 C254.177879,37.230472 254.136864,38.01855 254.054832,38.9501953 C254.002098,39.5595734 253.972801,39.9580069 253.966942,40.1455078 C253.961082,40.3564464 253.958153,40.6318342 253.958153,40.9716797 L253.958153,42.0175781 C253.958153,42.1113286 254.136862,42.1582031 254.494285,42.1582031 C254.570458,42.1582031 254.655418,42.1552735 254.749168,42.1494141 C255.294093,42.120117 255.970844,42.026368 256.779442,41.8681641 C256.820458,41.8564453 256.911277,41.833008 257.051903,41.7978516 C257.549952,41.6689447 257.930808,41.6044922 258.194481,41.6044922 C258.616358,41.6044922 258.894675,41.7363268 259.029442,42 Z M261.365184,45.1816406 C261.171824,45.5507831 261.075145,45.9726539 261.075145,46.4472656 L261.075145,46.5703125 C261.086864,47.1035183 261.20405,47.5546857 261.426707,47.9238281 C261.631786,48.269533 261.877878,48.4423828 262.164989,48.4423828 C262.487256,48.4423828 262.830026,48.2255881 263.193309,47.7919922 C263.568311,47.3466775 263.779246,46.7753941 263.826121,46.078125 C263.831981,45.9843745 263.83491,45.8935551 263.83491,45.8056641 C263.83491,45.2197236 263.700146,44.7128928 263.430614,44.2851562 C263.27241,44.0390613 263.064404,43.9160156 262.80659,43.9160156 C262.501901,43.9160156 262.191357,44.0624985 261.87495,44.3554688 C261.57026,44.6308608 261.40034,44.9062486 261.365184,45.1816406 Z M263.043895,41.6396484 C263.97554,41.6396484 264.719673,41.9912074 265.276317,42.6943359 C265.83296,43.3974645 266.111278,44.3378847 266.111278,45.515625 C266.111278,46.9043038 265.753859,48.1347603 265.039012,49.2070312 C264.230414,50.4023497 263.199175,51 261.945262,51 C261.699167,51 261.447216,50.9736331 261.189403,50.9208984 C260.199163,50.7275381 259.481397,50.1035209 259.036082,49.0488281 C258.737253,48.3339808 258.58784,47.5107468 258.58784,46.5791016 C258.58784,46.3447254 258.596629,46.1044934 258.614207,45.8583984 C258.707958,44.5751889 259.144477,43.5527382 259.923778,42.7910156 C260.697219,42.0234337 261.684514,41.6396484 262.885692,41.6396484 L263.043895,41.6396484 Z M286.409715,42.7910156 C287.464408,43.2011739 288.401899,43.860347 289.222215,44.7685547 C290.007375,45.6416059 290.39995,46.5029254 290.39995,47.3525391 C290.39995,47.5576182 290.379442,47.7597646 290.338426,47.9589844 C290.098191,49.0488336 289.359917,49.8720675 288.123582,50.4287109 C287.156781,50.8681663 286.066948,51.0878906 284.854051,51.0878906 L284.757371,51.0878906 C283.380411,51.0878906 281.977105,50.7978545 280.54741,50.2177734 C278.88334,49.5380825 277.778858,48.6621147 277.233934,47.5898438 C277.046433,47.2207013 276.952684,46.9130872 276.952684,46.6669922 C276.952684,46.6025387 276.958543,46.5410159 276.970262,46.4824219 C277.034715,46.2128893 277.248581,45.9111345 277.611864,45.5771484 C277.734911,45.4716792 277.887253,45.4189453 278.068895,45.4189453 C278.320849,45.4189453 278.622604,45.5302723 278.974168,45.7529297 C279.0562,45.7998049 279.404829,46.0664038 280.020067,46.5527344 C280.910696,47.2500035 281.921428,47.7861309 283.052293,48.1611328 C283.825735,48.4130872 284.528853,48.5390625 285.161668,48.5390625 C285.606983,48.5390625 286.017135,48.4775397 286.392137,48.3544922 C286.95464,48.1611318 287.273973,47.9121109 287.350145,47.6074219 C287.361864,47.5488278 287.367723,47.4931643 287.367723,47.4404297 C287.367723,47.2060535 287.253466,46.9482436 287.02495,46.6669922 C286.462447,45.9990201 285.74468,45.5390638 284.871629,45.2871094 C283.594279,44.9121075 282.73296,44.5693375 282.287645,44.2587891 C281.912643,43.9892565 281.725145,43.7050796 281.725145,43.40625 C281.725145,43.0195293 282.044478,42.6152365 282.683153,42.1933594 C282.765184,42.1406247 283.380413,41.8183623 284.528856,41.2265625 C285.208547,40.8808576 285.724167,40.4677758 286.075731,39.9873047 C286.134325,39.8701166 286.292526,39.6123067 286.55034,39.2138672 L286.55034,39.1611328 C286.55034,38.8916002 286.488817,38.6777352 286.36577,38.5195312 C286.272019,38.4550778 286.131396,38.4228516 285.943895,38.4228516 C285.69194,38.4228516 285.375537,38.4843744 284.994676,38.6074219 C284.877488,38.6484377 284.197807,38.9267552 282.955614,39.4423828 C282.141156,39.7822283 281.537647,39.9521484 281.145067,39.9521484 L281.10991,39.9521484 C280.535689,39.9287108 280.248582,39.6035188 280.248582,38.9765625 L280.248582,38.9150391 C280.248582,38.0185502 281.153847,37.2539094 282.964403,36.6210938 C284.353081,36.1406226 285.524945,35.9003906 286.480028,35.9003906 L286.576707,35.9003906 C287.748588,35.9003906 288.557174,36.2167937 289.002489,36.8496094 C289.254443,37.207033 289.380418,37.6376928 289.380418,38.1416016 C289.380418,38.510744 289.315966,38.9179665 289.187059,39.3632812 C288.987839,40.054691 288.583546,40.7080047 287.974168,41.3232422 C287.833543,41.4638679 287.561084,41.7158185 287.156785,42.0791016 C286.805221,42.3955094 286.5562,42.6328117 286.409715,42.7910156 Z M293.825535,49.0136719 C294.341163,49.0136719 294.757175,49.1572251 295.073582,49.4443359 C295.354834,49.6962903 295.495457,50.0039044 295.495457,50.3671875 C295.495457,50.7187518 295.357763,51.0117176 295.082371,51.2460938 C294.783542,51.4921887 294.382179,51.6152344 293.87827,51.6152344 C293.714207,51.6152344 293.538427,51.6035157 293.350926,51.5800781 C293.052096,51.5214841 292.817724,51.3574232 292.647801,51.0878906 C292.518894,50.8710927 292.454442,50.63672 292.454442,50.3847656 L292.454442,50.2880859 C292.47202,49.9716781 292.583347,49.6992199 292.788426,49.4707031 C293.034521,49.2011705 293.380221,49.0488283 293.825535,49.0136719 Z M295.504246,32.6660156 C295.685888,32.8945324 295.776707,33.2548804 295.776707,33.7470703 C295.776707,34.1455098 295.718114,34.6230441 295.600926,35.1796875 C295.548191,35.4316419 295.513036,35.6044917 295.495457,35.6982422 C295.313816,36.7998102 295.222996,37.9775328 295.222996,39.2314453 L295.222996,39.6972656 C295.228856,40.0722675 295.231785,40.4003892 295.231785,40.6816406 C295.231785,40.962892 295.228856,41.2001943 295.222996,41.3935547 C295.217137,41.6748061 295.214207,41.9384753 295.214207,42.1845703 C295.214207,42.7353543 295.234715,43.192381 295.275731,43.5556641 L295.319676,44.0039062 C295.395848,44.6367219 295.433934,45.175779 295.433934,45.6210938 C295.433934,45.9316422 295.416356,46.1982411 295.3812,46.4208984 C295.217136,47.2880903 294.847999,47.7216797 294.273778,47.7216797 C293.974948,47.7216797 293.696631,47.6337899 293.438817,47.4580078 C293.163425,47.2587881 292.972997,46.9775409 292.867528,46.6142578 C292.732761,46.1513649 292.665379,45.5185587 292.665379,44.7158203 C292.665379,44.2939432 292.685887,43.8222682 292.726903,43.3007812 L292.770848,43.3974609 C292.806004,42.8056611 292.823582,42.1084025 292.823582,41.3056641 C292.823582,40.8544899 292.817723,40.374026 292.806004,39.8642578 L292.788426,38.9853516 C292.788426,38.8447259 292.767918,38.5224635 292.726903,38.0185547 C292.627293,36.8408144 292.577489,35.9765653 292.577489,35.4257812 C292.577489,35.3085932 292.583348,35.2060551 292.595067,35.1181641 C292.653661,34.0458931 292.923189,33.249026 293.40366,32.7275391 C293.679052,32.4404283 294.010104,32.296875 294.396825,32.296875 L294.502293,32.296875 C294.988624,32.3144532 295.322605,32.4374989 295.504246,32.6660156 Z" id="Pickupto3!" fill="#000000" fill-rule="nonzero"></path>
            <g id="arrow" transform="translate(118.500000, 89.042586) rotate(-361.000000) translate(-118.500000, -89.042586) translate(1.000000, 36.042586)">
                <g id="Group-3" transform="translate(1.196671, 0.000000)">
                    <mask id="mask-2" fill="white">
                        <use xlink:href="#path-1"></use>
                    </mask>
                    <g id="Clip-2"></g>
                    <path d="M1.38349189,102.236552 C2.84573972,101.035036 0.0734294442,104.552039 1.11209464,104.912366 C1.23891579,104.92886 2.03281617,103.73242 3.32385544,102.098257 C4.59460334,100.448869 5.99978165,98.751268 6.30668882,98.3008582 C15.9362185,84.9598471 27.2220324,71.3105273 39.4412499,61.1947041 C50.0371568,52.4427978 63.2075329,43.5805094 76.4730249,35.9641433 C80.4767685,33.7565009 84.5109492,31.441014 88.7683351,29.4312982 C92.9445555,27.2604499 97.3389082,25.4232854 101.719311,23.4846202 C110.587913,19.8635792 119.720304,16.5089779 129.034049,13.9257826 C147.60447,8.55385285 166.540135,5.33374004 183.95902,3.61203276 C186.527148,3.26058625 189.47574,3.17557933 192.629782,3.04870334 C195.78636,2.95227758 199.145852,2.76196358 202.567487,2.73658838 C209.414561,2.81271398 216.482303,2.58433719 222.590009,2.50821159 C224.668608,2.43716103 226.279237,2.43589227 227.736412,2.24430951 C228.58104,2.13519616 229.406646,1.91950696 230.220838,1.67717381 C230.747146,1.51984757 231.287404,1.41961553 231.811175,1.24579542 C232.012821,1.17855114 232.771211,0.956518142 232.303241,0.734485147 C231.718596,0.455357954 230.810556,0.532752312 230.182792,0.504839593 C228.92853,0.450282914 227.671733,0.437595314 226.416204,0.421101435 C224.66734,0.396994995 222.918476,0.376694836 221.170881,0.319600637 C219.480355,0.263775198 217.862117,0.211756039 216.298412,0.16100564 C214.733439,0.16988696 213.223,0.17876828 211.750606,0.18638084 C208.807087,0.1939934 206.015754,0.200337199 203.240907,0.206680999 C201.852216,0.18638084 200.468597,0.230787439 199.073564,0.310719317 C197.678532,0.374157316 196.269549,0.440132834 194.831397,0.506108353 C191.956361,0.660897069 188.955773,0.744635227 185.71042,1.00092474 C168.617466,2.30520999 150.865042,5.27918336 132.884339,10.1677155 C115.271418,14.9623595 98.0389609,21.5434174 81.9199931,29.9058144 C73.8706549,34.110485 66.1155418,38.7516089 58.6432398,43.688354 C51.2419577,48.7278686 44.1450463,54.0718856 37.4438169,59.7242113 C30.764147,65.3422804 24.5993711,71.4729286 18.8480321,78.1935502 C15.896904,81.7384655 12.3142066,85.5993021 9.22737984,89.5667145 C6.11011605,93.502408 3.38980244,97.4584016 1.88443542,100.796509 C1.02966089,102.664124 -0.570821983,104.535545 1.38349189,102.236552" id="Fill-1" fill="#2E2E30" mask="url(#mask-2)"></path>
                </g>
                <g id="Group-6" transform="translate(0.000000, 87.357008)">
                    <mask id="mask-4" fill="white">
                        <use xlink:href="#path-3"></use>
                    </mask>
                    <g id="Clip-5"></g>
                    <path d="M1.36197154,0.060517379 C1.27517298,0.0630816747 1.19092731,0.0720567098 1.11178745,0.0874424841 C0.880750104,0.133599807 0.705876532,0.310536212 0.519514916,0.440033146 C0.228484447,0.642612508 0.0970101564,1.04136049 0.0829692127,1.11187862 C-0.325494604,3.21588326 0.917767137,5.17628734 0.696941386,7.16618082 C0.506750422,8.89451614 0.211890605,10.9062061 0.588443185,12.7422419 C0.783739947,13.7730887 0.984142507,14.8321429 1.18837442,15.9117114 L1.42451756,17.1605234 C1.53429221,17.7400542 2.13039409,18.0887984 2.68692604,17.8977584 L3.82168958,17.5079855 C7.02047184,16.411749 10.2345715,15.336027 13.2150809,13.7166742 C14.1877354,13.1871472 15.3161167,13.0550859 16.3436584,12.6704416 C17.1605861,12.3652904 17.8766742,11.7921703 18.3323667,11.043396 C18.714025,10.4177078 18.5940388,9.36634655 17.6558485,9.43558254 C17.0980401,9.47789342 16.606607,9.78689105 16.1049624,10.0087026 C15.1169905,10.4446329 14.0677491,10.6959339 13.0657363,11.0985283 C11.1485093,11.8665349 3.43364896,15.2244801 3.43364896,15.2244801 C2.94987462,12.1716861 2.9932739,9.39070736 3.1145366,6.36355626 C3.15410653,5.38014885 2.93455723,4.41725581 2.74819561,3.45179847 C2.63203872,2.84790683 2.69841409,2.22350082 2.64735611,1.61448059 C2.60395683,1.09264641 2.43929485,0.304125473 1.86106326,0.122060476 C1.71044223,0.0746210055 1.53301576,0.0553887876 1.36197154,0.060517379" id="Fill-4" fill="#2E2E30" mask="url(#mask-4)"></path>
                </g>
            </g>
        </g>
    </g>
</svg>