<?xml version="1.0" encoding="UTF-8"?>
<svg width="316px" height="73px" viewBox="0 0 316 73" version="1.1" xmlns="http://www.w3.org/2000/svg" xmlns:xlink="http://www.w3.org/1999/xlink">
    <!-- Generator: Sketch 54.1 (76490) - https://sketchapp.com -->
    <title>Group 12</title>
    <desc>Created with Sketch.</desc>
    <defs>
        <polygon id="path-1" points="0.453446859 0.161132516 232.453017 0.161132516 232.453017 104.912535 0.453446859 104.912535"></polygon>
        <polygon id="path-3" points="0 0.0597120327 18.5352649 0.0597120327 18.5352649 17.95007 0 17.95007"></polygon>
    </defs>
    <g id="Page-2" stroke="none" stroke-width="1" fill="none" fill-rule="evenodd">
        <g id="Group-12" transform="translate(-4.453580, -34.473242)">
            <g id="Group-11" transform="translate(129.500000, 84.500000) rotate(-345.000000) translate(-129.500000, -84.500000) translate(11.000000, 29.000000)">
                <g id="arrow" transform="translate(118.500000, 55.042586) rotate(-361.000000) translate(-118.500000, -55.042586) translate(1.000000, 2.042586)">
                    <g id="Group-3" transform="translate(1.196671, 0.000000)">
                        <mask id="mask-2" fill="white">
                            <use xlink:href="#path-1"></use>
                        </mask>
                        <g id="Clip-2"></g>
                        <path d="M1.38349189,102.236552 C2.84573972,101.035036 0.0734294442,104.552039 1.11209464,104.912366 C1.23891579,104.92886 2.03281617,103.73242 3.32385544,102.098257 C4.59460334,100.448869 5.99978165,98.751268 6.30668882,98.3008582 C15.9362185,84.9598471 27.2220324,71.3105273 39.4412499,61.1947041 C50.0371568,52.4427978 63.2075329,43.5805094 76.4730249,35.9641433 C80.4767685,33.7565009 84.5109492,31.441014 88.7683351,29.4312982 C92.9445555,27.2604499 97.3389082,25.4232854 101.719311,23.4846202 C110.587913,19.8635792 119.720304,16.5089779 129.034049,13.9257826 C147.60447,8.55385285 166.540135,5.33374004 183.95902,3.61203276 C186.527148,3.26058625 189.47574,3.17557933 192.629782,3.04870334 C195.78636,2.95227758 199.145852,2.76196358 202.567487,2.73658838 C209.414561,2.81271398 216.482303,2.58433719 222.590009,2.50821159 C224.668608,2.43716103 226.279237,2.43589227 227.736412,2.24430951 C228.58104,2.13519616 229.406646,1.91950696 230.220838,1.67717381 C230.747146,1.51984757 231.287404,1.41961553 231.811175,1.24579542 C232.012821,1.17855114 232.771211,0.956518142 232.303241,0.734485147 C231.718596,0.455357954 230.810556,0.532752312 230.182792,0.504839593 C228.92853,0.450282914 227.671733,0.437595314 226.416204,0.421101435 C224.66734,0.396994995 222.918476,0.376694836 221.170881,0.319600637 C219.480355,0.263775198 217.862117,0.211756039 216.298412,0.16100564 C214.733439,0.16988696 213.223,0.17876828 211.750606,0.18638084 C208.807087,0.1939934 206.015754,0.200337199 203.240907,0.206680999 C201.852216,0.18638084 200.468597,0.230787439 199.073564,0.310719317 C197.678532,0.374157316 196.269549,0.440132834 194.831397,0.506108353 C191.956361,0.660897069 188.955773,0.744635227 185.71042,1.00092474 C168.617466,2.30520999 150.865042,5.27918336 132.884339,10.1677155 C115.271418,14.9623595 98.0389609,21.5434174 81.9199931,29.9058144 C73.8706549,34.110485 66.1155418,38.7516089 58.6432398,43.688354 C51.2419577,48.7278686 44.1450463,54.0718856 37.4438169,59.7242113 C30.764147,65.3422804 24.5993711,71.4729286 18.8480321,78.1935502 C15.896904,81.7384655 12.3142066,85.5993021 9.22737984,89.5667145 C6.11011605,93.502408 3.38980244,97.4584016 1.88443542,100.796509 C1.02966089,102.664124 -0.570821983,104.535545 1.38349189,102.236552" id="Fill-1" fill="#2E2E30" mask="url(#mask-2)"></path>
                    </g>
                    <g id="Group-6" transform="translate(0.000000, 87.357008)">
                        <mask id="mask-4" fill="white">
                            <use xlink:href="#path-3"></use>
                        </mask>
                        <g id="Clip-5"></g>
                        <path d="M1.36197154,0.060517379 C1.27517298,0.0630816747 1.19092731,0.0720567098 1.11178745,0.0874424841 C0.880750104,0.133599807 0.705876532,0.310536212 0.519514916,0.440033146 C0.228484447,0.642612508 0.0970101564,1.04136049 0.0829692127,1.11187862 C-0.325494604,3.21588326 0.917767137,5.17628734 0.696941386,7.16618082 C0.506750422,8.89451614 0.211890605,10.9062061 0.588443185,12.7422419 C0.783739947,13.7730887 0.984142507,14.8321429 1.18837442,15.9117114 L1.42451756,17.1605234 C1.53429221,17.7400542 2.13039409,18.0887984 2.68692604,17.8977584 L3.82168958,17.5079855 C7.02047184,16.411749 10.2345715,15.336027 13.2150809,13.7166742 C14.1877354,13.1871472 15.3161167,13.0550859 16.3436584,12.6704416 C17.1605861,12.3652904 17.8766742,11.7921703 18.3323667,11.043396 C18.714025,10.4177078 18.5940388,9.36634655 17.6558485,9.43558254 C17.0980401,9.47789342 16.606607,9.78689105 16.1049624,10.0087026 C15.1169905,10.4446329 14.0677491,10.6959339 13.0657363,11.0985283 C11.1485093,11.8665349 3.43364896,15.2244801 3.43364896,15.2244801 C2.94987462,12.1716861 2.9932739,9.39070736 3.1145366,6.36355626 C3.15410653,5.38014885 2.93455723,4.41725581 2.74819561,3.45179847 C2.63203872,2.84790683 2.69841409,2.22350082 2.64735611,1.61448059 C2.60395683,1.09264641 2.43929485,0.304125473 1.86106326,0.122060476 C1.71044223,0.0746210055 1.53301576,0.0553887876 1.36197154,0.060517379" id="Fill-4" fill="#2E2E30" mask="url(#mask-4)"></path>
                    </g>
                </g>
            </g>
            <path d="M259.017519,49.9718405 C261.115185,49.6378544 262.418883,49.4005521 262.928652,49.2599264 C264.651316,48.7853147 265.512636,48.1964534 265.512636,47.4933249 L265.512636,47.4581686 C265.512636,46.7198837 264.657176,46.0343436 262.94623,45.401528 C262.799745,45.3546527 261.610303,45.0704759 259.37787,44.5489889 L258.964784,44.6017233 C258.958925,45.6329785 258.955995,46.4210565 258.955995,46.9659811 C258.955995,48.5714579 258.976503,49.573401 259.017519,49.9718405 Z M263.939394,43.2657858 C265.65034,43.9454767 266.807555,44.636876 267.411073,45.3400045 C267.856388,45.8614915 268.079042,46.4444935 268.079042,47.089028 C268.079042,47.669109 267.903263,48.2960559 267.551698,48.9698874 C266.954039,50.1300494 265.790965,50.9825799 264.062441,51.5275045 C263.470641,51.7150055 262.700141,51.8995739 261.750917,52.0812155 C260.321223,52.3566075 259.57123,52.5001607 259.500917,52.5118795 C259.213806,52.576333 259.070253,52.927892 259.070253,53.566567 C259.070253,53.8888343 259.105409,54.2814085 259.175722,54.7443014 C259.216738,55.0255528 259.319276,55.5733989 259.483339,56.3878561 C259.600527,56.9972342 259.65912,57.3985973 259.65912,57.5919577 L259.65912,57.7941061 C259.65912,58.6788762 259.547793,59.2589485 259.325136,59.5343405 C259.18451,59.7042632 259.01459,59.7892233 258.81537,59.7892233 C258.580994,59.7892233 258.305606,59.6749666 257.989198,59.4464499 C257.350523,59.071448 256.975527,58.7081704 256.864198,58.3566061 C256.782167,58.0929329 256.741152,57.474775 256.741152,56.5021139 C256.741152,56.2267219 256.744081,55.9278968 256.749941,55.6056295 C256.7558,55.4298474 256.75873,55.2628569 256.75873,55.104653 C256.75873,54.003085 256.66791,53.291178 256.486269,52.9689108 C256.445253,52.8927385 256.272403,52.7609039 255.967714,52.573403 C255.704041,52.4093397 255.554628,52.2189119 255.519472,52.0021139 C255.513612,51.9610981 255.510683,51.9200829 255.510683,51.879067 C255.510683,51.6857067 255.601502,51.5040679 255.783144,51.3341452 L256.407167,50.8771139 C256.330995,49.1544491 256.28412,47.8478215 256.266542,46.957192 C256.266542,46.8575822 256.28412,46.6202799 256.319277,46.245278 C256.366152,45.8409791 256.392519,45.5304353 256.398378,45.3136374 L256.398378,45.2081686 C256.427675,45.0265271 256.442323,44.8683255 256.442323,44.7335592 C256.442323,44.3702762 256.325137,44.1886374 256.090761,44.1886374 L255.976503,44.1886374 C255.589782,44.1886374 255.329043,44.0538731 255.194277,43.7843405 C255.147401,43.69059 255.123964,43.5909816 255.123964,43.4855124 C255.123964,43.2276986 255.270447,42.9376624 255.563417,42.6153952 C255.709902,42.4571913 255.953064,42.304849 256.292909,42.1583639 C256.656192,42.00016 256.905213,41.8624661 257.03998,41.745278 C257.444279,41.3995731 257.86029,41.2267233 258.288027,41.2267233 C258.340761,41.2267233 258.393495,41.229653 258.44623,41.2355124 C258.756778,41.2355124 258.988221,41.3556283 259.140566,41.5958639 C259.322207,41.8771153 259.568298,42.0528948 259.878847,42.1232077 C261.783153,42.5685224 263.136655,42.949378 263.939394,43.2657858 Z M269.388612,47.6866842 C268.996032,47.6632466 268.700137,47.5548493 268.500917,47.3614889 C268.336854,47.2091444 268.254823,47.0275056 268.254823,46.816567 L268.254823,46.7901999 C268.266542,46.4679326 268.427673,46.1866854 268.738222,45.9464499 C269.019473,45.7355113 269.341736,45.6300436 269.705019,45.6300436 C269.775332,45.6300436 269.845643,45.6329733 269.915956,45.6388327 C270.290958,45.6388327 270.586854,45.7208631 270.803652,45.8849264 C271.008731,46.0372709 271.111269,46.2394173 271.111269,46.4913717 C271.111269,46.7960608 270.973575,47.068519 270.698183,47.3087545 C270.405213,47.5724277 270.050724,47.7042624 269.634706,47.7042624 C269.558534,47.7042624 269.476504,47.698403 269.388612,47.6866842 Z M269.97748,49.6642233 C270.381779,49.6642233 270.583925,49.8370731 270.583925,50.182778 C270.847598,51.6476291 270.979433,53.276519 270.979433,55.0694967 C270.979433,55.2804353 270.976503,55.49723 270.970644,55.7198874 L270.917909,58.3653952 C270.917909,58.5001615 270.7392,58.6554334 270.381777,58.8312155 C270.036072,59.0011382 269.757754,59.0860983 269.546816,59.0860983 C269.435487,59.0860983 269.347597,59.0597314 269.283144,59.0069967 C268.808532,58.6144166 268.530214,57.9962588 268.448183,57.1525045 C268.430605,56.9884412 268.421816,56.7950838 268.421816,56.5724264 C268.421816,56.0919553 268.456972,55.4650084 268.527284,54.691567 C268.556581,54.3751592 268.577089,54.1407866 268.588808,53.988442 C268.629824,53.4142204 268.650331,52.8194998 268.650331,52.2042624 C268.650331,51.9991832 268.647402,51.7911775 268.641542,51.5802389 C268.635683,51.451332 268.621034,51.2989898 268.597597,51.1232077 C268.591737,51.070473 268.588808,51.0177392 268.588808,50.9650045 C268.588808,50.6837531 268.691346,50.3966466 268.896425,50.1036764 C269.101504,49.8107062 269.461852,49.6642233 269.97748,49.6642233 Z M275.145448,55.4562155 C275.350528,56.0655935 275.784117,56.370278 276.44623,56.370278 C276.551699,56.370278 276.663026,56.361489 276.780214,56.3439108 C277.330998,56.2735979 278.189388,55.9718431 279.355409,55.4386374 C280.574165,54.8878534 281.376892,54.5773096 281.763612,54.5069967 C281.88666,54.4835591 281.997987,54.4718405 282.097597,54.4718405 C282.601506,54.4718405 282.868105,54.7442987 282.897402,55.2892233 C282.71576,56.4083695 281.233353,57.4982024 278.450136,58.5587545 C277.52435,58.9103188 276.704046,59.0860983 275.989198,59.0860983 C274.870052,59.0860983 274.002873,58.6583682 273.387636,57.8028952 C272.948181,57.1935171 272.716738,56.4259467 272.6933,55.5001608 L272.6933,55.2892233 C272.6933,54.4864849 272.845642,53.6896179 273.150331,52.8985983 C273.490177,52.0196877 273.953063,51.31364 274.539003,50.7804342 C275.1601,50.2237908 275.830992,49.9454733 276.551698,49.9454733 L276.613222,49.9454733 C277.281194,49.9454733 277.717713,50.2237908 277.922792,50.7804342 C277.975527,50.9269193 278.001894,51.0646133 278.001894,51.1935202 C278.001894,51.5861003 277.770451,51.9171516 277.307558,52.1866842 C276.352475,52.7609059 275.769473,53.1564097 275.558534,53.3732077 C275.189392,53.7540689 275.004823,54.190588 275.004823,54.682778 C275.004823,54.9230136 275.051698,55.1808235 275.145448,55.4562155 Z M284.628847,53.2941061 C284.652284,53.2941061 286.014576,53.8155853 288.715761,54.8585592 C290.807568,55.667157 291.917909,56.3878529 292.046816,57.0206686 C292.035097,57.0206686 291.955996,57.1935184 291.809511,57.5392233 C291.663026,57.8907876 291.431583,58.066567 291.115175,58.066567 C290.986268,58.1075829 290.851504,58.1280905 290.710878,58.1280905 C290.423767,58.1280905 290.104435,58.0489897 289.75287,57.8907858 C289.594666,57.8263323 289.369083,57.7150053 289.076112,57.5568014 C288.777283,57.3927381 288.560488,57.2814111 288.425722,57.222817 L288.434511,57.222817 L287.423769,56.7306295 C286.855407,56.4493781 286.369083,56.2267241 285.964784,56.0626608 C285.290953,55.7931282 284.781192,55.6583639 284.435487,55.6583639 C284.136658,55.6583639 283.966738,55.7638316 283.925722,55.9747702 C283.902284,56.0919583 283.890566,56.2648081 283.890566,56.4933249 C283.890566,56.6515288 283.896425,56.8331676 283.908144,57.0382467 C283.919863,57.2843417 283.925722,57.4982068 283.925722,57.6798483 C283.925722,57.9025057 283.916933,58.0782852 283.899355,58.207192 C283.829042,58.7872731 283.547795,59.0773092 283.055605,59.0773092 C282.838807,59.0773092 282.578067,59.0187161 282.273378,58.901528 C281.839782,58.7374647 281.590761,58.4357099 281.526308,57.9962545 C281.514589,57.9200823 281.50873,57.8351222 281.50873,57.7413717 C281.50873,57.4659797 281.558534,57.1056318 281.658144,56.660317 C281.810488,55.9630479 281.892519,55.5060213 281.904237,55.2892233 L281.904237,55.2101217 C281.904237,54.7823852 281.769473,54.4718414 281.499941,54.2784811 C281.119079,54.0089485 280.905214,53.730631 280.858339,53.4435202 C280.85248,53.4083637 280.84955,53.3702782 280.84955,53.3292624 C280.84955,53.1183238 280.922791,52.8751622 281.069277,52.5997702 C281.637639,51.509921 281.930605,50.8009437 281.948183,50.472817 C281.954042,50.3321913 281.956972,49.9571951 281.956972,49.347817 L281.956972,47.4054342 C281.956972,46.4679295 281.97162,45.6857108 282.000917,45.0587545 C282.129824,42.4220226 282.563413,41.1036764 283.301698,41.1036764 L283.372011,41.1036764 C284.051702,41.1857081 284.391542,42.36929 284.391542,44.6544577 C284.391542,46.0841523 284.256778,47.9503446 283.987245,50.2530905 C284.250918,50.1651994 284.640563,50.0216462 285.156191,49.8224264 C285.74799,49.5880502 286.166932,49.426919 286.413027,49.339028 C287.338812,49.0109013 288.115172,48.8468405 288.742128,48.8468405 C288.812441,48.8468405 288.879823,48.8497701 288.944277,48.8556295 C289.489201,48.8556295 289.820253,48.9523083 289.937441,49.1456686 C290.001894,49.2511379 290.03412,49.5734003 290.03412,50.1124655 C289.870057,50.4698891 289.029245,50.8712523 287.511659,51.316567 C286.369076,51.5743808 285.575138,51.7941052 285.129823,51.9757467 C284.485289,52.2335605 284.163027,52.4943001 284.163027,52.7579733 C284.163027,52.9337554 284.318298,53.1124646 284.628847,53.2941061 Z M309.150331,56.5021139 C309.537052,57.5861037 309.730409,58.3771114 309.730409,58.8751608 C309.730409,59.4845388 309.46967,59.7892233 308.948183,59.7892233 C308.590759,59.7892233 308.247989,59.6515294 307.919862,59.3761374 C307.462829,58.9952761 307.105411,58.1544642 306.847597,56.8536764 C306.771425,56.4669557 306.712831,56.1915679 306.671816,56.0275045 C306.244079,56.8009459 305.655218,57.4894156 304.905214,58.0929342 C304.102476,58.7374687 303.37592,59.0597311 302.725527,59.0597311 C302.19818,59.0597311 301.788028,58.8341474 301.495058,58.3829733 C301.184509,57.8966427 301.029237,57.1700875 301.029237,56.2032858 C301.029237,55.1954683 301.219665,54.0089567 301.600527,52.6437155 C302.080998,50.8917536 302.672789,50.0040672 303.375917,49.9806295 L303.384706,49.9806295 C303.64252,49.9806295 303.841737,50.0655896 303.982362,50.2355124 C304.122988,50.4112945 304.1933,50.7306272 304.1933,51.1935202 C304.1933,51.8790705 304.043887,52.8751543 303.745058,54.1818014 C303.516541,55.189619 303.402284,55.8487921 303.402284,56.1593405 C303.402284,56.2706692 303.416933,56.3380513 303.44623,56.3614889 C303.475527,56.3614889 303.516542,56.3468406 303.569277,56.3175436 C304.372015,55.8253536 304.966736,55.1075874 305.353456,54.1642233 C305.576114,53.6192987 305.772401,52.819502 305.942323,51.7648092 C306.047793,51.1026965 306.147401,50.6573885 306.241152,50.4288717 C306.393496,50.0655887 306.624939,49.8839499 306.935487,49.8839499 C307.544866,49.8839499 307.972596,50.3058206 308.218691,51.1495749 C308.365176,51.6417648 308.470643,52.4591395 308.535097,53.6017233 C308.570253,54.2052419 308.605409,54.6095348 308.640566,54.8146139 C308.705019,55.1720376 308.874939,55.734532 309.150331,56.5021139 Z M313.861269,54.3927389 C313.908144,54.9376635 313.931581,55.3331674 313.931581,55.5792624 L313.931581,55.7023092 C314.540959,55.6612934 315.085876,55.4210614 315.566347,54.9816061 C316.040959,54.5362914 316.328065,54.0030936 316.427675,53.3819967 C316.439394,53.3234027 316.445253,53.2677392 316.445253,53.2150045 C316.445253,52.9806284 316.366152,52.7726226 316.207948,52.5909811 C315.955994,52.2921515 315.56342,52.0900051 315.030214,51.9845358 C314.801697,51.9376606 314.596621,51.9142233 314.41498,51.9142233 C314.21576,51.9142233 314.048769,51.9435199 313.914003,52.0021139 C313.826112,52.1310208 313.782167,52.4415646 313.782167,52.9337545 C313.782167,53.3087564 313.808534,53.7950797 313.861269,54.3927389 Z M318.844667,52.5030905 C318.973574,52.8019201 319.038027,53.1095342 319.038027,53.425942 C319.038027,54.2696963 318.581,55.1661717 317.666933,56.1153952 C316.770444,57.041181 315.794868,57.6095347 314.740175,57.8204733 C314.330017,57.902505 314.089785,57.9933244 314.019472,58.0929342 C313.978456,58.1456689 313.957948,58.2599255 313.957948,58.4357077 C313.957948,58.5294581 313.963808,58.6407852 313.975527,58.769692 C314.004824,59.1036781 314.019472,59.3849253 314.019472,59.613442 L314.028261,59.9298483 C314.045839,61.9279052 314.12494,63.5099206 314.265566,64.675942 C314.271425,64.7462549 314.274355,64.813637 314.274355,64.8780905 C314.274355,65.1183261 314.212832,65.3087538 314.089784,65.4493795 C313.955018,65.6017241 313.761661,65.6778952 313.509706,65.6778952 C313.164001,65.6778952 312.771427,65.5460606 312.331972,65.2823874 C311.904235,65.0245736 311.620058,64.4269233 311.479433,63.4894186 C311.40912,62.9913692 311.373964,62.2530954 311.373964,61.2745749 L311.373964,60.3780905 C311.297792,57.9405783 311.259706,55.9747776 311.259706,54.4806295 C311.259706,52.9337468 311.300721,51.8907885 311.382753,51.3517233 C311.435488,50.6134384 311.552674,50.1241854 311.734316,49.8839499 C311.863223,49.7198865 312.074158,49.6378561 312.367128,49.6378561 L312.622011,49.6378561 C313.805611,49.6378561 314.992122,49.8722288 316.181581,50.3409811 C317.581979,50.8859057 318.469665,51.6066016 318.844667,52.5030905 Z M283.618105,74.0860983 C283.717715,74.2735992 283.767519,74.4523084 283.767519,74.6222311 C283.767519,74.7569974 283.738222,74.8829727 283.679628,75.0001608 C283.445252,75.4806319 282.844672,75.8087537 281.87787,75.9845358 C281.280211,76.0900051 280.369087,76.1896135 279.144472,76.2833639 L278.792909,76.3097311 C278.78705,76.3507469 278.778261,76.4679333 278.766542,76.6612936 C278.725526,77.1534836 278.705019,77.5372688 278.705019,77.8126608 C278.705019,77.9298489 278.707948,78.0265276 278.713808,78.1026999 C278.778261,78.7413749 278.819276,79.5441013 278.836855,80.510903 L278.836855,80.9064108 C278.836855,82.2482144 278.722598,82.9571917 278.494081,83.0333639 C278.482362,83.0685203 278.33002,83.0860983 278.03705,83.0860983 C277.328062,83.0860983 276.944277,83.0568017 276.885683,82.9982077 C276.393493,82.5177365 276.147402,81.4601299 276.147402,79.8253561 C276.147402,79.3273067 276.170839,78.7794607 276.217714,78.1818014 C276.223573,78.0704727 276.226503,77.9620754 276.226503,77.8566061 C276.226503,77.3468379 276.129824,76.98649 275.936464,76.7755514 C275.766541,76.5880505 275.391545,76.4943014 274.811464,76.4943014 L274.653261,76.4943014 C274.55951,76.5001608 274.471621,76.5030905 274.389589,76.5030905 C273.997009,76.5030905 273.698184,76.4679346 273.493105,76.3976217 C273.088806,76.256996 272.79877,75.9611006 272.622987,75.5099264 L272.622987,75.457192 C272.622987,75.2403941 272.696229,75.0587553 272.842714,74.9122702 C273.170841,74.5724247 273.78021,74.4025045 274.670839,74.4025045 C274.870059,74.4025045 275.039979,74.4112935 275.180605,74.4288717 C275.291933,74.4405905 275.394471,74.4464499 275.488222,74.4464499 C275.710879,74.4464499 275.924744,74.4054346 276.129823,74.323403 C276.059511,73.5499616 276.024355,72.7882505 276.024355,72.0382467 C276.024355,71.4581657 276.044862,70.8868824 276.085878,70.3243795 C276.220644,68.6134335 276.545836,67.4737964 277.061464,66.9054342 C277.313418,66.6241828 277.612244,66.4835592 277.957948,66.4835592 L278.045839,66.4835592 C278.186465,66.4835592 278.30951,66.5392227 278.41498,66.6505514 C278.649356,66.9025058 278.766542,67.5763272 278.766542,68.6720358 C278.766542,69.3165703 278.725527,70.1046483 278.643495,71.0362936 C278.590761,71.6456717 278.561464,72.0441052 278.555605,72.2316061 C278.549745,72.4425447 278.546816,72.7179325 278.546816,73.057778 L278.546816,74.1036764 C278.546816,74.1974269 278.725525,74.2443014 279.082948,74.2443014 C279.159121,74.2443014 279.244081,74.2413718 279.337831,74.2355124 C279.882756,74.2062153 280.559507,74.1124663 281.368105,73.9542624 C281.409121,73.9425435 281.49994,73.9191063 281.640566,73.8839499 C282.138615,73.755043 282.519471,73.6905905 282.783144,73.6905905 C283.205021,73.6905905 283.483338,73.8224251 283.618105,74.0860983 Z M285.753847,77.2677389 C285.560487,77.6368814 285.463808,78.0587522 285.463808,78.5333639 L285.463808,78.6564108 C285.475527,79.1896166 285.592713,79.6407839 285.81537,80.0099264 C286.020449,80.3556313 286.266541,80.5284811 286.553652,80.5284811 C286.875919,80.5284811 287.218689,80.3116864 287.581972,79.8780905 C287.956974,79.4327758 288.167909,78.8614924 288.214784,78.1642233 C288.220644,78.0704728 288.223573,77.9796534 288.223573,77.8917624 C288.223573,77.3058219 288.088809,76.7989911 287.819277,76.3712545 C287.661073,76.1251596 287.453067,76.0021139 287.195253,76.0021139 C286.890564,76.0021139 286.58002,76.1485968 286.263612,76.441567 C285.958923,76.716959 285.789003,76.9923469 285.753847,77.2677389 Z M287.432558,73.7257467 C288.364203,73.7257467 289.108336,74.0773057 289.66498,74.7804342 C290.221623,75.4835627 290.499941,76.423983 290.499941,77.6017233 C290.499941,78.9904021 290.142522,80.2208586 289.427675,81.2931295 C288.619077,82.488448 287.587838,83.0860983 286.333925,83.0860983 C286.08783,83.0860983 285.835879,83.0597314 285.578066,83.0069967 C284.587826,82.8136364 283.87006,82.1896192 283.424745,81.1349264 C283.125916,80.4200791 282.976503,79.5968451 282.976503,78.6651999 C282.976503,78.4308237 282.985292,78.1905917 283.00287,77.9444967 C283.096621,76.6612872 283.53314,75.6388365 284.312441,74.8771139 C285.085882,74.109532 286.073177,73.7257467 287.274355,73.7257467 L287.432558,73.7257467 Z M313.166933,80.1329733 C313.676701,80.1329733 313.996034,80.3175418 314.124941,80.6866842 C314.160097,80.7980129 314.177675,80.9298475 314.177675,81.082192 C314.177675,81.2814118 314.148378,81.5099251 314.089784,81.7677389 C313.984315,82.2540695 313.50971,82.6026988 312.665956,82.8136374 C312.320251,82.9015284 311.710882,82.9835589 310.837831,83.0597311 C309.958921,83.1359034 309.050727,83.1739889 308.113222,83.1739889 C306.449151,83.1739889 304.685497,83.0538729 302.822206,82.8136374 C301.673763,82.6671522 300.988223,82.2306332 300.765566,81.504067 C300.72455,81.3634413 300.704042,81.2257474 300.704042,81.0909811 C300.704042,80.5050407 301.105405,79.9308277 301.908144,79.3683249 C305.0898,77.1476106 307.503839,74.8888442 309.150331,72.5919577 C309.443301,72.1935182 309.598573,71.8155923 309.616152,71.4581686 L309.616152,71.4054342 C309.616152,71.1066046 309.519473,70.854654 309.326112,70.6495749 C309.05072,70.3741829 308.696232,70.2364889 308.262636,70.2364889 C307.963806,70.2364889 307.618107,70.3009414 307.225527,70.4298483 C306.247006,70.7579749 305.371038,71.6222241 304.597597,73.0226217 C304.480409,73.2452791 304.278262,73.4122696 303.991152,73.5235983 C303.791932,73.5997706 303.583926,73.6378561 303.367128,73.6378561 C303.302675,73.6378561 303.238222,73.6349264 303.173769,73.629067 C302.86908,73.5880512 302.634707,73.4767242 302.470644,73.2950827 C302.335877,73.1427382 302.268495,72.9669587 302.268495,72.7677389 C302.268495,72.6915667 302.277284,72.6153956 302.294862,72.5392233 C302.576114,71.1036692 303.411066,69.8907907 304.799745,68.9005514 C306.088814,67.9923438 307.454035,67.5382467 308.895448,67.5382467 L309.080019,67.5382467 C310.533151,67.5382467 311.576109,68.1066004 312.208925,69.2433249 C312.519473,69.8116871 312.674745,70.412267 312.674745,71.0450827 C312.674745,71.6017261 312.557559,72.1847281 312.323183,72.7941061 C311.813415,74.0714562 310.770456,75.3839431 309.194277,76.7316061 C307.143485,78.4718492 305.945255,79.5558227 305.59955,79.9835592 C307.292918,80.1769196 308.658139,80.2999652 309.695253,80.3526999 L309.756777,80.3526999 C310.032169,80.3526999 310.591733,80.291177 311.435487,80.1681295 C311.886662,80.1036761 312.264588,80.0714499 312.569277,80.0714499 C312.821231,80.0714499 313.020448,80.0919575 313.166933,80.1329733 Z M316.682558,81.0997702 C317.198185,81.0997702 317.614197,81.2433234 317.930605,81.5304342 C318.211856,81.7823886 318.35248,82.0900027 318.35248,82.4532858 C318.35248,82.8048501 318.214786,83.0978159 317.939394,83.332192 C317.640564,83.578287 317.239201,83.7013327 316.735292,83.7013327 C316.571229,83.7013327 316.395449,83.689614 316.207948,83.6661764 C315.909119,83.6075824 315.674746,83.4435215 315.504823,83.1739889 C315.375917,82.957191 315.311464,82.7228183 315.311464,82.4708639 L315.311464,82.3741842 C315.329042,82.0577764 315.440369,81.7853182 315.645448,81.5568014 C315.891543,81.2872688 316.237243,81.1349266 316.682558,81.0997702 Z M318.361269,64.7521139 C318.54291,64.9806307 318.63373,65.3409786 318.63373,65.8331686 C318.63373,66.2316081 318.575137,66.7091424 318.457948,67.2657858 C318.405214,67.5177402 318.370058,67.69059 318.35248,67.7843405 C318.170838,68.8859085 318.080019,70.0636311 318.080019,71.3175436 L318.080019,71.7833639 C318.085878,72.1583658 318.088808,72.4864875 318.088808,72.7677389 C318.088808,73.0489903 318.085878,73.2862926 318.080019,73.479653 C318.074159,73.7609044 318.07123,74.0245736 318.07123,74.2706686 C318.07123,74.8214526 318.091737,75.2784793 318.132753,75.6417624 L318.176698,76.0900045 C318.252871,76.7228202 318.290956,77.2618773 318.290956,77.707192 C318.290956,78.0177405 318.273378,78.2843394 318.238222,78.5069967 C318.074159,79.3741886 317.705022,79.807778 317.1308,79.807778 C316.83197,79.807778 316.553653,79.7198882 316.295839,79.5441061 C316.020447,79.3448864 315.830019,79.0636392 315.72455,78.7003561 C315.589784,78.2374632 315.522402,77.604657 315.522402,76.8019186 C315.522402,76.3800415 315.542909,75.9083665 315.583925,75.3868795 L315.62787,75.4835592 C315.663027,74.8917594 315.680605,74.1945007 315.680605,73.3917624 C315.680605,72.9405882 315.674745,72.4601243 315.663027,71.9503561 L315.645448,71.0714499 C315.645448,70.9308242 315.624941,70.6085618 315.583925,70.104653 C315.484315,68.9269127 315.434511,68.0626635 315.434511,67.5118795 C315.434511,67.3946915 315.44037,67.2921534 315.452089,67.2042624 C315.510683,66.1319914 315.780212,65.3351243 316.260683,64.8136374 C316.536075,64.5265265 316.867126,64.3829733 317.253847,64.3829733 L317.359316,64.3829733 C317.845646,64.4005515 318.179627,64.5235972 318.361269,64.7521139 Z" id="Pickupto2!" fill="#282C3B" fill-rule="nonzero" transform="translate(287.080995, 62.402505) rotate(-345.000000) translate(-287.080995, -62.402505) "></path>
        </g>
    </g>
</svg>