<?xml version="1.0" encoding="UTF-8"?>
<svg width="21px" height="20px" viewBox="0 0 21 20" version="1.1" xmlns="http://www.w3.org/2000/svg" xmlns:xlink="http://www.w3.org/1999/xlink">
    <!-- Generator: Sketch 53.2 (72643) - https://sketchapp.com -->
    <title>Group 7</title>
    <desc>Created with Sketch.</desc>
    <g id="Page-2" stroke="none" stroke-width="1" fill="none" fill-rule="evenodd">
        <g id="op1" transform="translate(-1398.000000, -42.000000)">
            <g id="Group-7" transform="translate(1396.500000, 40.000000)">
                <polygon id="Stroke-1" stroke-opacity="0.0117647061" stroke="#000000" stroke-width="1.33333336e-11" points="0 0 23.999999 0 23.999999 23.999999 0 23.999999"></polygon>
                <g id="Group-6" transform="translate(2.000000, 2.000000)" fill="#ACACAC" fill-rule="nonzero">
                    <path d="M13.9497448,4.0502521 C12.5751846,2.67569134 10.9439215,1.99999982 8.99999934,1.99999982 C7.05607693,1.99999982 5.42481282,2.67569152 4.05025217,4.05025235 C2.67569133,5.42481284 1.99999964,7.0560769 1.99999982,8.99999943 C1.99999964,10.9439215 2.67569114,12.5751846 4.05025231,13.949745 C5.42481232,15.3243052 7.05607649,15.9999971 8.99999843,15.9999989 C10.9439219,15.9999971 12.5751851,15.3243053 13.9497451,13.9497448 C15.3243053,12.5751851 15.9999971,10.9439219 15.9999989,8.99999843 C15.9999971,7.05607649 15.3243052,5.42481232 13.9497448,4.0502521 Z M15.3639586,15.3639583 C13.6143265,17.1135913 11.474356,17.9999966 8.99999843,17.9999989 C6.52564256,17.9999966 4.38567118,17.1135912 2.6360389,15.3639587 C0.88640494,13.6143257 -4.04010759e-07,11.4743546 -1.79999915e-07,8.99999943 C-4.0401077e-07,6.52564397 0.886405019,4.38567193 2.63603865,2.63603874 C4.38567195,0.886405221 6.52564393,-1.79999915e-07 8.99999934,-1.79999915e-07 C11.4743546,-1.79999915e-07 13.6143257,0.886405141 15.3639584,2.63603865 C17.1135912,4.38567118 17.9999966,6.52564256 17.9999989,8.99999843 C17.9999966,11.474356 17.1135913,13.6143265 15.3639586,15.3639583 Z" id="Stroke-3"></path>
                    <path d="M19.7071055,18.292892 C20.0976298,18.6834163 20.0976298,19.3165812 19.7071055,19.7071055 C19.3165812,20.0976298 18.6834163,20.0976298 18.292892,19.7071055 L13.9428918,15.3571054 C13.5523675,14.9665811 13.5523675,14.3334161 13.9428918,13.9428918 C14.3334161,13.5523675 14.9665811,13.5523675 15.3571054,13.9428918 L19.7071055,18.292892 Z" id="Stroke-5"></path>
                </g>
            </g>
        </g>
    </g>
</svg>