<svg xmlns="http://www.w3.org/2000/svg" xmlns:xlink="http://www.w3.org/1999/xlink" width="22" height="22" viewBox="0 0 22 22">
    <defs>
        <path id="a" d="M0 0h22v22H0z"/>
    </defs>
    <g fill="none" fill-rule="evenodd">
        <mask id="b" fill="#fff">
            <use xlink:href="#a"/>
        </mask>
        <path fill="#020202" stroke="#020202" stroke-width=".5" d="M18.963 8.218c-.34.551-1.244 1.046-1.757 1.41-.542.385-1.101.746-1.661 1.103-.457.291-.919.575-1.381.859l-.898-3.333 2.06-.247 2.362-.283c.488-.059 1.818-.39 1.275.491M13.8 12.643l1.172 4.398c-1.48-.819-2.94-1.67-4.378-2.561 1.08-.59 2.15-1.203 3.206-1.837m-8.758 3.853c.472-1.302.941-2.607 1.432-3.902.91.618 1.831 1.22 2.762 1.807a95.919 95.919 0 0 1-4.194 2.095M3.2 9.448c1.361-.162 2.723-.323 4.085-.482a55.323 55.323 0 0 0-1.068 2.646A105.77 105.77 0 0 1 3.2 9.448m9.45-1.117l.959 3.598c-.517.311-1.035.62-1.558.921-.71.41-1.426.806-2.146 1.195a104.767 104.767 0 0 1-3.187-2.09c.4-1.034.818-2.06 1.268-3.071 1.002-.117 2.005-.234 3.007-.354l1.657-.2m-1.424-5.343l1.242 4.661c-1.383.167-2.766.336-4.15.505.831-1.79 1.775-3.524 2.908-5.166m6.856 3.987c-1.668.186-3.333.399-5 .6L11.638 2.21c-.071-.265-.403-.27-.546-.071-1.38 1.91-2.512 3.965-3.484 6.1-1.76.215-3.52.43-5.28.641-.343.041-.445.416-.17.624 1.252.95 2.528 1.864 3.821 2.752a99.553 99.553 0 0 0-1.637 4.97c-.077.253.305.35.393.108l.003-.008a.36.36 0 0 0 .25-.024 96.214 96.214 0 0 0 4.94-2.466 103.89 103.89 0 0 0 5.385 3.124c.243.131.543-.086.47-.36l-1.426-5.295c1.191-.72 2.379-1.457 3.501-2.278.638-.467 2.21-1.339 2.14-2.272-.069-.921-1.26-.856-1.916-.782" mask="url(#b)"/>
    </g>
</svg>
